<?xml version="1.0" standalone="no"?>
<!DOCTYPE svg PUBLIC "-//W3C//DTD SVG 1.1//EN" "http://www.w3.org/Graphics/SVG/1.1/DTD/svg11.dtd" >
<svg>
<metadata>
Created by FontForge 20110222 at Thu Jun 27 08:34:35 2013
 By Orthosie Webhosting
Copyright (c) 1988, 1995, 1998, 2001 Adobe Systems Incorporated.  All Rights Reserved.
</metadata>
<defs>
<font id="GoudyStdExtraBold" horiz-adv-x="556" >
  <font-face 
    font-family="GoudyStdExtraBold"
    font-weight="800"
    font-stretch="normal"
    units-per-em="1000"
    panose-1="2 2 8 2 6 3 5 2 3 3"
    ascent="744"
    descent="-256"
    x-height="436"
    cap-height="688"
    bbox="-167 -250 1000 924"
    underline-thickness="50"
    underline-position="-50"
    unicode-range="U+0020-FB02"
  />
<missing-glyph horiz-adv-x="500" 
d="M0 0v700h500v-700h-500zM250 395l170 255h-340zM280 350l170 -255v510zM80 50h340l-170 255zM50 605v-510l170 255z" />
    <glyph glyph-name="fi" unicode="fi" horiz-adv-x="611" 
d="M355 382h-100q-33 0 -33 -34v-253q0 -49 39 -63q4 -2 13.5 -4.5t13.5 -4t8 -5.5t4 -10q0 -16 -25 -16q-19 0 -56 4t-55 4t-55 -4t-56 -4q-22 0 -22 16q0 8 4.5 12.5t8.5 6.5t15 5q28 8 28 38v299q0 13 -28 13q-30 0 -38 5t-8 22q0 28 46 28q10 0 14.5 1t10.5 9.5t8 24.5
q0 2 2.5 20t5 27t8 28.5t15 34t23 33t34.5 36.5t48 34q98 59 181 59q29 0 68.5 -17.5t39.5 -38.5q0 -28 -24 -51.5t-45.5 -34t-28.5 -10.5q-5 0 -11.5 22.5t-24.5 45t-53 22.5q-34 0 -57.5 -24t-33.5 -63.5t-13.5 -71t-3.5 -65.5q0 -21 6 -21h143q28 0 64 1.5t38 1.5
q13 0 28 2.5t18 2.5q10 0 10 -17v-335q0 -20 6.5 -33.5t14 -18.5t19.5 -9q4 -2 13.5 -4.5t13.5 -4t8 -5.5t4 -10q0 -9 -4.5 -12.5t-20.5 -3.5q-19 0 -56 4t-55 4t-55 -4t-56 -4q-22 0 -22 16q0 17 28 24q27 8 27 37v284q0 29 -39 29z" />
    <glyph glyph-name="fl" unicode="fl" horiz-adv-x="611" 
d="M222 371v-277q0 -50 39 -62q3 -1 8.5 -2.5t8 -2.5t7 -2.5t6.5 -3t4.5 -3.5t3.5 -4.5t1 -5.5q0 -16 -25 -16q-19 0 -56 4t-55 4t-55 -4t-56 -4q-22 0 -22 16q0 17 28 24q28 6 28 37v304q0 9 -43 9q-20 0 -25.5 5t-5.5 22q0 28 46 28q30 0 31 15q11 113 77.5 187.5
t179.5 84.5q33 3 65 3q6 0 26.5 -2.5t23.5 -2.5q9 0 31.5 11t30.5 11q12 0 12 -17q0 -7 -4 -27.5t-4 -31.5v-576q0 -20 7 -33t13.5 -17t18.5 -10q4 -2 17 -6t17.5 -7.5t4.5 -10.5q0 -16 -25 -16q-19 0 -55.5 4t-55.5 4t-56 -4t-55 -4q-22 0 -22 16q0 17 28 24q28 6 28 36
v494q0 66 -14.5 88t-50.5 22q-29 0 -51 -18.5t-33.5 -47t-16.5 -55t-5 -49.5v-59q0 -6 14 -6h43q18 0 33.5 10t19.5 10q11 0 11 -14q0 -24 -12 -42.5t-33 -18.5h-52q-24 2 -24 -11z" />
    <glyph glyph-name=".notdef" horiz-adv-x="500" 
d="M0 0v700h500v-700h-500zM250 395l170 255h-340zM280 350l170 -255v510zM80 50h340l-170 255zM50 605v-510l170 255z" />
    <glyph glyph-name=".null" horiz-adv-x="0" 
 />
    <glyph glyph-name="nonmarkingreturn" horiz-adv-x="333" 
 />
    <glyph glyph-name="space" unicode=" " horiz-adv-x="278" 
 />
    <glyph glyph-name="exclam" unicode="!" horiz-adv-x="333" 
d="M252 649l-66 -380q-4 -23 -7.5 -29.5t-12.5 -6.5q-8 0 -11.5 4.5t-6.5 21.5l-59 349q-3 20 -3 26q0 26 25 41q38 22 103 22q40 0 40 -19q0 -16 -2 -29zM71 83q0 18 37 55t56 37q18 0 54 -37t36 -55q0 -19 -36 -55t-54 -36q-19 0 -56 36t-37 55z" />
    <glyph glyph-name="quotedbl" unicode="&#x22;" horiz-adv-x="333" 
d="M123 616l-19 -204q-1 -9 -8.5 -20t-20.5 -11q-14 0 -21.5 10.5t-8.5 20.5l-19 204q-6 81 49 81q54 0 48 -81zM307 616l-19 -204q-1 -10 -8.5 -20.5t-21.5 -10.5q-13 0 -20.5 11t-8.5 20l-19 204q-6 81 48 81q55 0 49 -81z" />
    <glyph glyph-name="numbersign" unicode="#" 
d="M343 407h-93l-20 -146h93zM211 668h75l-26 -192h93l26 192h75l-26 -192h88l-5 -69h-93l-20 -146h89l-5 -69h-94l-27 -192h-75l27 192h-93l-27 -192h-75l27 192h-104l4 69h110l20 146h-105l4 69h111z" />
    <glyph glyph-name="dollar" unicode="$" 
d="M244 456v188q-41 0 -69.5 -24.5t-28.5 -63.5q0 -40 28 -65.5t70 -34.5zM289 276v-252q55 5 86.5 35.5t31.5 84.5q0 57 -29 84.5t-89 47.5zM289 644v-207q55 -19 86 -33t66 -39.5t50.5 -62.5t15.5 -89q0 -109 -54.5 -158t-163.5 -71v-124h-45v124q-92 0 -178 52
q-3 2 -8.5 5t-7.5 4.5t-6 4t-5.5 4.5t-4 5.5t-3.5 6.5t-2 7.5t-1 9.5q0 8 2.5 24t6 38t4.5 32q8 49 24 49q11 0 15.5 -10t6.5 -45q4 -56 51 -100.5t106 -46.5v271q-36 10 -61 19t-53 24.5t-45 34t-28 46.5t-11 63q0 171 198 202v90h45v-90q47 -5 96 -22t75 -44q6 -6 6 -22
q0 -37 -16 -89q-5 -17 -9 -23.5t-12 -6.5q-11 0 -14.5 6t-3.5 23q0 51 -35.5 92.5t-86.5 45.5z" />
    <glyph glyph-name="percent" unicode="%" horiz-adv-x="889" 
d="M205 653q-40 0 -56.5 -34.5t-16.5 -78.5q0 -27 4.5 -56t14 -61t30.5 -52.5t50 -20.5q74 0 74 112q0 26 -4.5 55t-14.5 61.5t-31 53.5t-50 21zM280 -16h-55l381 700h53zM656 318q-40 0 -56.5 -34.5t-16.5 -78.5q0 -27 4.5 -56t14 -61t30.5 -52.5t50 -20.5q74 0 74 112
q0 26 -4.5 55t-14.5 61.5t-31 53.5t-50 21zM220 684q80 0 131.5 -50.5t51.5 -130.5q0 -85 -50 -134.5t-135 -49.5q-79 0 -131.5 53t-52.5 132q0 84 50.5 132t135.5 48zM671 349q80 0 131.5 -50.5t51.5 -130.5q0 -85 -50 -134.5t-135 -49.5q-79 0 -131.5 53t-52.5 132
q0 84 50.5 132t135.5 48z" />
    <glyph glyph-name="ampersand" unicode="&#x26;" horiz-adv-x="889" 
d="M269 349q-46 51 -65 51q-46 0 -46 -82q0 -34 38.5 -94.5t107 -113.5t136.5 -53q31 0 57.5 9t26.5 20t-15 23q-43 36 -84.5 76t-61.5 61t-55.5 60.5t-38.5 42.5zM302 574q0 -23 12 -51t37 -59.5t47.5 -58t59.5 -61t56.5 -52t55 -48.5t39.5 -34q21 -18 31 -18q31 0 31 85
q0 41 -17 59t-55 18q-21 0 -27.5 5t-6.5 18t5 17t20 4q14 0 42 -2t42 -2q15 0 43.5 2t42.5 2q27 0 27 -21q0 -10 -20 -21.5t-24 -25.5q-4 -16 -10 -48t-11 -49q-4 -14 -15 -31t-20 -28.5t-9 -12.5q0 -12 57 -54.5t78 -42.5q9 0 21.5 2t17.5 2q26 0 26 -14q0 -26 -50.5 -48.5
t-90.5 -22.5t-74 17t-58.5 36.5t-37.5 21.5q-96 -75 -244 -75q-114 0 -198.5 66t-84.5 175q0 69 42.5 127t108.5 89q-18 52 -18 105q0 67 53 109.5t122 42.5q50 0 97 -16.5t53 -16.5q12 0 26 5t17 5q10 0 12 -19l11 -142q2 -16 2 -22q0 -17 -15 -17q-21 0 -22 23
q-4 56 -55 104t-107 48q-30 0 -47.5 -22.5t-17.5 -52.5z" />
    <glyph glyph-name="quotesingle" unicode="'" horiz-adv-x="222" 
d="M159 616l-19 -204q-1 -9 -8.5 -20t-20.5 -11q-14 0 -21.5 10.5t-8.5 20.5l-19 204q-6 81 49 81q54 0 48 -81z" />
    <glyph glyph-name="parenleft" unicode="(" horiz-adv-x="389" 
d="M73 256q0 59 19 126t46 121t55.5 99t49.5 70t27 25q8 0 14.5 -7.5t6.5 -14.5l-18 -36q-88 -192 -88 -383q0 -190 88 -382l18 -36q0 -7 -6.5 -14.5t-14.5 -8.5q-6 0 -27 25t-49.5 70t-55.5 99t-46 121t-19 126z" />
    <glyph glyph-name="parenright" unicode=")" horiz-adv-x="389" 
d="M316 256q0 -59 -19 -126t-46 -121t-55.5 -99t-49.5 -70t-27 -25q-8 1 -14.5 8.5t-6.5 14.5l18 36q88 192 88 382q0 191 -88 383l-18 36q0 7 6.5 14.5t14.5 7.5q6 0 27 -25t49.5 -70t55.5 -99t46 -121t19 -126z" />
    <glyph glyph-name="asterisk" unicode="*" horiz-adv-x="444" 
d="M203 467v2q-7 2 -23.5 8t-30 9.5t-21.5 3.5q-41 0 -75.5 13.5t-34.5 45.5q0 26 14.5 44.5t39.5 18.5q30 0 48.5 -19t39 -49.5t45.5 -46.5q0 47 -20.5 86t-20.5 63t17.5 37.5t40.5 13.5q24 0 42 -13.5t18 -37.5t-20.5 -63t-20.5 -86q25 16 45.5 46.5t39.5 49.5t49 19
q25 0 39.5 -18.5t14.5 -44.5q0 -32 -35 -45.5t-76 -13.5q-8 0 -21.5 -3.5t-30 -9.5t-23.5 -8v-2q44 -17 71 -17q112 0 112 -60q0 -28 -16.5 -45t-44.5 -17q-20 0 -34 15.5t-37.5 47t-53.5 56.5q0 -47 20.5 -86t20.5 -63t-18 -37.5t-42 -13.5q-22 0 -39 13.5t-17 37.5
t20.5 63t20.5 86q-29 -25 -52.5 -57t-37.5 -47t-34 -15q-28 0 -44.5 17t-16.5 45q0 60 112 60q26 0 70 17z" />
    <glyph glyph-name="plus" unicode="+" horiz-adv-x="600" 
d="M252 262v166h96v-166h166v-96h-166v-166h-96v166h-166v96h166z" />
    <glyph glyph-name="comma" unicode="," horiz-adv-x="278" 
d="M146 154q31 0 57.5 -42.5t26.5 -82.5q0 -42 -21.5 -83.5t-50.5 -67.5t-54 -42t-35 -16q-15 0 -15 11q0 9 18 25.5t36 39.5t18 48q0 30 -10.5 50.5t-23.5 29t-23.5 19.5t-10.5 22q0 25 30.5 57t57.5 32z" />
    <glyph glyph-name="hyphen" unicode="-" horiz-adv-x="333" 
d="M80 249l163 59l14 4q14 5 19 5q11 0 11 -18q0 -1 1.5 -35t1.5 -51q0 -16 -8.5 -23t-29.5 -14l-163 -58q-24 -9 -33 -9t-11 17q-3 24 -3 86q0 16 8.5 23t29.5 14z" />
    <glyph glyph-name="period" unicode="." horiz-adv-x="278" 
d="M47 83q0 18 37 55t56 37q18 0 54 -37t36 -55q0 -19 -36 -55t-54 -36q-19 0 -56 36t-37 55z" />
    <glyph glyph-name="slash" unicode="/" horiz-adv-x="278" 
d="M0 -17l198 714h80l-198 -714h-80z" />
    <glyph glyph-name="zero" unicode="0" 
d="M529 354q0 -61 -16 -123.5t-46.5 -119t-83.5 -92t-119 -35.5q-77 0 -133.5 52t-80.5 122.5t-24 144.5q0 62 13.5 125t42 122.5t80 96.5t119.5 37q80 0 138.5 -54t84 -127t25.5 -149zM314 41q107 0 107 159q0 40 -11.5 106t-33 140.5t-62 127.5t-88.5 53
q-51 0 -71.5 -43.5t-20.5 -100.5q0 -39 11 -108t31.5 -146t57 -132.5t80.5 -55.5z" />
    <glyph glyph-name="one" unicode="1" 
d="M215 94v447q0 29 -33 29q-17 0 -31 -3.5t-17 -3.5q-23 0 -23 19q0 16 37 25q5 1 26.5 6.5t29 7.5t26 8t28.5 11t23 12.5t24 16.5q18 15 23 15q10 0 13.5 -4t3.5 -16v-556q0 -34 13 -50t42 -26q4 -1 13.5 -3.5t15 -4.5t10.5 -6t5 -10q0 -16 -35 -16q-21 0 -64 4t-65 4
t-65 -4t-64 -4q-35 0 -35 16q0 17 45 24q21 3 37.5 21t16.5 41z" />
    <glyph glyph-name="two" unicode="2" 
d="M193 118h148q25 0 46 13.5t32 29t22.5 29t21.5 13.5q17 0 17 -19q0 -8 -3 -14l-57 -147q-7 -19 -20 -25t-39 -6q-25 0 -76 4t-77 4t-77 -4t-76 -4q-26 0 -26 16q0 11 16 31q10 13 57 73t74.5 99.5t65 97.5t56 108t18.5 90t-26.5 67.5t-68.5 27.5q-32 0 -61.5 -16
t-48 -32.5t-24.5 -16.5q-18 0 -18 15q0 28 71.5 80t136.5 52q79 0 129 -38t50 -108q0 -27 -10 -56.5t-32 -63.5t-40 -59.5t-52.5 -62.5t-50 -53.5t-52 -52.5t-39.5 -39q-6 -7 -6 -18q0 -6 7 -10.5t12 -4.5z" />
    <glyph glyph-name="three" unicode="3" 
d="M295 516q0 43 -22.5 70.5t-64.5 27.5q-22 0 -41 -8.5t-28.5 -18t-19.5 -18t-17 -8.5q-17 0 -17 12q0 29 63 70t130 41q58 0 102.5 -33t44.5 -88q0 -75 -102 -142q-6 -4 -6 -10q0 -5 9 -6q69 -5 105 -46.5t36 -114.5q0 -111 -75.5 -185.5t-186.5 -74.5q-60 0 -119 29
t-59 53q0 19 17 19q9 0 24.5 -13t43 -26t66.5 -13q69 0 109 49t40 120q0 52 -25 87.5t-74 35.5q-6 0 -21 -2.5t-22 -2.5q-17 0 -17 20q0 6 4.5 11.5t9 8t13 7t10.5 5.5q40 23 65 61t25 83z" />
    <glyph glyph-name="four" unicode="4" 
d="M294 299v218h-2q-9 -12 -55 -63.5t-82.5 -95.5t-41.5 -59h181zM294 184h-266q-19 0 -19 19q0 23 28 68.5t70.5 96t92 106.5t92 99.5t71.5 73.5t30 30q8 7 21 7q10 0 10 -64v-321q40 0 62 15q4 3 8.5 8.5t8.5 8.5t11 3q13 0 13 -20q0 -26 -15 -78t-36 -52h-52v-151
q0 -21 -11 -25q-72 -24 -111 -24q-8 0 -8 16v184z" />
    <glyph glyph-name="five" unicode="5" 
d="M479 241q0 -112 -83 -184.5t-197 -72.5q-85 0 -157 42q-20 12 -20 26q0 13 15 13q3 0 24.5 -6t53.5 -12t58 -6q77 0 124 44.5t47 117.5q0 57 -38 84.5t-98 27.5q-19 0 -59 -3.5t-51 -3.5q-19 0 -19 20q0 25 4 50l31 234q3 28 10 42t23 14h238q24 0 36.5 9.5t20.5 19
t19 9.5t11 -18q0 -7 -4.5 -25.5t-12.5 -46t-11 -38.5q-6 -26 -20.5 -32t-69.5 -6h-174q-20 0 -26 -6t-8 -25l-6 -64q0 -20 16 -20q7 0 39.5 5t62.5 5q55 0 103 -17.5t83 -63.5t35 -113z" />
    <glyph glyph-name="six" unicode="6" 
d="M297 24q48 0 71 42.5t23 94.5q0 70 -30.5 131t-93.5 61q-50 0 -76 -34.5t-26 -85.5q0 -41 13 -87t44.5 -84t74.5 -38zM272 -16q-115 0 -178.5 83t-63.5 201q0 106 61.5 203t161 155t206.5 58q26 0 26 -23q0 -9 -36 -12q-59 -6 -117 -47q-52 -37 -94.5 -103t-42.5 -114
q0 -12 4 -12q1 0 3 1t4.5 2.5t3.5 2.5q80 45 138 47q82 3 130 -54.5t48 -141.5q0 -111 -71 -178.5t-183 -67.5z" />
    <glyph glyph-name="seven" unicode="7" 
d="M394 553h-198q-42 0 -57 -11t-28 -50q-12 -37 -26 -37q-19 0 -19 50q0 61 31 134q8 19 12 24t13 5h307q51 0 51 -46q0 -53 -38 -143t-76 -186.5t-38 -165.5q0 -43 9.5 -74t9.5 -40q0 -29 -111 -29q-33 0 -45 17t-12 60q0 53 24.5 110.5t59 106.5t69 95t59 90t24.5 76
q0 14 -21 14z" />
    <glyph glyph-name="eight" unicode="8" 
d="M357 234l-157 63q-19 7 -24 7q-8 0 -18.5 -13t-20 -39t-9.5 -56q0 -78 42 -125t118 -47q47 0 90.5 27.5t43.5 79.5q0 42 -15 65.5t-50 37.5zM256 644q-44 0 -77.5 -24t-33.5 -72q0 -35 23 -62.5t55 -41t57.5 -20.5t38.5 -7q38 0 58 29t20 69q0 60 -40 94.5t-101 34.5z
M278 684q48 0 93.5 -14t80.5 -49.5t35 -86.5t-23 -78.5t-71 -46.5q-23 -10 -23 -12q0 -3 19 -11q61 -30 97 -80t36 -114q0 -109 -74.5 -158.5t-187.5 -49.5q-95 0 -160.5 47.5t-65.5 141.5q0 104 93 144q3 2 8 3.5t8 2.5t3 2t-17 14q-74 57 -74 153q0 89 66 140.5t157 51.5z
" />
    <glyph glyph-name="nine" unicode="9" 
d="M259 644q-48 0 -71 -42.5t-23 -94.5q0 -70 30.5 -131t93.5 -61q50 0 76 34.5t26 85.5q0 41 -13 87t-44.5 84t-74.5 38zM284 684q115 0 178.5 -83t63.5 -201q0 -106 -61.5 -203t-161 -155t-206.5 -58q-26 0 -26 23q0 9 36 12q59 6 117 47q52 37 94.5 103t42.5 114
q0 12 -4 12q-1 0 -3 -1t-4.5 -2.5t-3.5 -2.5q-80 -45 -138 -47q-82 -3 -130 54.5t-48 141.5q0 111 71 178.5t183 67.5z" />
    <glyph glyph-name="colon" unicode=":" horiz-adv-x="278" 
d="M47 83q0 18 37 55t56 37q18 0 54 -37t36 -55q0 -19 -36 -55t-54 -36q-19 0 -56 36t-37 55zM47 345q0 18 37 55t56 37q18 0 54 -37t36 -55q0 -19 -36 -55t-54 -36q-19 0 -56 36t-37 55z" />
    <glyph glyph-name="semicolon" unicode=";" horiz-adv-x="278" 
d="M139 154q31 0 57.5 -42.5t26.5 -82.5q0 -42 -21.5 -83.5t-50.5 -67.5t-54 -42t-35 -16q-15 0 -15 11q0 9 18 25.5t36 39.5t18 48q0 30 -10.5 50.5t-23.5 29t-23.5 19.5t-10.5 22q0 25 30.5 57t57.5 32zM48 345q0 18 37 55t56 37q18 0 54 -37t36 -55q0 -19 -36 -55
t-54 -36q-19 0 -56 36t-37 55z" />
    <glyph glyph-name="less" unicode="&#x3c;" horiz-adv-x="600" 
d="M554 61v-108l-508 216v90l508 216v-108l-363 -153z" />
    <glyph glyph-name="equal" unicode="=" horiz-adv-x="600" 
d="M514 358v-96h-428v96h428zM514 166v-96h-428v96h428z" />
    <glyph glyph-name="greater" unicode="&#x3e;" horiz-adv-x="600" 
d="M46 61l363 153l-363 153v108l508 -216v-90l-508 -216v108z" />
    <glyph glyph-name="question" unicode="?" horiz-adv-x="389" 
d="M167 244q-18 0 -26 25.5t-8 47.5q0 51 31.5 131.5t31.5 117.5q0 30 -18 49t-47 19q-20 0 -45 -19.5t-31 -19.5q-10 0 -10 15q0 22 46.5 54.5t103.5 32.5q148 0 148 -127q0 -29 -27 -67.5t-69 -88t-62 -83.5q-6 -10 -6.5 -32.5t-2 -38.5t-9.5 -16zM155 175q18 0 54 -37
t36 -55q0 -19 -36 -55t-54 -36q-19 0 -56 36t-37 55q0 18 37 55t56 37z" />
    <glyph glyph-name="at" unicode="@" horiz-adv-x="800" 
d="M503 401q0 34 -8.5 50t-30.5 16q-38 0 -77.5 -52t-39.5 -121q0 -39 13.5 -62.5t31.5 -23.5q39 0 70 48.5t41 144.5zM527 479l10 34h78l-61 -247q-2 -12 -2 -22q0 -50 30 -50q35 0 68 66t33 131q0 91 -74 162.5t-191 71.5q-45 0 -88 -17t-82 -52t-63 -98t-24 -145
q0 -108 81.5 -183t185.5 -75q107 0 205 50l10 -58q-115 -64 -214 -64q-96 0 -173.5 33.5t-122.5 85.5t-68.5 109.5t-23.5 112.5q0 164 110 268.5t267 104.5q145 0 243 -87t98 -218q0 -55 -22 -110t-67.5 -95.5t-103.5 -40.5q-45 0 -69.5 28t-23.5 47h-2q-8 -19 -43 -45.5
t-76 -28.5q-36 -1 -67.5 29t-31.5 97q0 36 13 78t36.5 82.5t64.5 67.5t90 27q10 0 18 -1t14.5 -4.5t10.5 -6t9 -8.5t6.5 -8.5t6 -10.5t5.5 -10z" />
    <glyph glyph-name="A" unicode="A" horiz-adv-x="778" 
d="M80 79l285 583q17 35 27 35q6 0 16 -21l250 -544q3 -6 10 -23t11.5 -25t12 -20t16.5 -19t20 -10q36 -11 40 -18q2 -4 2 -9q0 -11 -6 -13.5t-20 -2.5q-24 0 -71 4t-69 4t-69 -4t-71 -4q-20 0 -20 13q0 20 26 22q19 4 30.5 19t11.5 35q0 19 -17 67t-28 59q-17 17 -81 17
h-153q-34 0 -56.5 -51.5t-22.5 -92.5q0 -11 14.5 -23t31.5 -17q3 -1 12 -3.5t13 -3.5t12 -3.5t11.5 -4.5t8 -5t6.5 -6t2 -6q0 -11 -6 -13.5t-21 -2.5q-17 0 -51 4t-51 4t-51 -4t-51 -4q-9 0 -13.5 0.5t-8.5 4t-4 11.5q0 7 6 12.5t17.5 11t15.5 8.5q21 15 33 39zM316 456
l-66 -137q-11 -22 -11 -28q0 -12 42 -12h108q44 0 44 6q0 10 -15 40l-68 137q-11 20 -18 20q-6 0 -16 -26z" />
    <glyph glyph-name="B" unicode="B" horiz-adv-x="722" 
d="M262 307v-182q0 -22 2 -33t10.5 -24t28.5 -18t53 -5q77 0 120 36t43 110q0 48 -17 79.5t-50 47t-67.5 21t-83.5 5.5q-39 0 -39 -37zM262 569v-123q0 -33 21.5 -46.5t64.5 -13.5q123 0 123 109q0 62 -36 105t-102 43q-42 0 -56.5 -17.5t-14.5 -56.5zM110 129v395
q0 75 -12.5 100.5t-37.5 25.5q-17 0 -33 5.5t-16 15.5q0 11 7 14t31 3q25 0 74 -4t73 -4t73 4t74 4q140 0 211.5 -37.5t71.5 -129.5q0 -61 -40 -93t-110 -50v-2q46 -3 78.5 -11.5t63.5 -28t47 -57.5t16 -93q0 -88 -81 -141t-252 -53q-54 0 -116.5 4t-78.5 4q-19 0 -41.5 -4
t-33.5 -4q-45 0 -45 13q0 9 4 13.5t16 8t15 5.5q27 13 34.5 35.5t7.5 61.5z" />
    <glyph glyph-name="C" unicode="C" horiz-adv-x="722" 
d="M665 664l15 -136q1 -8 4 -26.5t3 -25.5q0 -24 -15 -24q-9 0 -27 31q-47 82 -108 125.5t-127 43.5q-220 0 -220 -290q0 -119 67 -209t166 -90q119 0 215 96q1 1 9 9.5t11.5 11.5t10 7t12.5 4q11 0 11 -14q0 -10 -12.5 -31.5t-39.5 -49.5t-63 -53t-90 -42.5t-113 -17.5
q-86 0 -164 38t-130 116t-52 180q0 100 31.5 176t84 119t114 64t129.5 21q48 0 97 -13.5t82 -26.5t42 -13q12 0 21 15.5t23 15.5q11 0 13 -11z" />
    <glyph glyph-name="D" unicode="D" horiz-adv-x="778" 
d="M256 562v-417q0 -62 25.5 -81t91.5 -19q69 0 120.5 44t75 106t23.5 129q0 47 -9 91.5t-29.5 86t-50 72.5t-73 50t-96.5 19q-45 0 -61.5 -19.5t-16.5 -61.5zM104 137v383q0 69 -10.5 90.5t-38.5 28.5q-5 1 -11.5 3t-10 3t-8 2.5t-6.5 2.5t-4.5 2t-4 2.5t-2.5 3t-1.5 3.5
t-0.5 4q0 14 9 18.5t29 4.5q24 0 73 -4t74 -4t74 4t73 4q416 0 416 -329q0 -88 -34 -159.5t-90.5 -116t-126.5 -68t-146 -23.5q-60 0 -129.5 4t-77.5 4q-14 0 -45 -4t-46 -4q-31 0 -31 11q0 2 0.5 4.5t2 4.5t3 3.5t4 3t4.5 2.5t5.5 2t5 2t6 2t5.5 2q40 14 40 108z" />
    <glyph glyph-name="E" unicode="E" horiz-adv-x="611" 
d="M107 137v377q0 123 -47 129q-52 7 -52 29q0 11 9 13.5t28 2.5q43 -6 231 -8q38 0 115 4t116 4q15 0 22 -0.5t14 -5.5t7 -14q0 -11 -2 -33t-2 -33t2 -33t2 -33q0 -19 -18 -19q-17 0 -20 27q-5 49 -36.5 69t-116.5 20h-65q-21 0 -28 -9.5t-7 -38.5v-175q0 -21 57 -21
q96 0 118 60q8 20 12.5 25.5t12.5 5.5q15 0 15 -28q0 -15 -2 -45t-2 -45t2 -45t2 -45q0 -9 -0.5 -14t-5 -9.5t-13.5 -4.5q-7 0 -10.5 7.5t-8 21.5t-8.5 21q-18 29 -41.5 38t-70.5 9q-34 0 -45.5 -9t-11.5 -29v-171q0 -54 12.5 -69.5t53.5 -15.5q130 0 197 65q14 13 26.5 31
t19.5 27t14 9q16 0 16 -19q0 -36 -15 -79q-11 -33 -41.5 -61t-63.5 -28q-34 0 -101 4t-100 4t-100 -4t-101 -4q-14 0 -20.5 0.5t-13.5 1.5t-9.5 4.5t-2.5 9.5q0 4 2 7.5t4 6t6.5 5.5t7.5 4.5t9.5 4.5t8.5 4q24 12 31.5 32t7.5 65z" />
    <glyph glyph-name="F" unicode="F" 
d="M106 115v439q0 53 -9 73.5t-37 20.5q-52 0 -52 24q0 16 47 16q37 0 111 -4t111 -4t111 4t111 4q14 0 21 -0.5t14 -6t7 -15.5t-2 -32t-2 -33t2 -32.5t2 -32.5q0 -19 -18 -19q-17 0 -20 27q-2 22 -9 37.5t-20.5 25t-25.5 15t-34 8t-35.5 3t-40.5 0.5h-53q-17 0 -22 -10
t-5 -39v-171q0 -14 11 -19t38 -5q47 0 71 9t41 37q5 8 9 21t7.5 19t10.5 6q13 0 16 -7t3 -21q0 -15 -2 -44.5t-2 -44.5q0 -14 2 -44t2 -45q0 -27 -19 -27q-7 0 -11 7.5t-8.5 22.5t-10.5 24q-15 24 -38.5 31.5t-70.5 7.5q-28 0 -38.5 -7.5t-10.5 -27.5v-183q0 -86 76 -91
q21 -2 21 -24q0 -16 -58 -16q-20 0 -60 4t-60 4t-60 -4t-60 -4q-29 0 -29 16t27 24q51 16 51 83z" />
    <glyph glyph-name="G" unicode="G" horiz-adv-x="778" 
d="M539 155v60q0 75 -81 83q-19 2 -19 24q0 10 12.5 13t45.5 3q20 0 60 -3t60 -3t60 3t60 3q29 0 29 -16t-27 -24q-48 -15 -48 -83v-146q0 -9 -48 -29t-122.5 -38.5t-133.5 -18.5q-155 0 -254.5 92t-99.5 243q0 160 104.5 269.5t254.5 109.5q53 0 104.5 -13.5t82.5 -26.5
t34 -13q12 0 21 15.5t25 15.5q9 0 11 -11l16 -141q1 -6 2.5 -17t2.5 -18.5t1 -11.5q0 -24 -15 -24q-9 0 -27 31q-60 104 -113.5 136.5t-121.5 32.5q-80 0 -130.5 -40t-70 -102t-19.5 -147q0 -60 9.5 -114.5t31.5 -106.5t65.5 -83t104.5 -31q69 0 101 29t32 98z" />
    <glyph glyph-name="H" unicode="H" horiz-adv-x="833" 
d="M303 396h216q26 0 37 7t11 24v138q0 78 -76 83q-21 2 -21 24q0 16 58 16q20 0 60 -4t60 -4t60 4t60 4q29 0 29 -16t-27 -24q-23 -7 -37 -30t-14 -53v-450q0 -78 76 -83q21 -2 21 -24q0 -16 -58 -16q-20 0 -60 4t-60 4t-60 -4t-60 -4q-29 0 -29 16t27 24q51 16 51 83v192
q0 23 -6.5 28.5t-29.5 5.5h-245q-20 0 -20 -32v-194q0 -78 76 -83q21 -2 21 -24q0 -16 -58 -16q-20 0 -60 4t-60 4t-60 -4t-60 -4q-29 0 -29 16t27 24q51 16 51 83v450q0 78 -76 83q-21 2 -21 24q0 16 58 16q20 0 60 -4t60 -4t60 4t60 4q29 0 29 -16t-27 -24
q-51 -16 -51 -83v-138q0 -31 37 -31z" />
    <glyph glyph-name="I" unicode="I" horiz-adv-x="389" 
d="M270 565v-450q0 -41 26 -61t51 -22q21 -2 21 -24q0 -16 -58 -16q-14 0 -52 4t-59 4q-20 0 -60 -4t-60 -4q-12 0 -18 0.5t-11 4t-5 11.5q0 16 27 24q46 14 46 83v450q0 78 -76 83q-21 2 -21 24q0 16 58 16q20 0 60 -4t60 -4t60 4t60 4q29 0 29 -16q0 -13 -37 -24
q-14 -4 -23 -12.5t-12.5 -21.5t-4.5 -23.5t-1 -25.5z" />
    <glyph glyph-name="J" unicode="J" horiz-adv-x="389" 
d="M122 -12v577q0 78 -76 83q-21 1 -21 21q0 11 8 15t37 4q28 0 71.5 -4t61.5 -4q20 0 60 4t60 4q29 0 29 -16t-27 -24q-51 -16 -51 -83v-346q0 -57 -1.5 -89t-9.5 -77.5t-23.5 -76t-45.5 -63.5t-73 -60q-53 -33 -88 -33q-26 0 -61 12t-35 32q0 25 11 71.5t26 46.5
q13 0 31 -21t38 -42.5t40 -21.5q39 0 39 91z" />
    <glyph glyph-name="K" unicode="K" horiz-adv-x="778" 
d="M114 115v450q0 78 -76 83q-21 2 -21 24q0 16 58 16q20 0 60 -4t60 -4t60 4t60 4q29 0 29 -16t-27 -24q-51 -16 -51 -83v-168q0 -32 8 -32q9 0 28 18l226 205q14 12 14 31q0 20 -43 29q-17 3 -22.5 7.5t-5.5 16.5q0 16 32 16q17 0 52 -4t53 -4t53 4t52 4q33 0 33 -16
q0 -7 -5 -11.5t-15.5 -8t-12.5 -4.5q-50 -25 -73 -44l-177 -147q-15 -13 -15 -22q0 -3 14 -24l260 -363q9 -13 33 -22.5t24 -17.5q0 -16 -32 -16q-13 0 -38 4t-37 4q-15 0 -45 -4t-45 -4q-14 0 -22 10l-198 285q-3 4 -7 11t-7.5 12l-7 10t-6.5 7.5t-6 2.5q-5 0 -55 -43
q-7 -6 -7 -19v-145q0 -86 76 -91q21 -2 21 -24q0 -16 -58 -16q-20 0 -60 4t-60 4t-60 -4t-60 -4q-29 0 -29 16t27 24q51 16 51 83z" />
    <glyph glyph-name="L" unicode="L" horiz-adv-x="611" 
d="M102 132v433q0 83 -76 83q-21 0 -21 22q0 18 18 18q24 0 72.5 -4t72.5 -4q26 0 71.5 4t63.5 4q29 0 29 -16t-27 -24q-51 -16 -51 -83v-433q0 -55 12 -70t51 -15q130 0 197 65q12 12 26 30.5t23.5 27t20.5 8.5q10 0 16.5 -11.5t6.5 -28.5q0 -60 -48.5 -103t-108.5 -43
q-34 0 -135.5 4t-135.5 4q-18 0 -55.5 -4t-55.5 -4q-11 0 -16.5 0.5t-12.5 1.5t-10 4.5t-3 9.5t3 10t7 6.5t13 7t15 8.5q38 25 38 92z" />
    <glyph glyph-name="M" unicode="M" horiz-adv-x="944" 
d="M103 149v377q0 34 -12 66.5t-37 44.5q-5 3 -12.5 6t-11.5 5t-8.5 4.5t-6.5 4t-4.5 4t-3 5.5t-0.5 6q0 16 13 16q15 0 45 -2t45 -2t45 2t45 2q26 0 34 -17l195 -406q28 -58 30 -58q4 0 25 39l219 419q8 15 12.5 19t10.5 4q15 0 45 -2t45 -2t45 2t45 2q9 0 8 -16
q0 -11 -9.5 -16.5t-38.5 -15.5q-30 -10 -41 -25t-11 -56v-355q0 -37 2 -58t10 -44.5t25.5 -38.5t45.5 -26q17 -7 23.5 -12.5t6.5 -16.5q0 -16 -40 -16q-20 2 -60 4t-60 4q-20 -2 -60 -4t-60 -4q-40 0 -40 16q0 11 6 16.5t22 12.5q18 8 22.5 24t4.5 60v320q0 28 -5 28
q-6 0 -26 -40l-199 -409q-14 -28 -29 -28q-11 0 -22 21l-195 424q-12 28 -20 28t-8 -23v-264q0 -53 18 -88t66 -53q27 -10 27 -29q0 -16 -27 -16q-18 0 -53 4t-52 4t-52.5 -4t-52.5 -4q-21 0 -21 16q0 7 4.5 13t8 8t14.5 8q38 20 51.5 44.5t13.5 67.5z" />
    <glyph glyph-name="N" unicode="N" horiz-adv-x="833" 
d="M649 43l-429 439q-40 40 -47 40q-8 0 -8 -27v-357q0 -81 65 -101q7 -2 24.5 -5t25.5 -7t8 -13q0 -20 -42 -20q-18 0 -53 4t-52 4t-52.5 -4t-52.5 -4q-21 0 -21 16q0 7 4.5 13t8 8t14.5 8q39 21 53.5 45.5t14.5 66.5v377q0 33 -13 66t-39 45q-5 3 -12.5 6t-11.5 5
t-8.5 4.5t-6.5 4t-4.5 4t-3 5.5t-0.5 6q0 11 3 13.5t10 2.5q15 0 45 -2t45 -2t45 2t45 2q26 0 38 -13l387 -401q27 -27 34 -27q9 0 9 28v227q0 30 -2 49t-8 40t-20 34t-36 18q-53 12 -53 29q0 16 37 16q18 0 53 -4t52 -4t52 4t53 4q21 0 21 -16q0 -7 -4.5 -13t-8 -8
t-14.5 -8q-38 -21 -52.5 -45.5t-14.5 -66.5v-482q0 -33 -3.5 -44.5t-12.5 -11.5q-12 0 -62 50z" />
    <glyph glyph-name="O" unicode="O" horiz-adv-x="833" 
d="M195 383q0 -53 16 -113t44.5 -115t76.5 -91t105 -36q87 0 144 79.5t57 189.5q0 53 -16 113t-44.5 115t-76.5 91t-105 36q-87 0 -144 -79.5t-57 -189.5zM33 322q0 104 57 191.5t148.5 135.5t195.5 48q157 0 261.5 -94.5t104.5 -250.5q0 -108 -59.5 -194t-152.5 -130.5
t-198 -44.5q-155 0 -256 94t-101 245z" />
    <glyph glyph-name="P" unicode="P" horiz-adv-x="667" 
d="M104 113v444q0 19 -3.5 33.5t-6.5 22.5t-13.5 14.5t-14 8.5t-19 6.5t-19.5 5.5q-21 6 -21 23q0 10 6.5 13.5t24.5 3.5q16 0 71 -4t81 -4q23 0 96 4t100 4q251 0 251 -184q0 -87 -65 -145.5t-153 -58.5q-33 0 -76 10t-43 32q0 8 9 10.5t41 2.5q62 0 93.5 39.5t31.5 100.5
q0 70 -43 107.5t-117 37.5q-26 0 -42.5 -13t-16.5 -31v-483q0 -65 106 -81q21 -3 21 -24q0 -16 -58 -16q-23 0 -68 4t-67 4t-67 -4t-68 -4q-29 0 -29 16q0 13 27 24q51 20 51 81z" />
    <glyph glyph-name="Q" unicode="Q" horiz-adv-x="833" 
d="M195 383q0 -53 16 -113t44.5 -115t76.5 -91t105 -36q87 0 144 79.5t57 189.5q0 53 -16 113t-44.5 115t-76.5 91t-105 36q-87 0 -144 -79.5t-57 -189.5zM475 -119l-147 83q-56 32 -106 32q-26 0 -44 -18t-24.5 -39.5t-13.5 -39.5t-14 -18q-10 0 -14.5 8t-4.5 31
q0 92 85 114q-74 43 -116.5 118t-42.5 170q0 104 57 191.5t148.5 135.5t195.5 48q157 0 261.5 -94.5t104.5 -250.5q0 -125 -76 -217t-193 -129q7 -3 59 -30t89.5 -41.5t63.5 -14.5q21 0 47 19t31 19q12 0 12 -24q0 -12 -25.5 -36.5t-73.5 -48t-97 -23.5q-63 0 -162 55z" />
    <glyph glyph-name="R" unicode="R" horiz-adv-x="722" 
d="M266 598v-197q0 -9 2 -15t17.5 -13t44.5 -7q67 0 97 33.5t30 108.5q0 58 -34 100t-95 42q-38 0 -50 -11.5t-12 -40.5zM114 115v450q0 41 -20 59.5t-56 23.5q-21 3 -21 24q0 16 28 16q6 0 43.5 -4t78.5 -4q28 0 89.5 4t82.5 4q45 0 80.5 -4t73 -16t62.5 -32t41 -55t16 -83
q0 -83 -75 -127q-7 -4 -20.5 -9t-21 -9.5t-7.5 -8.5q0 -13 63.5 -122.5t97.5 -147.5q15 -17 27 -17q6 0 16.5 1.5t14.5 1.5q16 0 16 -18q0 -15 -18 -25.5t-45.5 -15t-49 -6.5t-38.5 -2q-23 0 -46.5 15.5t-39.5 44.5l-117 214q-10 19 -17.5 29t-21.5 18.5t-31 8.5
q-19 0 -26 -4t-7 -14v-170q0 -57 20 -78.5t56 -24.5q21 -2 21 -24q0 -10 -11.5 -13t-46.5 -3q-20 0 -60 4t-60 4t-60 -4t-60 -4q-29 0 -29 16t27 24q51 16 51 83z" />
    <glyph glyph-name="S" unicode="S" 
d="M78 33l-35 139l-7 32q0 15 21 15q7 0 12.5 -5t8 -10t6.5 -14.5t5 -12.5q30 -64 83 -106.5t120 -42.5q54 0 90.5 31.5t36.5 84.5q0 33 -20.5 56.5t-53 38t-72 28t-79.5 31t-72.5 41.5t-53 65.5t-20.5 96.5q0 79 58 137.5t144 58.5q49 0 104 -19.5t65 -19.5q6 0 22 7t20 7
q16 0 16 -19q-1 -25 2.5 -62t7.5 -65.5t4 -31.5q0 -22 -20 -22q-9 0 -14.5 6t-8 12t-7.5 23q-17 55 -72 97t-112 42q-47 0 -80.5 -25.5t-33.5 -66.5q0 -34 20.5 -58.5t53 -38.5t72 -27t79.5 -30t72.5 -40t53 -64.5t20.5 -97.5q0 -37 -14.5 -75.5t-41.5 -71.5t-71.5 -53.5
t-97.5 -20.5q-29 0 -58 5t-66.5 14.5t-56.5 13.5q-27 5 -30 17z" />
    <glyph glyph-name="T" unicode="T" horiz-adv-x="722" 
d="M285 125v464q0 26 -17 35t-55 9q-79 0 -112.5 -18.5t-51.5 -88.5q-1 -9 -18 -9q-18 0 -18 12q0 1 3 34l10 102q2 14 7.5 18.5t22.5 4.5q51 0 152.5 -4t152.5 -4t153 4t152 4q19 0 24 -6t7 -31l10 -102q2 -14 2 -22q0 -10 -18 -10q-17 0 -18 9q-18 70 -51.5 88.5
t-112.5 18.5q-41 0 -56.5 -9.5t-15.5 -34.5v-464q0 -28 12 -46t25 -24.5t35.5 -13t28.5 -9.5q2 -1 11.5 -3t13 -6.5t3.5 -14.5q0 -16 -24 -16q-29 0 -89.5 4t-91.5 4t-91.5 -4t-89.5 -4q-24 0 -24 16q0 10 3.5 14.5t13 6.5t11.5 3q6 3 28.5 9.5t35.5 13t25 24.5t12 46z" />
    <glyph glyph-name="U" unicode="U" horiz-adv-x="833" 
d="M102 250v315q0 83 -76 83q-21 0 -21 21q0 11 11 15t47 4q20 0 60 -4t60 -4t60 4t60 4q29 0 29 -16q0 -3 -1.5 -6t-5 -5.5t-6 -4t-8.5 -4.5t-9 -4q-48 -23 -48 -83v-311q0 -89 55 -145t146 -56q52 0 92 16t64 41t39.5 59.5t21.5 68t6 69.5v255q0 82 -81 86q-32 2 -32 24
q0 16 37 16q15 0 45 -2t45 -2t45 2t45 2q14 0 18.5 -3.5t4.5 -12.5q0 -6 -3.5 -10t-7 -5.5t-12 -4t-12.5 -4.5q-22 -9 -29.5 -31t-7.5 -86v-213q0 -335 -341 -335q-290 0 -290 267z" />
    <glyph glyph-name="V" unicode="V" horiz-adv-x="778" 
d="M472 213l134 304q20 45 20 62q0 26 -13 38q-9 8 -34.5 16.5t-36.5 14.5q-22 12 -22 24q0 16 22 16q17 0 51 -4t51 -4t51 4t51 4q23 0 23 -16q0 -7 -5.5 -11.5t-16.5 -10.5t-19 -13q-21 -20 -55 -96q-4 -8 -6 -13l-223 -490q-11 -25 -20.5 -37.5t-14.5 -15t-12 -2.5
q-11 0 -18 9t-19 35l-251 554q-6 13 -13 23.5t-15.5 18t-13 11t-15.5 8.5l-10 6q-3 2 -8 4t-7 3.5t-5 3.5t-4 5t-1 8q0 11 5.5 13.5t18.5 2.5q23 0 68 -4t67 -4t67 4t68 4q25 0 25 -16t-32 -24q-20 -5 -26.5 -17t-6.5 -33q0 -14 19 -57l139 -311q19 -43 24 -43q7 0 19 26z
" />
    <glyph glyph-name="W" unicode="W" horiz-adv-x="1000" 
d="M278 30l-208 566q-6 16 -15 27.5t-13 14t-16 10.5q-3 2 -8 4.5t-7.5 4t-5 5.5t-2.5 10q0 16 26 16q20 0 58.5 -4t58.5 -4t59 4t58 4q10 0 14.5 -0.5t8 -4t3.5 -11.5q0 -3 -0.5 -5t-1.5 -4t-2.5 -3.5t-3.5 -2.5t-3.5 -2t-4.5 -2t-5 -1.5t-5 -1.5t-5 -2q-32 -10 -32 -46
q0 -4 2.5 -11.5t8.5 -22.5t11 -29l114 -327q6 -18 9 -18q4 0 12 21l100 221l-55 160q-2 6 -4.5 11.5t-5 9.5t-6 8t-5.5 6.5t-6 5.5t-5.5 4t-6 3.5t-5.5 3.5q-3 2 -8 4.5t-7.5 4t-5 5.5t-2.5 10q0 16 26 16q19 0 58 -4t59 -4t59 4t58 4q10 0 14.5 -0.5t8 -4t3.5 -11.5
q0 -3 -0.5 -5t-1.5 -4t-2.5 -3.5t-3.5 -2.5t-3.5 -2t-4.5 -2t-5 -1.5t-5 -1.5t-5 -2q-31 -10 -31 -41q0 -11 22 -68l108 -301q7 -19 11 -19q7 0 20 36l92 260q15 42 15 76q0 20 -13.5 29.5t-35 14.5t-28.5 9q-28 17 -28 28q0 16 22 16q17 0 51 -4t51 -4t51 4t51 4
q23 0 23 -16q0 -7 -5.5 -11.5t-16.5 -10.5t-19 -13q-5 -4 -8.5 -8t-7 -9t-6 -8t-6 -9.5t-5 -10t-5.5 -13t-5.5 -14t-6.5 -18t-8 -20.5l-188 -485q-15 -37 -23 -48t-16 -11q-10 0 -17.5 8t-16.5 34l-114 317q-10 27 -14 27q-3 0 -18 -31l-139 -301q-16 -34 -23.5 -44
t-17.5 -10t-16 8.5t-17 38.5z" />
    <glyph glyph-name="X" unicode="X" horiz-adv-x="778" 
d="M318 246l-81 -99q-30 -37 -30 -60q0 -39 51 -50q39 -8 39 -29q0 -16 -38 -16q-17 0 -52 4t-53 4t-53 -4t-52 -4q-37 0 -37 16q0 8 4 13.5t7.5 7.5t15.5 8q22 11 58.5 40.5t51.5 47.5l162 180q5 6 5 10q0 2 -8 14l-160 227q-49 68 -92 90q-3 2 -8.5 4.5t-8 4t-6 3.5
t-5.5 3.5l-4 3t-2.5 3.5t-0.5 4q0 16 36 16q21 0 63.5 -4t65.5 -4t65.5 4t63.5 4q36 0 36 -16t-27 -24t-27 -26q0 -15 18 -41l76 -112q27 -40 31 -40q5 0 24 21l80 91q38 42 38 68q0 8 -3 14t-6.5 9.5t-11.5 6.5t-11.5 4t-14 3t-12.5 2q-22 5 -22 24q0 16 30 16q17 0 52 -4
t53 -4t53 4t52 4q30 0 30 -16t-22 -24q-43 -16 -59 -26.5t-48 -46.5l-151 -166q-20 -22 -20 -23q0 -3 9 -15l177 -248q53 -71 92 -86q36 -14 36 -29q0 -16 -50 -16q-20 0 -60 4t-60 4t-60 -4t-60 -4q-50 0 -50 15q0 11 6.5 17t17 9t12.5 4q17 10 17 32q0 21 -7 30l-112 157
q-10 16 -15 16q-6 0 -28 -26z" />
    <glyph glyph-name="Y" unicode="Y" horiz-adv-x="722" 
d="M449 401l86 146q15 25 15 49q0 19 -20 30.5t-58 21.5q-20 5 -20 24q0 16 23 16q17 0 52 -4t53 -4t53 4t52 4q23 0 23 -16q0 -4 -1 -7t-2 -4.5t-4 -3.5l-4.5 -3t-7 -3t-7.5 -3q-23 -9 -38.5 -27t-44.5 -67l-129 -213q-24 -39 -24 -54v-157q0 -84 67 -93q35 -5 41 -13
q3 -4 3 -11t-4 -12t-14 -6.5t-17 -2t-21 -0.5q-22 0 -68 4t-70 4q-16 0 -58 -4t-66 -4q-14 0 -21 0.5t-17 2t-14 6.5t-4 12q0 19 39 23q3 1 5 1q67 9 67 93v125q0 13 -8 26l-152 282q-43 79 -85 85q-42 7 -42 24q0 16 35 16q22 0 67 -4t68 -4t68 4t67 4q35 0 35 -16
q0 -7 -7 -11t-19 -7t-17 -6q-22 -12 -22 -22q0 -20 19 -55l91 -169q20 -37 29 -37q7 0 28 36z" />
    <glyph glyph-name="Z" unicode="Z" horiz-adv-x="611" 
d="M323 633h-113q-78 0 -112 -60q-7 -12 -10.5 -30.5t-7.5 -27t-16 -8.5q-20 0 -20 29q0 24 5.5 71t6.5 60q1 21 28 21q35 0 104.5 -4t104.5 -4q45 0 134 4t133 4q14 0 14 -12q0 -10 -17 -40l-305 -530q-15 -25 -15 -44q0 -15 42 -15q194 0 275 122q7 11 14 11q21 0 21 -29
q0 -63 -43 -111t-112 -48q-60 0 -141.5 4t-97.5 4q-32 0 -85.5 -4t-62.5 -4q-26 0 -26 11q0 6 13 27l321 552q15 24 15 31q0 20 -47 20z" />
    <glyph glyph-name="bracketleft" unicode="[" horiz-adv-x="333" 
d="M271 -133v-40h-209v853h209v-40h-49q-27 0 -37 -6.5t-10 -21.5v-717q0 -15 10 -21.5t37 -6.5h49z" />
    <glyph glyph-name="backslash" unicode="\" horiz-adv-x="278" 
d="M80 697l198 -714h-80l-198 714h80z" />
    <glyph glyph-name="bracketright" unicode="]" horiz-adv-x="333" 
d="M62 640v40h209v-853h-209v40h49q27 0 37 6.5t10 21.5v717q0 15 -10 21.5t-37 6.5h-49z" />
    <glyph glyph-name="asciicircum" unicode="^" horiz-adv-x="600" 
d="M184 303h-109l175 365h100l175 -365h-110l-115 254z" />
    <glyph glyph-name="underscore" unicode="_" horiz-adv-x="500" 
d="M0 -75h500v-50h-500v50z" />
    <glyph glyph-name="grave" unicode="`" horiz-adv-x="278" 
d="M214 502h-49l-144 85q-25 15 -36 27t-11 30q0 21 14.5 33t37.5 12q13 0 27.5 -9t22 -16.5t22 -25.5t16.5 -20z" />
    <glyph glyph-name="a" unicode="a" horiz-adv-x="500" 
d="M287 95v124q-45 1 -84.5 -29t-39.5 -74q0 -63 56 -63q22 0 45 11t23 31zM422 275v-177q0 -15 1 -22.5t5 -12.5t13 -5q6 0 19 2.5t17 2.5q18 0 18 -12q0 -17 -36 -38.5t-85 -21.5q-24 0 -48.5 16t-31.5 38q-69 -62 -158 -62q-46 0 -77 30t-31 76q0 42 15.5 71t47.5 46
t58.5 25t73 17.5t65.5 14.5v56q0 35 -24 60.5t-58 25.5q-19 0 -25 -9t-6 -38t-8 -41q-8 -11 -39.5 -19.5t-49.5 -8.5q-36 0 -36 32q0 31 16.5 54.5t40 36.5t56 20.5t58 10t52.5 2.5q84 0 120.5 -42.5t36.5 -127.5z" />
    <glyph glyph-name="b" unicode="b" 
d="M208 304v-198q0 -36 36 -59.5t74 -23.5q93 0 93 154q0 75 -33.5 127t-95.5 52q-28 0 -51 -13t-23 -39zM73 90v535q0 11 -4.5 17t-9.5 7.5t-14 2.5q-20 3 -24.5 6.5t-4.5 14.5q0 20 38 24q41 4 114 38q18 9 30 9q10 0 10 -61v-303h2q51 65 127 65q95 0 144.5 -53.5
t49.5 -143.5q0 -114 -70 -189.5t-180 -75.5q-61 0 -147 53q-3 -3 -15.5 -17.5t-23.5 -25t-19 -10.5q-13 0 -13 15q0 13 5 45t5 47z" />
    <glyph glyph-name="c" unicode="c" horiz-adv-x="500" 
d="M157 276q0 -79 45.5 -149t120.5 -70q36 0 65 15.5t45 31t23 15.5q5 0 10 -4t5 -9q0 -39 -73.5 -81t-153.5 -42q-95 0 -155 63.5t-60 159.5q0 100 79 169.5t180 69.5q54 0 104 -24t50 -55q0 -12 -6 -22.5t-12 -15.5t-20 -14q-41 -30 -56 -30q-12 0 -16 5.5t-7.5 23
t-7.5 28.5q-9 26 -31 42.5t-50 16.5q-79 0 -79 -124z" />
    <glyph glyph-name="d" unicode="d" 
d="M339 172v110q0 123 -93 123q-31 0 -53.5 -14.5t-33.5 -38t-16 -47t-5 -49.5q0 -41 12.5 -81.5t43 -72.5t73.5 -32t57.5 27t14.5 75zM339 424v201q0 27 -28 27q-29 0 -29 21q0 20 38 24q44 4 114 38q18 9 30 9q10 0 10 -61v-587q0 -33 25 -38q39 -6 39 -21q0 -17 -33 -23
q-2 0 -19 -2t-39.5 -5.5t-45.5 -8.5q-13 -3 -28.5 -7t-23 -6t-9.5 -2q-10 0 -10 10q0 11 2 21l10 51h-2q-58 -82 -138 -82q-89 0 -136.5 59.5t-47.5 140.5q0 118 67.5 190t155.5 72q45 0 98 -21z" />
    <glyph glyph-name="e" unicode="e" horiz-adv-x="500" 
d="M182 274h148q6 0 6 25q0 45 -23.5 75.5t-64.5 30.5q-42 0 -65.5 -35.5t-23.5 -76.5q0 -19 23 -19zM416 234h-253v-38q0 -57 49.5 -100t108.5 -43q35 0 68.5 14t53 28t20.5 14q4 0 7 -3.5t3 -7.5q0 -31 -66 -73t-150 -42q-107 0 -168.5 57.5t-61.5 163.5q0 101 63.5 171
t162.5 70q50 0 99.5 -21t84 -63t34.5 -94q0 -18 -11 -25.5t-44 -7.5z" />
    <glyph glyph-name="f" unicode="f" horiz-adv-x="333" 
d="M87 70v301q0 11 -28 11q-31 0 -38.5 4.5t-7.5 22.5q0 13 7 19.5t15 7.5t24 1q12 0 16.5 0.5t8.5 4t5 10.5q17 127 94.5 209.5t180.5 82.5q13 0 28.5 -14t15.5 -31q0 -20 -25 -67.5t-40 -47.5q-9 0 -16 14t-11.5 30t-16 30t-28.5 14q-49 0 -49 -169v-60q0 -6 14 -6h43
q22 0 35 10.5t18 10.5q11 0 11 -15q0 -9 -2 -20.5t-13.5 -26t-29.5 -14.5h-52q-24 0 -24 -12v-275q0 -49 39 -63q4 -2 13.5 -4.5t13.5 -4t8 -5.5t4 -10q0 -9 -5 -12.5t-20 -3.5q-19 0 -56 4t-55 4t-55 -4t-56 -4q-22 0 -22 16q0 19 28 24q28 6 28 38z" />
    <glyph glyph-name="g" unicode="g" horiz-adv-x="500" 
d="M288 295q0 48 -19.5 83t-63.5 35q-32 0 -48 -36.5t-16 -72.5q0 -56 16.5 -95t54.5 -39q76 0 76 125zM40 52q0 26 10 45.5t22 27.5t22 16t10 13q0 3 -14 12.5t-31.5 21t-31.5 37t-14 58.5q0 72 57 117t130 45q61 0 114 -18t55 -18q41 0 56 31q2 4 6 12.5t6 12.5t5.5 7.5
t8.5 3.5q20 0 20 -37q0 -46 -21 -63q-5 -4 -15.5 -10t-14.5 -11.5t-4 -15.5q0 -59 -12 -98q-10 -34 -31.5 -56t-53.5 -31.5t-59.5 -12.5t-66.5 -3q-83 0 -83 -36q0 -16 11.5 -25t30.5 -9q18 0 53 2t41 2q112 0 166.5 -22.5t54.5 -84.5q0 -49 -25.5 -83t-68 -50.5t-84 -23.5
t-87.5 -7q-102 0 -148 16t-46 50q0 45 28 69t68 24q-1 0 -21.5 11t-31.5 29t-11 52zM284 -60l-159 11q-11 -22 -11 -39q0 -42 35 -60.5t82 -18.5q20 0 39 2.5t41.5 9t36 20.5t13.5 34q0 22 -13.5 29.5t-63.5 11.5z" />
    <glyph glyph-name="h" unicode="h" horiz-adv-x="611" 
d="M216 684v-314h6q57 75 144 75q80 0 122.5 -47t42.5 -160v-169q0 -31 28 -37q28 -5 28 -24q0 -16 -22 -16q-17 0 -51 4t-51 4t-51 -4t-51 -4q-22 0 -22 16q0 8 4.5 12.5t8.5 6.5t15 5q29 8 29 37v174q0 66 -21.5 98t-69.5 32q-39 0 -64 -26t-25 -60v-194q0 -47 39 -61
q4 -2 13.5 -4.5t13.5 -4t8 -5.5t4 -10q0 -8 -5 -12t-20 -4q-19 0 -56 4t-55 4t-55 -4t-56 -4q-22 0 -22 16q0 8 4.5 12.5t8.5 6.5t15 5q28 8 28 37v560q0 18 -28 24q-8 2 -11 2.5t-8.5 3t-7.5 6t-2 9.5q0 21 38 23q49 7 114 38q18 9 30 9q10 0 10 -60z" />
    <glyph glyph-name="i" unicode="i" horiz-adv-x="278" 
d="M72 69v259q0 24 -28 26q-19 1 -24 6t-5 15q0 20 38 24q47 5 114 37q18 9 30 9q10 0 10 -60v-292q0 -47 39 -61q4 -2 13.5 -4.5t13.5 -4t8 -5.5t4 -10q0 -16 -25 -16q-18 0 -55 4t-56 4t-55.5 -4t-55.5 -4q-22 0 -22 16q0 17 28 24q28 8 28 37zM137 697q20 0 49 -34
t29 -56q0 -21 -28.5 -53t-49.5 -32t-49.5 32t-28.5 53q0 22 29 56t49 34z" />
    <glyph glyph-name="j" unicode="j" horiz-adv-x="278" 
d="M207 385v-293q0 -66 -21.5 -130t-72.5 -112.5t-120 -48.5q-23 0 -37.5 5t-20.5 16t-7.5 20.5t-1.5 26.5q0 18 9 41.5t25 23.5q15 0 39.5 -35.5t46.5 -35.5q26 0 26 102v363q0 24 -28 26q-29 3 -29 21q0 20 38 24q47 5 114 37q18 9 30 9q10 0 10 -60zM139 697q20 0 49 -34
t29 -56q0 -21 -28.5 -53t-49.5 -32t-49.5 32t-28.5 53q0 22 29 56t49 34z" />
    <glyph glyph-name="k" unicode="k" horiz-adv-x="611" 
d="M76 69v559q0 18 -31 25q-2 0 -6.5 1.5t-6.5 2t-5.5 1.5t-5 2.5t-3.5 3t-2.5 4.5t-0.5 6q0 21 39 23q51 7 119 38q24 9 28 9q10 0 10 -49v-449l147 102q31 20 31 36q0 12 -25 12q-12 0 -20 7.5t-8 17.5q0 15 24 15q15 0 46.5 -2t47.5 -2t47 2t46 2q26 0 26 -10
q0 -26 -31 -30q-44 -7 -104 -44l-68 -42l138 -225q16 -26 50 -55q10 -8 25.5 -9.5t24.5 -3t9 -9.5q0 -9 -6 -12.5t-24 -3.5q-13 0 -38 2t-37 2t-37 -2t-38 -2q-18 0 -25 3.5t-15 14.5l-121 183q-12 18 -15 18q-1 0 -5 -2.5t-5 -2.5l-40 -22v-91q0 -46 44 -61q4 -2 11.5 -4
t12 -3t9 -3.5t6.5 -5.5t2 -8q0 -16 -26 -16q-20 0 -58 4t-58 4q-19 0 -57.5 -4t-57.5 -4q-23 0 -23 16q0 11 7 15.5t22 8.5q31 7 31 37z" />
    <glyph glyph-name="l" unicode="l" horiz-adv-x="278" 
d="M72 69v558q0 24 -28 26q-29 2 -29 21q0 21 38 23q49 7 114 38q18 9 30 9q10 0 10 -60v-591q0 -47 39 -61q4 -2 13.5 -4.5t13.5 -4t8 -5.5t4 -10q0 -16 -25 -16q-18 0 -55 4t-56 4t-55.5 -4t-55.5 -4q-22 0 -22 16q0 8 4.5 12.5t8.5 6.5t15 5q28 8 28 37z" />
    <glyph glyph-name="m" unicode="m" horiz-adv-x="889" 
d="M80 67v273q0 20 -28 24q-29 4 -29 20q0 17 38 25q37 8 59.5 13.5t35 9.5t19.5 6q28 7 30 7q8 0 8 -23v-53q37 32 50 42.5t41.5 22t61.5 11.5q38 0 67.5 -22.5t44 -45.5t16.5 -23t15.5 14t31 31.5t45.5 31.5t55 14q82 0 125 -49t43 -139v-190q0 -29 29 -35q28 -5 28 -24
q0 -16 -23 -16q-17 0 -51 4t-51 4t-51 -4t-51 -4q-22 0 -22 16q0 19 28 24q29 4 29 35v190q0 56 -24.5 86t-51.5 30q-86 0 -86 -116v-190q0 -29 30 -35q28 -5 28 -24q0 -16 -23 -16q-17 0 -51 4t-51 4t-51 -4t-51 -4q-22 0 -22 16q0 19 28 24q28 6 28 35v190q0 47 -21 81.5
t-66 34.5q-29 0 -52 -25.5t-23 -55.5v-209q0 -39 39 -51q3 -1 8.5 -2.5t8 -2.5t7 -2.5t6.5 -3t4.5 -3.5t3.5 -4.5t1 -5.5q0 -16 -25 -16q-18 0 -55 4t-56 4t-56 -4t-55 -4q-22 0 -22 16q0 19 28 24q28 6 28 35z" />
    <glyph glyph-name="n" unicode="n" horiz-adv-x="611" 
d="M77 67v273q0 20 -28 24q-29 4 -29 19q0 14 38 22q73 16 114 31q24 9 30 9q8 0 8 -24v-63h2q64 87 151 87q76 0 123 -50t47 -140v-188q0 -29 30 -35q28 -5 28 -24q0 -16 -23 -16q-17 0 -51 4t-51 4t-51 -4t-51 -4q-22 0 -22 16q0 19 28 24q28 4 28 35v198q0 46 -22 77
t-71 31t-71 -31t-22 -77v-174q0 -47 39 -59q3 -1 8.5 -2.5t8 -2.5t7 -2.5t6.5 -3t4.5 -3.5t3.5 -4.5t1 -5.5q0 -16 -25 -16q-19 0 -56 4t-55 4t-55 -4t-56 -4q-22 0 -22 16q0 19 28 24q28 6 28 35z" />
    <glyph glyph-name="o" unicode="o" 
d="M279 445q96 0 173.5 -59t77.5 -157q0 -100 -70 -173t-174 -73q-106 0 -183 64t-77 167q0 102 71.5 166.5t181.5 64.5zM267 405q-106 0 -106 -173q0 -86 38.5 -147.5t89.5 -61.5q106 0 106 163q0 95 -36 157t-92 62z" />
    <glyph glyph-name="p" unicode="p" 
d="M407 178q0 66 -28.5 124.5t-81.5 58.5q-24 0 -41.5 -8t-27.5 -24.5t-16.5 -32t-9 -41t-3 -39.5t-0.5 -38q0 -63 25.5 -109t83.5 -46q39 0 62.5 27t30 58.5t6.5 69.5zM206 9v-107q0 -20 7.5 -33.5t14.5 -18t20 -9.5q4 -1 11 -3.5t11 -4t8.5 -4t6.5 -5.5t2 -8
q0 -15 -25 -15q-18 0 -55 4t-56 4t-56 -4t-55 -4q-22 0 -22 15q0 11 6.5 15.5t21.5 9.5q25 7 25 36v438q0 21 -10 34.5t-22 13.5q-29 0 -29 21q0 17 38 21q46 5 79 14q10 3 28.5 10t31.5 11.5t16 4.5t3 -10v-86h2q11 38 55.5 67t94.5 29q77 0 123 -62.5t46 -142.5
q0 -113 -63 -185t-161 -72q-50 0 -97 26z" />
    <glyph glyph-name="q" unicode="q" 
d="M344 147v128q0 58 -26 94t-82 36q-32 0 -52.5 -18.5t-28 -53t-9.5 -56t-2 -53.5q0 -54 36 -104.5t89 -50.5q75 0 75 78zM479 367v-490q0 -29 25 -36q10 -3 15 -5t9 -7t4 -13q0 -15 -22 -15q-18 0 -55 4t-56 4t-56 -4t-55 -4q-14 0 -19.5 3t-5.5 12q0 7 4.5 11t18 8.5
l16.5 5.5q13 6 20 10t14.5 17.5t7.5 33.5v160h-2q-21 -36 -57 -57.5t-78 -21.5q-90 0 -136.5 58t-46.5 151q0 105 69.5 179t172.5 74q58 0 152 -52q1 2 6.5 11t7 11.5t6 9t7.5 8.5t8 6t10 5t11 1q13 0 13 -13q0 -4 -4 -26t-4 -39z" />
    <glyph glyph-name="r" unicode="r" horiz-adv-x="389" 
d="M73 77v251q0 24 -28 26q-29 2 -29 21q0 20 38 24q47 5 114 37q18 9 30 9q8 0 8 -22v-67q6 6 27 31t40 41.5t34 16.5q28 0 59 -27t31 -48q0 -20 -20.5 -53.5t-39.5 -33.5q-15 0 -41 25t-37 25q-24 0 -37.5 -18t-13.5 -50v-164q0 -24 6.5 -39t13.5 -20.5t19 -9.5
q4 -2 13.5 -4.5t13.5 -4t8 -5.5t4 -10q0 -8 -5 -12t-20 -4q-19 0 -56 4t-55 4t-55.5 -4t-55.5 -4q-22 0 -22 16q0 17 28 24q28 8 28 45z" />
    <glyph glyph-name="s" unicode="s" horiz-adv-x="389" 
d="M73 -4h-18q-16 0 -16 30q0 26 -1.5 62t-1.5 48q0 5 5 9t11 4q9 0 15.5 -3t11 -11t7 -13.5t6.5 -18.5t6 -19q22 -61 101 -61q27 0 48 16t21 42q0 25 -24 41t-58.5 27.5t-69 26t-58.5 46t-24 78.5q0 78 51.5 111.5t132.5 33.5q28 0 65 -10.5t37 -30.5q0 -8 2.5 -37.5
t2.5 -36.5q0 -22 -16 -22q-4 0 -8.5 6.5t-12 20.5t-14.5 24q-32 46 -94 46q-59 0 -59 -43q0 -21 24 -35.5t58.5 -26t69 -28t58.5 -50t24 -82.5q0 -75 -50.5 -116t-127.5 -41q-40 0 -76 8q-16 5 -28 5z" />
    <glyph glyph-name="t" unicode="t" horiz-adv-x="333" 
d="M77 105v246q0 22 -7 29.5t-27 7.5q-25 0 -25 12q0 6 4 11.5t12.5 11t9.5 6.5q97 86 137 142q12 17 21 17q10 0 10 -27v-106q0 -10 9 -10h52q19 0 31 8.5t19 8.5q10 0 10 -17q0 -20 -11 -37.5t-34 -17.5h-52q-24 0 -24 -17v-273q0 -43 42 -43q17 0 48 9.5t37 9.5
q10 0 10 -10q0 -31 -55.5 -57t-108.5 -26q-55 0 -81.5 32.5t-26.5 89.5z" />
    <glyph glyph-name="u" unicode="u" horiz-adv-x="611" 
d="M386 155v195q0 28 -11 36q-5 4 -17 6t-22 2.5t-18 4t-8 11.5q0 14 8 19.5t26 5.5q59 0 101 5t46 5q30 0 30 -36v-331q0 -26 13 -36q5 -4 17 -6t22 -2.5t18 -4t8 -11.5q0 -25 -34 -25q-59 0 -101 -5t-46 -5q-28 0 -32 36l-3 38h-2q-15 -33 -65.5 -53.5t-102.5 -20.5
q-146 0 -146 166v201q0 28 -11 36q-5 4 -14 6t-15 2.5t-11 4t-5 11.5q0 15 6 20t18 5q56 0 93.5 5t43.5 5q30 0 30 -36v-262q0 -42 23 -66t65 -24q96 0 96 98z" />
    <glyph glyph-name="v" unicode="v" 
d="M519 352l-203 -335q-7 -12 -17 -23t-16 -11q-11 0 -27 30l-181 345q-10 17 -22.5 28.5t-20.5 15.5t-13.5 8t-5.5 9q0 10 8 13.5t35 3.5q25 0 61 -4t51 -4q16 0 50 4t50 4q34 0 34 -17t-34 -23q-32 -6 -32 -34q0 -25 13 -51l76 -139q11 -19 18 -19q8 0 20 21l74 124
q13 21 13 55q0 15 -12.5 27.5t-27.5 15.5q-14 3 -20 4.5t-12.5 6.5t-6.5 12q0 9 6.5 13t26.5 4q12 0 36 -4t36 -4q11 0 35 4t36 4q14 0 18.5 -3.5t4.5 -13.5q0 -6 -2 -10t-8.5 -8t-7.5 -5q-11 -9 -33 -44z" />
    <glyph glyph-name="w" unicode="w" horiz-adv-x="778" 
d="M279 158l75 129q5 7 5 11q0 20 -13.5 47.5t-30.5 43.5q-6 5 -15 10t-13.5 9t-4.5 11q0 17 37 17q16 0 47.5 -4t46.5 -4t47 4t47 4q19 0 24.5 -4t5.5 -13q0 -18 -27 -23q-9 -2 -16 -10t-7 -15q0 -17 6 -31l73 -174q3 -7 9 -7q5 0 8 8l74 146q7 12 7 39q0 32 -15 39
q-5 2 -19.5 7t-21 9.5t-6.5 11.5q0 17 26 17q12 0 35 -4t34 -4t33.5 4t34.5 4q20 0 20 -17q0 -6 -8 -13t-21.5 -20.5t-23.5 -30.5l-201 -364q-5 -8 -14 -8t-14 10l-113 237q-4 8 -10 8q-5 0 -11 -9l-147 -238q-4 -8 -11 -8q-5 0 -12 10l-163 359q-15 32 -22 37q-1 1 -7 4.5
t-9 5.5t-7.5 5.5t-6.5 7t-2 7.5q0 16 26 17q18 1 54 -3.5t52 -4.5q17 0 52.5 4t53.5 4q6 0 11 -5t5 -10q0 -20 -26 -25q-21 -4 -21 -32q0 -12 4 -24l71 -180q4 -7 7 -7q5 0 8 5z" />
    <glyph glyph-name="x" unicode="x" 
d="M459 351l-110 -103l104 -143q12 -16 23 -28.5t20 -20t15.5 -12t13.5 -8.5t9 -5t7 -2.5t6.5 -2.5t4.5 -2.5t3.5 -3.5t1.5 -5t1 -7q0 -16 -48 -16q-18 0 -54.5 4t-55.5 4q-18 0 -54.5 -4t-55.5 -4q-24 0 -24 16q0 7 7 11.5t18 9.5t16 10q8 8 8 16q0 25 -10 36l-58 72
l-79 -72q-11 -11 -11 -20q0 -6 4 -11.5t12 -12.5t12 -11q5 -6 12.5 -10t10.5 -7t3 -11q0 -16 -30 -16q-12 0 -36.5 4t-36.5 4q-13 0 -37 -4t-36 -4q-18 0 -24 3.5t-6 12.5q0 8 6 12.5t17.5 9t17.5 9.5q23 17 57 48l110 104q3 3 3 6t-3 7l-131 155q-19 22 -47 36
q-1 0 -6.5 2.5t-7 3.5t-5.5 4t-5 6.5t-1 8.5q0 16 27 16q22 0 66 -4t65 -4q23 0 64.5 4t57.5 4q23 0 23 -16q0 -9 -28 -18.5t-28 -26.5q0 -6 9 -17l61 -74l67 62q21 21 21 33q0 14 -24 23t-24 18q0 16 29 16q12 0 35.5 -4t34.5 -4q12 0 35.5 4t35.5 4q20 0 20 -16
q0 -6 -4.5 -10.5t-8.5 -6.5t-14 -5.5t-14 -5.5q-24 -10 -57 -41z" />
    <glyph glyph-name="y" unicode="y" 
d="M358 174l45 87q28 52 28 80q0 24 -38 50q-4 3 -15 7.5t-17 9.5t-6 12q0 9 6.5 12.5t26.5 3.5q12 0 35.5 -4t34.5 -4q12 0 35.5 4t34.5 4q16 0 21.5 -3t5.5 -13q0 -4 -4 -8t-12.5 -9.5t-14.5 -11.5q-20 -20 -48 -78l-228 -463q-17 -34 -27 -41.5t-42 -7.5q-33 0 -33 17
q0 10 53 73.5t63 86.5q4 8 4 19q0 16 -15 42l-183 323q-14 23 -21 29q-2 2 -11 6.5t-14.5 10t-5.5 12.5q0 16 26 16q19 0 57.5 -4t57.5 -4t58 4t58 4q15 0 15 -16q0 -23 -45 -29q-10 -2 -10 -18q0 -18 8 -33l89 -164q9 -17 15 -17t13 15z" />
    <glyph glyph-name="z" unicode="z" horiz-adv-x="444" 
d="M404 400l-225 -254q-10 -12 -10 -23q0 -12 25 -12h88q56 0 76 4t35 18q17 17 25 17q15 0 15 -12q0 -24 -17.5 -55.5t-31.5 -48.5q-29 -42 -69 -42q-22 0 -64.5 4t-63.5 4t-64 -4t-65 -4q-40 0 -40 9q0 15 11 28l237 280q9 11 9 12q0 4 -22 4h-120q-22 0 -33.5 -12
t-22.5 -37q-7 -19 -22 -19q-18 0 -18 22q0 12 12 64t18 69q8 24 29 24q26 0 78 -4t78 -4q27 0 75.5 4t67.5 4q21 0 21 -13q0 -11 -12 -23z" />
    <glyph glyph-name="braceleft" unicode="{" horiz-adv-x="333" 
d="M115 -41v181q0 52 -14.5 77t-56.5 39q42 14 56.5 40t14.5 77v181q0 88 38 115.5t136 27.5v-24q-37 -11 -49 -39.5t-12 -86.5v-159q0 -59 -15 -88t-60 -42v-3q45 -13 60 -42t15 -88v-159q0 -58 12 -86.5t49 -39.5v-24q-98 0 -136 28t-38 115z" />
    <glyph glyph-name="bar" unicode="|" horiz-adv-x="222" 
d="M63 750h96v-1000h-96v1000z" />
    <glyph glyph-name="braceright" unicode="}" horiz-adv-x="333" 
d="M218 554v-181q0 -52 14.5 -77t56.5 -39q-42 -14 -56.5 -40t-14.5 -77v-181q0 -88 -38 -115.5t-136 -27.5v24q37 11 49 39.5t12 86.5v159q0 59 15 88t60 42v3q-45 13 -60 42t-15 88v159q0 58 -12 86.5t-49 39.5v24q98 0 136 -28t38 -115z" />
    <glyph glyph-name="asciitilde" unicode="~" horiz-adv-x="600" 
d="M495 304l36 -90q-20 -27 -33 -42t-38 -29.5t-54 -14.5q-38 0 -104 34t-113 34q-51 0 -84 -72l-36 90q45 86 125 86q39 0 111 -32q7 -3 21.5 -9.5t23 -10t20 -8t20.5 -6.5t17 -2q19 0 36.5 12t27 24.5t24.5 35.5z" />
    <glyph glyph-name="uni00A0" unicode="&#xa0;" horiz-adv-x="278" 
 />
    <glyph glyph-name="exclamdown" unicode="&#xa1;" horiz-adv-x="333" 
d="M73 -151l66 380q4 23 7.5 29.5t12.5 6.5q8 0 11.5 -4.5t6.5 -21.5l59 -349q3 -20 3 -26q0 -26 -25 -41q-38 -22 -103 -22q-40 0 -40 19q0 16 2 29zM254 415q0 -18 -37 -55t-56 -37q-18 0 -54 37t-36 55q0 19 36 55t54 36q19 0 56 -36t37 -55z" />
    <glyph glyph-name="cent" unicode="&#xa2;" 
d="M238 134l84 257q-29 29 -59 29q-79 0 -79 -127q0 -93 54 -159zM149 -135l49 148q-65 22 -102.5 78.5t-37.5 131.5q0 100 78 171t179 71q9 0 29 -2l37 109h46l-40 -122q36 -11 59 -29t23 -38q0 -12 -6 -22.5t-12 -15.5t-20 -14q-41 -30 -56 -30q-12 0 -16 6.5t-8 29.5h-2
l-76 -237q35 -26 77 -26q36 0 64.5 15.5t45 31t23.5 15.5q6 0 10.5 -4t4.5 -9q0 -39 -73.5 -81t-153.5 -42q-17 0 -30 3l-45 -138h-47z" />
    <glyph glyph-name="sterling" unicode="&#xa3;" 
d="M102 107q-20 0 -32 -11t-12 -27q0 -40 45 -40q19 0 41.5 17t22.5 35q0 10 -23 18t-42 8zM265 374h77q22 0 29 -5t7 -22t-8 -22t-25 -5h-65q2 -134 -25 -203q70 -14 93 -14q137 0 148 120q2 21 22 21q22 0 22 -34q0 -93 -51 -159.5t-140 -66.5q-9 0 -17 1t-17 3.5t-15 4.5
t-15 7l-13.5 7.5t-14.5 9.5t-13 9t-14 10.5t-13 10.5q-34 -34 -58 -48.5t-63 -14.5q-34 0 -58.5 25t-24.5 59q0 43 21.5 63.5t55.5 20.5q24 0 54.5 -7.5t36.5 -8.5q5 84 -35 184h-71q-29 0 -29 27t29 27h55q-14 52 -14 104q0 96 54.5 151t149.5 55q60 0 114.5 -27t54.5 -59
q0 -24 -23.5 -60t-43.5 -36q-12 0 -12 22q0 58 -15.5 86.5t-61.5 28.5q-53 0 -79 -30t-26 -83q0 -29 18 -88t19 -64z" />
    <glyph glyph-name="currency" unicode="&#xa4;" 
d="M416 555l58 57l64 -64l-55 -56q43 -48 43 -142t-43 -142l55 -56l-64 -64l-58 57q-48 -43 -138 -43t-138 43l-58 -57l-64 64l55 56q-43 48 -43 142t43 142l-55 56l64 64l58 -57q48 43 138 43t138 -43zM418 350q0 60 -40 102.5t-100 42.5t-100 -42.5t-40 -102.5t40 -102.5
t100 -42.5t100 42.5t40 102.5z" />
    <glyph glyph-name="yen" unicode="&#xa5;" 
d="M517 233v-54h-156v-51q0 -79 63 -91q22 -4 31.5 -9t9.5 -15q0 -12 -10 -16.5t-42 -4.5q-21 0 -64.5 4t-66.5 4q-14 0 -53.5 -4t-62.5 -4q-52 0 -52 21q0 11 7.5 15t33.5 9q63 12 63 91v51h-160v54h160v39l-21 39h-159v54h131l-102 188q-18 32 -41.5 58t-38.5 25
q-39 -3 -39 24q0 10 6 13t27 3t63 -4t64 -4q21 0 63 4t63 4t27.5 -3.5t6.5 -12.5q0 -7 -6.5 -11t-18 -7t-16.5 -6q-21 -11 -21 -22q0 -17 19 -53l85 -166q19 -36 27 -36q6 0 27 35l81 143q14 24 14 48q0 35 -73 51q-19 5 -19 24q0 16 22 16q16 0 48.5 -4t49.5 -4t50 4t49 4
q22 0 22 -16q0 -10 -5 -14.5t-20 -9.5q-6 -2 -11.5 -5.5t-10 -6.5t-9.5 -9t-8.5 -10t-9 -13t-8.5 -13.5t-10 -16.5t-11 -18l-109 -179h141v-54h-163l-13 -21v-57h156z" />
    <glyph glyph-name="brokenbar" unicode="&#xa6;" horiz-adv-x="222" 
d="M63 675h96v-350h-96v350zM63 175h96v-350h-96v350z" />
    <glyph glyph-name="section" unicode="&#xa7;" horiz-adv-x="500" 
d="M148 298l130 -113q12 -11 38 -11q20 0 35.5 17.5t15.5 37.5q0 27 -9 36l-126 119q-13 12 -45 12q-24 0 -39 -17t-15 -42t15 -39zM159 428v4q-28 24 -41 37.5t-25.5 38.5t-12.5 54q0 135 172 135q38 0 72.5 -8t63.5 -32.5t29 -61.5q0 -25 -18.5 -42.5t-44.5 -17.5
q-24 0 -43.5 15t-19.5 37q0 19 16.5 34t16.5 22q0 14 -23.5 20t-43.5 6q-36 0 -60 -16t-24 -50q0 -29 30.5 -59t74.5 -58.5t87.5 -60t74 -73.5t30.5 -89q0 -106 -126 -115q4 -6 26 -24.5t35.5 -43t13.5 -60.5q0 -50 -29.5 -82.5t-70.5 -45t-90 -12.5q-39 0 -73.5 9t-62 34.5
t-27.5 64.5q0 25 19.5 42.5t43.5 17.5q23 0 42.5 -16.5t19.5 -41.5q0 -17 -7.5 -28.5t-15.5 -17t-8 -9.5q0 -27 62 -27q37 0 63.5 19t26.5 53q0 27 -29 57.5t-70.5 59t-83 58.5t-70.5 67t-29 74q0 56 31 94t86 38h12z" />
    <glyph glyph-name="dieresis" unicode="&#xa8;" horiz-adv-x="278" 
d="M107 576q0 -10 -25 -40t-34 -30q-11 0 -35 29t-24 41q0 11 24.5 41t34.5 30q9 0 34 -30.5t25 -40.5zM294 576q0 -11 -24 -40.5t-35 -29.5t-35 29t-24 41t24.5 41.5t34.5 29.5t34.5 -30t24.5 -41z" />
    <glyph glyph-name="copyright" unicode="&#xa9;" horiz-adv-x="800" 
d="M400 -17q-151 0 -250 102t-99 254t99 255t250 103t250 -103t99 -255t-99 -254t-250 -102zM400 44q115 0 189 85t74 210q0 126 -74 211.5t-189 85.5t-189 -86t-74 -211t74 -210t189 -85zM547 265h22l-14 -77q-1 -6 -5.5 -10t-8 -5.5t-16.5 -6.5q-65 -19 -106 -19
q-104 0 -161.5 53t-57.5 152q0 35 11 68t35.5 63.5t71 49t109.5 18.5q45 0 104 -19q22 -7 22 -21v-72h-23q-30 86 -101 86q-101 0 -103 -168q-2 -184 101 -184q77 0 120 92z" />
    <glyph glyph-name="ordfeminine" unicode="&#xaa;" horiz-adv-x="300" 
d="M167 487v74q-30 1 -55.5 -17t-25.5 -44q0 -38 36 -38q15 0 30 6.5t15 18.5zM254 595v-106q0 -24 13 -24q4 0 12 1.5t11 1.5q12 0 12 -7q0 -10 -23.5 -23t-55.5 -13q-16 0 -32 9t-20 23q-45 -37 -103 -37q-30 0 -50 18t-20 45q0 21 8 37.5t20 25.5t31.5 16t35 10.5t38.5 8
t36 7.5v33q0 21 -15.5 36.5t-37.5 15.5q-13 0 -16.5 -5.5t-3.5 -22.5q0 -18 -5 -25t-26 -12t-32 -5q-24 0 -24 20q0 23 15 39t40 23t46.5 9.5t43.5 2.5q55 0 78.5 -25.5t23.5 -76.5z" />
    <glyph glyph-name="guillemotleft" unicode="&#xab;" horiz-adv-x="500" 
d="M182 213q3 -4 19 -28.5t29 -45.5t25 -44.5t12 -33.5q0 -9 -10 -9q-5 0 -13.5 7.5t-32 30t-50.5 44.5q-20 17 -46.5 35t-38 27t-11.5 17t11.5 17t38 27t46.5 35q18 15 34.5 29.5t25.5 23.5t16.5 16t12 10t7.5 3q10 0 10 -9q0 -20 -34 -77t-51 -75zM349 213q3 -4 19 -28.5
t29 -45.5t25 -44.5t12 -33.5q0 -9 -10 -9q-5 0 -13.5 7.5t-32 30t-50.5 44.5q-20 17 -46.5 35t-38 27t-11.5 17t11.5 17t38 27t46.5 35q18 15 34.5 29.5t25.5 23.5t16.5 16t12 10t7.5 3q10 0 10 -9q0 -20 -34 -77t-51 -75z" />
    <glyph glyph-name="logicalnot" unicode="&#xac;" horiz-adv-x="600" 
d="M418 96v166h-332v96h428v-262h-96z" />
    <glyph glyph-name="uni00AD" unicode="&#xad;" horiz-adv-x="333" 
d="M80 249l163 59l14 4q14 5 19 5q11 0 11 -18q0 -1 1.5 -35t1.5 -51q0 -16 -8.5 -23t-29.5 -14l-163 -58q-24 -9 -33 -9t-11 17q-3 24 -3 86q0 16 8.5 23t29.5 14z" />
    <glyph glyph-name="registered" unicode="&#xae;" horiz-adv-x="800" 
d="M400 -17q-151 0 -250 102t-99 254t99 255t250 103t250 -103t99 -255t-99 -254t-250 -102zM400 44q115 0 189 85t74 210q0 126 -74 211.5t-189 85.5t-189 -86t-74 -211t74 -210t189 -85zM231 518v21h206q49 0 80 -25.5t31 -74.5q0 -34 -20.5 -62.5t-56.5 -39.5l57 -84
q53 -73 60 -82v-13h-94q-13 0 -29 25.5t-38 72t-35 68.5h-24v-107q0 -14 0.5 -19t5 -11t13 -7.5t24.5 -2.5v-19h-180v19q31 1 37.5 8t6.5 32v262q0 25 -6.5 31.5t-37.5 7.5zM368 513v-163h26q52 0 52 85q0 78 -48 78h-30z" />
    <glyph glyph-name="macron" unicode="&#xaf;" horiz-adv-x="278" 
d="M300 539h-330v72h330v-72z" />
    <glyph glyph-name="degree" unicode="&#xb0;" horiz-adv-x="400" 
d="M200 629q-38 0 -61 -24.5t-23 -63.5t23 -63.5t61 -24.5t61 24.5t23 63.5t-23 63.5t-61 24.5zM200 684q60 0 101.5 -41.5t41.5 -101.5t-41.5 -101.5t-101.5 -41.5t-101.5 41.5t-41.5 101.5t41.5 101.5t101.5 41.5z" />
    <glyph glyph-name="plusminus" unicode="&#xb1;" horiz-adv-x="600" 
d="M251 323v105h96v-105h167v-96h-167v-104h-96v104h-165v96h165zM86 0v96h428v-96h-428z" />
    <glyph glyph-name="twosuperior" unicode="&#xb2;" horiz-adv-x="333" 
d="M125 345h97q21 0 36.5 12.5t25 25.5t17.5 13q11 0 11 -12q0 -4 -2 -8l-37 -88q-7 -19 -38 -19q-17 0 -50 2.5t-50 2.5t-50 -2.5t-49 -2.5q-17 0 -17 10q0 6 10 18q5 6 37 44t49 60t41.5 57.5t36.5 65.5t12 54t-17 40.5t-44 16.5q-29 0 -57.5 -19.5t-29.5 -19.5
q-12 0 -12 9q0 17 46.5 48t88.5 31q51 0 83.5 -23t32.5 -64q0 -16 -6.5 -34t-20.5 -38t-26 -36t-34 -37.5t-32.5 -32t-33.5 -31t-26 -23.5q-4 -5 -4 -11q0 -9 12 -9z" />
    <glyph glyph-name="threesuperior" unicode="&#xb3;" horiz-adv-x="333" 
d="M197 584q0 26 -14.5 42t-42.5 16q-25 0 -45 -15.5t-24 -15.5q-11 0 -11 7q0 17 41 41.5t85 24.5q38 0 66.5 -19.5t28.5 -52.5q0 -46 -66 -85q-4 -4 -4 -6q0 -3 6 -4q45 -3 68.5 -28t23.5 -69q0 -66 -49.5 -111t-121.5 -45q-39 0 -77 17.5t-38 32.5q0 11 11 11
q6 0 15.5 -7.5t27.5 -15.5t44 -8q45 0 71 29.5t26 71.5q0 31 -16.5 52.5t-48.5 21.5q-4 0 -13.5 -1.5t-14.5 -1.5q-11 0 -11 12q0 3 1.5 5.5t4.5 4.5t5.5 3.5t7 3t5.5 2.5q59 31 59 87z" />
    <glyph glyph-name="acute" unicode="&#xb4;" horiz-adv-x="278" 
d="M113 502h-49l100 116l16 20q16 19 23.5 26t22.5 16t29 9q22 0 35.5 -11t13.5 -28q0 -22 -11.5 -35.5t-35.5 -27.5z" />
    <glyph glyph-name="mu" unicode="&#xb5;" horiz-adv-x="611" 
d="M202 409v-262q0 -42 23 -66t65 -24q96 0 96 98v195q0 28 -11 36q-5 4 -17 6t-22 2.5t-18 4t-8 11.5q0 14 8 19.5t26 5.5q59 0 101 5t46 5q30 0 30 -36v-331q0 -26 13 -36q5 -4 17 -6t22 -2.5t18 -4t8 -11.5q0 -25 -34 -25q-59 0 -101 -5t-46 -5q-28 0 -32 36l-3 38h-2
q-15 -33 -65.5 -53.5t-102.5 -20.5q-7 0 -11 1v-166q0 -17 -14 -17q-7 0 -35.5 4t-45.5 4q-16 0 -48 -4t-48 -4q-25 0 -25 14q0 5 2 8t6.5 5.5t8.5 4t11 4t11 3.5q13 5 20 9.5t14.5 18t7.5 33.5v449q0 28 -11 36q-5 4 -14 6t-15 2.5t-11 4t-5 11.5q0 15 6 20t18 5
q56 0 93.5 5t43.5 5q30 0 30 -36z" />
    <glyph glyph-name="paragraph" unicode="&#xb6;" horiz-adv-x="620" 
d="M202 -149v418q-74 0 -117.5 58.5t-43.5 154.5q0 105 48.5 151.5t160.5 46.5h310v-26q-41 0 -58 -13t-17 -48v-742h-112v799h-59v-799h-112z" />
    <glyph glyph-name="periodcentered" unicode="&#xb7;" horiz-adv-x="278" 
d="M223 214q0 -35 -24.5 -60t-59.5 -25t-59.5 25t-24.5 60t24.5 60t59.5 25t59.5 -25t24.5 -60z" />
    <glyph glyph-name="cedilla" unicode="&#xb8;" horiz-adv-x="278" 
d="M74 -99l43 99h42l-28 -64q15 4 31 4q35 0 62.5 -22t27.5 -56q0 -41 -42.5 -60.5t-89.5 -19.5q-54 0 -94 18l16 37q30 -13 61 -13q56 0 56 38q0 16 -10 25t-21 10.5t-29.5 2t-24.5 1.5z" />
    <glyph glyph-name="onesuperior" unicode="&#xb9;" horiz-adv-x="333" 
d="M128 330v269q0 17 -22 17q-11 0 -20 -2t-11 -2q-15 0 -15 11q0 9 24 15q6 2 21 5.5t23 5.5t19.5 6t21 9t17.5 11q12 9 17 9q9 0 9 -12v-333q0 -21 8.5 -30.5t27.5 -15.5q2 -1 7 -2t8 -2t6.5 -2t5.5 -3t2 -5q0 -10 -23 -10q-14 0 -42 2.5t-42 2.5t-42 -2.5t-42 -2.5
q-23 0 -23 10t30 14q14 2 24.5 13t10.5 24z" />
    <glyph glyph-name="ordmasculine" unicode="&#xba;" horiz-adv-x="334" 
d="M184 697q62 0 113 -35.5t51 -93.5q0 -60 -45.5 -104t-113.5 -44q-69 0 -119 38.5t-50 100.5q0 61 46.5 99.5t117.5 38.5zM176 672q-39 0 -53.5 -27t-14.5 -75q0 -52 24.5 -88.5t57.5 -36.5q10 0 20 3t22.5 11.5t20 29t7.5 49.5q0 60 -24 97t-60 37z" />
    <glyph glyph-name="guillemotright" unicode="&#xbb;" horiz-adv-x="500" 
d="M318 213q-17 18 -51 75t-34 77q0 9 10 9q5 0 13.5 -7.5t32 -30t50.5 -44.5q20 -17 46.5 -35t38 -27t11.5 -17t-11.5 -17t-38 -27t-46.5 -35q-18 -15 -34.5 -30t-25 -23.5t-16.5 -15.5t-12.5 -10t-7.5 -3q-10 0 -10 9q0 10 12 33.5t25 44.5t29 45.5t19 28.5zM151 213
q-17 18 -51 75t-34 77q0 9 10 9q5 0 13.5 -7.5t32 -30t50.5 -44.5q20 -17 46.5 -35t38 -27t11.5 -17t-11.5 -17t-38 -27t-46.5 -35q-18 -15 -34.5 -30t-25 -23.5t-16.5 -15.5t-12.5 -10t-7.5 -3q-10 0 -10 9q0 10 12 33.5t25 44.5t29 45.5t19 28.5z" />
    <glyph glyph-name="onequarter" unicode="&#xbc;" horiz-adv-x="834" 
d="M639 179v131h-1q-6 -7 -36 -38t-53.5 -57.5t-27.5 -35.5h118zM639 107h-173q-12 0 -12 11q0 19 31 60t85 95.5t76 76t54 50.5l3 3q5 4 14 4q6 -2 6 -38v-193q26 0 41 9l5 5t6 5t7 2q8 0 8 -12q0 -16 -9.5 -47t-23.5 -31h-34v-91q0 -13 -7 -15q-46 -14 -72 -14q-5 0 -5 10
v110zM194 -16l441 700h60l-441 -700h-60zM148 330v269q0 17 -22 17q-11 0 -20 -2t-11 -2q-15 0 -15 11q0 9 24 15q6 2 21 5.5t23 5.5t19.5 6t21 9t17.5 11q12 9 17 9q9 0 9 -12v-333q0 -21 8.5 -30.5t27.5 -15.5q2 -1 7 -2t8 -2t6.5 -2t5.5 -3t2 -5q0 -10 -23 -10
q-14 0 -42 2.5t-42 2.5t-42 -2.5t-42 -2.5q-23 0 -23 10t30 14q14 2 24.5 13t10.5 24z" />
    <glyph glyph-name="onehalf" unicode="&#xbd;" horiz-adv-x="834" 
d="M167 -16l441 700h60l-441 -700h-60zM143 330v269q0 17 -22 17q-11 0 -20 -2t-11 -2q-15 0 -15 11q0 9 24 15q6 2 21 5.5t23 5.5t19.5 6t21 9t17.5 11q12 9 17 9q9 0 9 -12v-333q0 -21 8.5 -30.5t27.5 -15.5q2 -1 7 -2t8 -2t6.5 -2t5.5 -3t2 -5q0 -10 -23 -10
q-14 0 -42 2.5t-42 2.5t-42 -2.5t-42 -2.5q-23 0 -23 10t30 14q14 2 24.5 13t10.5 24zM574 71h96q21 0 36.5 12.5t25.5 25.5t18 13q11 0 11 -12q0 -4 -2 -8l-37 -88q-8 -19 -39 -19q-17 0 -50 2.5t-49 2.5t-49.5 -2.5t-49.5 -2.5q-17 0 -17 10q0 6 10 18q8 9 37 44t48 59.5
t42.5 59t36 64.5t12.5 54t-17 40.5t-45 16.5q-21 0 -40 -9.5t-31 -19.5t-16 -10q-11 0 -11 9q0 17 46 48t89 31q51 0 83.5 -23t32.5 -64q0 -16 -6.5 -34t-20.5 -38t-26 -36t-34 -37.5t-32.5 -32t-33.5 -31t-26 -23.5q-4 -5 -4 -11q0 -9 12 -9z" />
    <glyph glyph-name="threequarters" unicode="&#xbe;" horiz-adv-x="834" 
d="M194 -16l441 700h60l-441 -700h-60zM210 584q0 26 -14.5 42t-42.5 16q-25 0 -45 -15.5t-24 -15.5q-11 0 -11 7q0 17 41 41.5t85 24.5q38 0 66.5 -19.5t28.5 -52.5q0 -46 -66 -85q-4 -4 -4 -6q0 -3 6 -4q45 -3 68.5 -28t23.5 -69q0 -66 -49.5 -111t-121.5 -45
q-39 0 -77 17.5t-38 32.5q0 11 11 11q6 0 15.5 -7.5t27.5 -15.5t44 -8q45 0 71 29.5t26 71.5q0 31 -16.5 52.5t-48.5 21.5q-4 0 -13.5 -1.5t-14.5 -1.5q-11 0 -11 12q0 3 1.5 5.5t4.5 4.5t5.5 3.5t7 3t5.5 2.5q59 31 59 87zM647 179v131h-1q-6 -7 -36 -38t-53.5 -57.5
t-27.5 -35.5h118zM647 107h-173q-12 0 -12 11q0 19 31 60t85 95.5t76 76t54 50.5l3 3q5 4 14 4q6 -2 6 -38v-193q26 0 41 9l5 5t6 5t7 2q8 0 8 -12q0 -16 -9.5 -47t-23.5 -31h-34v-91q0 -13 -7 -15q-46 -14 -72 -14q-5 0 -5 10v110z" />
    <glyph glyph-name="questiondown" unicode="&#xbf;" horiz-adv-x="389" 
d="M222 254q18 0 26 -25.5t8 -47.5q0 -51 -31.5 -131.5t-31.5 -117.5q0 -30 18 -49t47 -19q20 0 45 19.5t31 19.5q10 0 10 -15q0 -22 -46.5 -54.5t-103.5 -32.5q-148 0 -148 127q0 29 27 67.5t69 88t62 83.5q6 10 6.5 32.5t2 38.5t9.5 16zM234 323q-18 0 -54 37t-36 55
q0 19 36 55t54 36q19 0 56 -36t37 -55q0 -18 -37 -55t-56 -37z" />
    <glyph glyph-name="Agrave" unicode="&#xc0;" horiz-adv-x="778" 
d="M80 79l285 583q17 35 27 35q6 0 16 -21l250 -544q3 -6 10 -23t11.5 -25t12 -20t16.5 -19t20 -10q36 -11 40 -18q2 -4 2 -9q0 -11 -6 -13.5t-20 -2.5q-24 0 -71 4t-69 4t-69 -4t-71 -4q-20 0 -20 13q0 20 26 22q19 4 30.5 19t11.5 35q0 19 -17 67t-28 59q-17 17 -81 17
h-153q-34 0 -56.5 -51.5t-22.5 -92.5q0 -11 14.5 -23t31.5 -17q3 -1 12 -3.5t13 -3.5t12 -3.5t11.5 -4.5t8 -5t6.5 -6t2 -6q0 -11 -6 -13.5t-21 -2.5q-17 0 -51 4t-51 4t-51 -4t-51 -4q-9 0 -13.5 0.5t-8.5 4t-4 11.5q0 7 6 12.5t17.5 11t15.5 8.5q21 15 33 39zM316 456
l-66 -137q-11 -22 -11 -28q0 -12 42 -12h108q44 0 44 6q0 10 -15 40l-68 137q-11 20 -18 20q-6 0 -16 -26zM464 711h-49l-144 85q-25 15 -36 27t-11 30q0 21 14.5 33t37.5 12q13 0 27.5 -9t22 -16.5t22 -25.5t16.5 -20z" />
    <glyph glyph-name="Aacute" unicode="&#xc1;" horiz-adv-x="778" 
d="M80 79l285 583q17 35 27 35q6 0 16 -21l250 -544q3 -6 10 -23t11.5 -25t12 -20t16.5 -19t20 -10q36 -11 40 -18q2 -4 2 -9q0 -11 -6 -13.5t-20 -2.5q-24 0 -71 4t-69 4t-69 -4t-71 -4q-20 0 -20 13q0 20 26 22q19 4 30.5 19t11.5 35q0 19 -17 67t-28 59q-17 17 -81 17
h-153q-34 0 -56.5 -51.5t-22.5 -92.5q0 -11 14.5 -23t31.5 -17q3 -1 12 -3.5t13 -3.5t12 -3.5t11.5 -4.5t8 -5t6.5 -6t2 -6q0 -11 -6 -13.5t-21 -2.5q-17 0 -51 4t-51 4t-51 -4t-51 -4q-9 0 -13.5 0.5t-8.5 4t-4 11.5q0 7 6 12.5t17.5 11t15.5 8.5q21 15 33 39zM316 456
l-66 -137q-11 -22 -11 -28q0 -12 42 -12h108q44 0 44 6q0 10 -15 40l-68 137q-11 20 -18 20q-6 0 -16 -26zM363 711h-49l100 116l16 19q16 20 23.5 27t22.5 16t29 9q22 0 35.5 -11t13.5 -28q0 -22 -11.5 -35.5t-35.5 -27.5z" />
    <glyph glyph-name="Acircumflex" unicode="&#xc2;" horiz-adv-x="778" 
d="M80 79l285 583q17 35 27 35q6 0 16 -21l250 -544q3 -6 10 -23t11.5 -25t12 -20t16.5 -19t20 -10q36 -11 40 -18q2 -4 2 -9q0 -11 -6 -13.5t-20 -2.5q-24 0 -71 4t-69 4t-69 -4t-71 -4q-20 0 -20 13q0 20 26 22q19 4 30.5 19t11.5 35q0 19 -17 67t-28 59q-17 17 -81 17
h-153q-34 0 -56.5 -51.5t-22.5 -92.5q0 -11 14.5 -23t31.5 -17q3 -1 12 -3.5t13 -3.5t12 -3.5t11.5 -4.5t8 -5t6.5 -6t2 -6q0 -11 -6 -13.5t-21 -2.5q-17 0 -51 4t-51 4t-51 -4t-51 -4q-9 0 -13.5 0.5t-8.5 4t-4 11.5q0 7 6 12.5t17.5 11t15.5 8.5q21 15 33 39zM316 456
l-66 -137q-11 -22 -11 -28q0 -12 42 -12h108q44 0 44 6q0 10 -15 40l-68 137q-11 20 -18 20q-6 0 -16 -26zM338 887h93l122 -176h-56l-113 99l-112 -99h-56z" />
    <glyph glyph-name="Atilde" unicode="&#xc3;" horiz-adv-x="778" 
d="M80 79l285 583q17 35 27 35q6 0 16 -21l250 -544q3 -6 10 -23t11.5 -25t12 -20t16.5 -19t20 -10q36 -11 40 -18q2 -4 2 -9q0 -11 -6 -13.5t-20 -2.5q-24 0 -71 4t-69 4t-69 -4t-71 -4q-20 0 -20 13q0 20 26 22q19 4 30.5 19t11.5 35q0 19 -17 67t-28 59q-17 17 -81 17
h-153q-34 0 -56.5 -51.5t-22.5 -92.5q0 -11 14.5 -23t31.5 -17q3 -1 12 -3.5t13 -3.5t12 -3.5t11.5 -4.5t8 -5t6.5 -6t2 -6q0 -11 -6 -13.5t-21 -2.5q-17 0 -51 4t-51 4t-51 -4t-51 -4q-9 0 -13.5 0.5t-8.5 4t-4 11.5q0 7 6 12.5t17.5 11t15.5 8.5q21 15 33 39zM316 456
l-66 -137q-11 -22 -11 -28q0 -12 42 -12h108q44 0 44 6q0 10 -15 40l-68 137q-11 20 -18 20q-6 0 -16 -26zM524 857h43q-10 -50 -39.5 -88t-76.5 -38q-32 0 -92 26q-53 23 -72 23q-32 0 -43 -48h-42q20 125 119 125q31 0 83 -24q50 -25 64 -25q23 0 34.5 12t21.5 37z" />
    <glyph glyph-name="Adieresis" unicode="&#xc4;" horiz-adv-x="778" 
d="M80 79l285 583q17 35 27 35q6 0 16 -21l250 -544q3 -6 10 -23t11.5 -25t12 -20t16.5 -19t20 -10q36 -11 40 -18q2 -4 2 -9q0 -11 -6 -13.5t-20 -2.5q-24 0 -71 4t-69 4t-69 -4t-71 -4q-20 0 -20 13q0 20 26 22q19 4 30.5 19t11.5 35q0 19 -17 67t-28 59q-17 17 -81 17
h-153q-34 0 -56.5 -51.5t-22.5 -92.5q0 -11 14.5 -23t31.5 -17q3 -1 12 -3.5t13 -3.5t12 -3.5t11.5 -4.5t8 -5t6.5 -6t2 -6q0 -11 -6 -13.5t-21 -2.5q-17 0 -51 4t-51 4t-51 -4t-51 -4q-9 0 -13.5 0.5t-8.5 4t-4 11.5q0 7 6 12.5t17.5 11t15.5 8.5q21 15 33 39zM316 456
l-66 -137q-11 -22 -11 -28q0 -12 42 -12h108q44 0 44 6q0 10 -15 40l-68 137q-11 20 -18 20q-6 0 -16 -26zM357 785q0 -10 -25 -40t-34 -30q-11 0 -35 29t-24 41q0 11 24.5 41t34.5 30q9 0 34 -30.5t25 -40.5zM544 785q0 -11 -24 -40.5t-35 -29.5t-35 29t-24 41t24.5 41.5
t34.5 29.5t34.5 -30t24.5 -41z" />
    <glyph glyph-name="Aring" unicode="&#xc5;" horiz-adv-x="778" 
d="M80 79l285 583q17 35 27 35q6 0 16 -21l250 -544q3 -6 10 -23t11.5 -25t12 -20t16.5 -19t20 -10q36 -11 40 -18q2 -4 2 -9q0 -11 -6 -13.5t-20 -2.5q-24 0 -71 4t-69 4t-69 -4t-71 -4q-20 0 -20 13q0 20 26 22q19 4 30.5 19t11.5 35q0 19 -17 67t-28 59q-17 17 -81 17
h-153q-34 0 -56.5 -51.5t-22.5 -92.5q0 -11 14.5 -23t31.5 -17q3 -1 12 -3.5t13 -3.5t12 -3.5t11.5 -4.5t8 -5t6.5 -6t2 -6q0 -11 -6 -13.5t-21 -2.5q-17 0 -51 4t-51 4t-51 -4t-51 -4q-9 0 -13.5 0.5t-8.5 4t-4 11.5q0 7 6 12.5t17.5 11t15.5 8.5q21 15 33 39zM316 456
l-66 -137q-11 -22 -11 -28q0 -12 42 -12h108q44 0 44 6q0 10 -15 40l-68 137q-11 20 -18 20q-6 0 -16 -26zM389 875q-23 0 -40.5 -17.5t-17.5 -40.5t17.5 -40.5t40.5 -17.5t40.5 17.5t17.5 40.5t-17.5 40.5t-40.5 17.5zM389 924q44 0 75.5 -31.5t31.5 -75.5t-31.5 -75.5
t-75.5 -31.5t-75.5 31.5t-31.5 75.5t31.5 75.5t75.5 31.5z" />
    <glyph glyph-name="AE" unicode="&#xc6;" horiz-adv-x="1000" 
d="M104 118l326 493q9 15 9 22q0 8 -11 15q-8 5 -21.5 9.5t-21 8.5t-7.5 10q0 12 36 12q40 0 121 -4t122 -4t122 4t121 4q13 0 20 -0.5t13.5 -5.5t6.5 -14q0 -11 -2 -33t-2 -33t2 -33t2 -33q0 -19 -18 -19q-17 0 -20 27q-2 22 -9 37.5t-20.5 25t-25.5 15t-34 8t-35.5 3
t-40.5 0.5h-53q-18 0 -25 -9t-7 -39v-175q0 -11 10.5 -16t43.5 -5q45 0 66.5 10t51.5 48q4 5 8 14t7.5 14t8.5 5q16 0 16 -28q0 -15 -2 -45t-2 -45t2 -45t2 -45q0 -28 -19 -28q-7 0 -10.5 7.5t-8 21.5t-9.5 22q-17 28 -40.5 37t-70.5 9q-31 0 -42.5 -7t-11.5 -31v-163
q0 -62 12 -77.5t51 -15.5q130 0 197 65q14 13 26.5 31t19.5 27t14 9q16 0 16 -19q0 -30 -15 -79q-11 -33 -41.5 -61t-63.5 -28q-34 0 -101 4t-100 4t-100 -4t-101 -4q-11 0 -16.5 0.5t-12.5 1.5t-10 4.5t-3 9.5t3 10t7 6.5t13 7t15 8.5q38 23 38 97v79q0 19 -5 22
q-7 4 -27 4h-208q-14 0 -18 -4q-8 -8 -24 -32l-42 -64q-27 -42 -27 -54q0 -32 47 -48q3 -1 14 -4.5t18 -6t15.5 -6.5t13 -7.5t4.5 -7.5q0 -11 -6 -13.5t-21 -2.5q-17 0 -51 4t-51 4q-18 0 -52.5 -4t-49.5 -4q-9 0 -13.5 0.5t-8.5 4t-4 11.5q0 7 7.5 12t18.5 10t15 9
q9 8 18 19t14 18t14.5 22t12.5 20zM271 297h229v294q0 23 -12 23q-8 0 -22 -20z" />
    <glyph glyph-name="Ccedilla" unicode="&#xc7;" horiz-adv-x="722" 
d="M665 664l15 -136q1 -8 4 -26.5t3 -25.5q0 -24 -15 -24q-9 0 -27 31q-47 82 -108 125.5t-127 43.5q-220 0 -220 -290q0 -119 67 -209t166 -90q119 0 215 96q1 1 9 9.5t11.5 11.5t10 7t12.5 4q11 0 11 -14q0 -13 -20 -41.5t-55 -62t-95.5 -60t-128.5 -29.5l-21 -48
q15 4 31 4q35 0 62.5 -22t27.5 -56q0 -41 -42.5 -60.5t-89.5 -19.5q-54 0 -94 18l16 37q30 -13 61 -13q56 0 56 38q0 16 -10 25t-21 10.5t-29.5 2t-24.5 1.5l37 84q-61 3 -118.5 27t-103.5 65t-74 103.5t-28 136.5q0 100 31.5 176t84 119t114 64t129.5 21q48 0 97 -13.5
t82 -26.5t42 -13q12 0 21 15.5t23 15.5q11 0 13 -11z" />
    <glyph glyph-name="Egrave" unicode="&#xc8;" horiz-adv-x="611" 
d="M107 137v377q0 123 -47 129q-52 7 -52 29q0 11 9 13.5t28 2.5q43 -6 231 -8q38 0 115 4t116 4q15 0 22 -0.5t14 -5.5t7 -14q0 -11 -2 -33t-2 -33t2 -33t2 -33q0 -19 -18 -19q-17 0 -20 27q-5 49 -36.5 69t-116.5 20h-65q-21 0 -28 -9.5t-7 -38.5v-175q0 -21 57 -21
q96 0 118 60q8 20 12.5 25.5t12.5 5.5q15 0 15 -28q0 -15 -2 -45t-2 -45t2 -45t2 -45q0 -9 -0.5 -14t-5 -9.5t-13.5 -4.5q-7 0 -10.5 7.5t-8 21.5t-8.5 21q-18 29 -41.5 38t-70.5 9q-34 0 -45.5 -9t-11.5 -29v-171q0 -54 12.5 -69.5t53.5 -15.5q130 0 197 65q14 13 26.5 31
t19.5 27t14 9q16 0 16 -19q0 -36 -15 -79q-11 -33 -41.5 -61t-63.5 -28q-34 0 -101 4t-100 4t-100 -4t-101 -4q-14 0 -20.5 0.5t-13.5 1.5t-9.5 4.5t-2.5 9.5q0 4 2 7.5t4 6t6.5 5.5t7.5 4.5t9.5 4.5t8.5 4q24 12 31.5 32t7.5 65zM381 711h-49l-144 85q-25 15 -36 27t-11 30
q0 21 14.5 33t37.5 12q13 0 27.5 -9t22 -16.5t22 -25.5t16.5 -20z" />
    <glyph glyph-name="Eacute" unicode="&#xc9;" horiz-adv-x="611" 
d="M107 137v377q0 123 -47 129q-52 7 -52 29q0 11 9 13.5t28 2.5q43 -6 231 -8q38 0 115 4t116 4q15 0 22 -0.5t14 -5.5t7 -14q0 -11 -2 -33t-2 -33t2 -33t2 -33q0 -19 -18 -19q-17 0 -20 27q-5 49 -36.5 69t-116.5 20h-65q-21 0 -28 -9.5t-7 -38.5v-175q0 -21 57 -21
q96 0 118 60q8 20 12.5 25.5t12.5 5.5q15 0 15 -28q0 -15 -2 -45t-2 -45t2 -45t2 -45q0 -9 -0.5 -14t-5 -9.5t-13.5 -4.5q-7 0 -10.5 7.5t-8 21.5t-8.5 21q-18 29 -41.5 38t-70.5 9q-34 0 -45.5 -9t-11.5 -29v-171q0 -54 12.5 -69.5t53.5 -15.5q130 0 197 65q14 13 26.5 31
t19.5 27t14 9q16 0 16 -19q0 -36 -15 -79q-11 -33 -41.5 -61t-63.5 -28q-34 0 -101 4t-100 4t-100 -4t-101 -4q-14 0 -20.5 0.5t-13.5 1.5t-9.5 4.5t-2.5 9.5q0 4 2 7.5t4 6t6.5 5.5t7.5 4.5t9.5 4.5t8.5 4q24 12 31.5 32t7.5 65zM280 711h-49l100 116l16 19q16 20 23.5 27
t22.5 16t29 9q22 0 35.5 -11t13.5 -28q0 -22 -11.5 -35.5t-35.5 -27.5z" />
    <glyph glyph-name="Ecircumflex" unicode="&#xca;" horiz-adv-x="611" 
d="M107 137v377q0 123 -47 129q-52 7 -52 29q0 11 9 13.5t28 2.5q43 -6 231 -8q38 0 115 4t116 4q15 0 22 -0.5t14 -5.5t7 -14q0 -11 -2 -33t-2 -33t2 -33t2 -33q0 -19 -18 -19q-17 0 -20 27q-5 49 -36.5 69t-116.5 20h-65q-21 0 -28 -9.5t-7 -38.5v-175q0 -21 57 -21
q96 0 118 60q8 20 12.5 25.5t12.5 5.5q15 0 15 -28q0 -15 -2 -45t-2 -45t2 -45t2 -45q0 -9 -0.5 -14t-5 -9.5t-13.5 -4.5q-7 0 -10.5 7.5t-8 21.5t-8.5 21q-18 29 -41.5 38t-70.5 9q-34 0 -45.5 -9t-11.5 -29v-171q0 -54 12.5 -69.5t53.5 -15.5q130 0 197 65q14 13 26.5 31
t19.5 27t14 9q16 0 16 -19q0 -36 -15 -79q-11 -33 -41.5 -61t-63.5 -28q-34 0 -101 4t-100 4t-100 -4t-101 -4q-14 0 -20.5 0.5t-13.5 1.5t-9.5 4.5t-2.5 9.5q0 4 2 7.5t4 6t6.5 5.5t7.5 4.5t9.5 4.5t8.5 4q24 12 31.5 32t7.5 65zM255 887h93l122 -176h-56l-113 99l-112 -99
h-56z" />
    <glyph glyph-name="Edieresis" unicode="&#xcb;" horiz-adv-x="611" 
d="M107 137v377q0 123 -47 129q-52 7 -52 29q0 11 9 13.5t28 2.5q43 -6 231 -8q38 0 115 4t116 4q15 0 22 -0.5t14 -5.5t7 -14q0 -11 -2 -33t-2 -33t2 -33t2 -33q0 -19 -18 -19q-17 0 -20 27q-5 49 -36.5 69t-116.5 20h-65q-21 0 -28 -9.5t-7 -38.5v-175q0 -21 57 -21
q96 0 118 60q8 20 12.5 25.5t12.5 5.5q15 0 15 -28q0 -15 -2 -45t-2 -45t2 -45t2 -45q0 -9 -0.5 -14t-5 -9.5t-13.5 -4.5q-7 0 -10.5 7.5t-8 21.5t-8.5 21q-18 29 -41.5 38t-70.5 9q-34 0 -45.5 -9t-11.5 -29v-171q0 -54 12.5 -69.5t53.5 -15.5q130 0 197 65q14 13 26.5 31
t19.5 27t14 9q16 0 16 -19q0 -36 -15 -79q-11 -33 -41.5 -61t-63.5 -28q-34 0 -101 4t-100 4t-100 -4t-101 -4q-14 0 -20.5 0.5t-13.5 1.5t-9.5 4.5t-2.5 9.5q0 4 2 7.5t4 6t6.5 5.5t7.5 4.5t9.5 4.5t8.5 4q24 12 31.5 32t7.5 65zM274 785q0 -10 -25 -40t-34 -30
q-11 0 -35 29t-24 41q0 11 24.5 41t34.5 30q9 0 34 -30.5t25 -40.5zM461 785q0 -11 -24 -40.5t-35 -29.5t-35 29t-24 41t24.5 41.5t34.5 29.5t34.5 -30t24.5 -41z" />
    <glyph glyph-name="Igrave" unicode="&#xcc;" horiz-adv-x="389" 
d="M270 565v-450q0 -41 26 -61t51 -22q21 -2 21 -24q0 -16 -58 -16q-14 0 -52 4t-59 4q-20 0 -60 -4t-60 -4q-12 0 -18 0.5t-11 4t-5 11.5q0 16 27 24q46 14 46 83v450q0 78 -76 83q-21 2 -21 24q0 16 58 16q20 0 60 -4t60 -4t60 4t60 4q29 0 29 -16q0 -13 -37 -24
q-14 -4 -23 -12.5t-12.5 -21.5t-4.5 -23.5t-1 -25.5zM261 711h-49l-144 85q-25 15 -36 27t-11 30q0 21 14.5 33t37.5 12q13 0 27.5 -9t22 -16.5t22 -25.5t16.5 -20z" />
    <glyph glyph-name="Iacute" unicode="&#xcd;" horiz-adv-x="389" 
d="M270 565v-450q0 -41 26 -61t51 -22q21 -2 21 -24q0 -16 -58 -16q-14 0 -52 4t-59 4q-20 0 -60 -4t-60 -4q-12 0 -18 0.5t-11 4t-5 11.5q0 16 27 24q46 14 46 83v450q0 78 -76 83q-21 2 -21 24q0 16 58 16q20 0 60 -4t60 -4t60 4t60 4q29 0 29 -16q0 -13 -37 -24
q-14 -4 -23 -12.5t-12.5 -21.5t-4.5 -23.5t-1 -25.5zM160 711h-49l100 116l16 19q16 20 23.5 27t22.5 16t29 9q22 0 35.5 -11t13.5 -28q0 -22 -11.5 -35.5t-35.5 -27.5z" />
    <glyph glyph-name="Icircumflex" unicode="&#xce;" horiz-adv-x="389" 
d="M270 565v-450q0 -41 26 -61t51 -22q21 -2 21 -24q0 -16 -58 -16q-14 0 -52 4t-59 4q-20 0 -60 -4t-60 -4q-12 0 -18 0.5t-11 4t-5 11.5q0 16 27 24q46 14 46 83v450q0 78 -76 83q-21 2 -21 24q0 16 58 16q20 0 60 -4t60 -4t60 4t60 4q29 0 29 -16q0 -13 -37 -24
q-14 -4 -23 -12.5t-12.5 -21.5t-4.5 -23.5t-1 -25.5zM135 887h93l122 -176h-56l-113 99l-112 -99h-56z" />
    <glyph glyph-name="Idieresis" unicode="&#xcf;" horiz-adv-x="389" 
d="M270 565v-450q0 -41 26 -61t51 -22q21 -2 21 -24q0 -16 -58 -16q-14 0 -52 4t-59 4q-20 0 -60 -4t-60 -4q-12 0 -18 0.5t-11 4t-5 11.5q0 16 27 24q46 14 46 83v450q0 78 -76 83q-21 2 -21 24q0 16 58 16q20 0 60 -4t60 -4t60 4t60 4q29 0 29 -16q0 -13 -37 -24
q-14 -4 -23 -12.5t-12.5 -21.5t-4.5 -23.5t-1 -25.5zM154 785q0 -10 -25 -40t-34 -30q-11 0 -35 29t-24 41q0 11 24.5 41t34.5 30q9 0 34 -30.5t25 -40.5zM341 785q0 -11 -24 -40.5t-35 -29.5t-35 29t-24 41t24.5 41.5t34.5 29.5t34.5 -30t24.5 -41z" />
    <glyph glyph-name="Eth" unicode="&#xd0;" horiz-adv-x="778" 
d="M256 562v-166h142v-55h-142v-196q0 -62 25.5 -81t91.5 -19q69 0 120.5 44t75 106t23.5 129q0 47 -9 91.5t-29.5 86t-50 72.5t-73 50t-96.5 19q-45 0 -61.5 -19.5t-16.5 -61.5zM104 396v124q0 69 -10.5 90.5t-38.5 28.5q-5 1 -11.5 3t-10 3t-8 2.5t-6.5 2.5t-4.5 2t-4 2.5
t-2.5 3t-1.5 3.5t-0.5 4q0 14 9 18.5t29 4.5q24 0 73 -4t74 -4t74 4t73 4q416 0 416 -329q0 -88 -34 -159.5t-90.5 -116t-126.5 -68t-146 -23.5q-60 0 -129.5 4t-77.5 4q-14 0 -45 -4t-46 -4q-31 0 -31 11q0 2 0.5 4.5t2 4.5t3 3.5t4 3t4.5 2.5t5.5 2t5 2t6 2t5.5 2
q40 14 40 108v204h-89v55h89z" />
    <glyph glyph-name="Ntilde" unicode="&#xd1;" horiz-adv-x="833" 
d="M649 43l-429 439q-40 40 -47 40q-8 0 -8 -27v-357q0 -81 65 -101q7 -2 24.5 -5t25.5 -7t8 -13q0 -20 -42 -20q-18 0 -53 4t-52 4t-52.5 -4t-52.5 -4q-21 0 -21 16q0 7 4.5 13t8 8t14.5 8q39 21 53.5 45.5t14.5 66.5v377q0 33 -13 66t-39 45q-5 3 -12.5 6t-11.5 5
t-8.5 4.5t-6.5 4t-4.5 4t-3 5.5t-0.5 6q0 11 3 13.5t10 2.5q15 0 45 -2t45 -2t45 2t45 2q26 0 38 -13l387 -401q27 -27 34 -27q9 0 9 28v227q0 30 -2 49t-8 40t-20 34t-36 18q-53 12 -53 29q0 16 37 16q18 0 53 -4t52 -4t52 4t53 4q21 0 21 -16q0 -7 -4.5 -13t-8 -8
t-14.5 -8q-38 -21 -52.5 -45.5t-14.5 -66.5v-482q0 -33 -3.5 -44.5t-12.5 -11.5q-12 0 -62 50zM552 857h43q-10 -50 -39.5 -88t-76.5 -38q-32 0 -92 26q-53 23 -72 23q-32 0 -43 -48h-42q20 125 119 125q31 0 83 -24q50 -25 64 -25q23 0 34.5 12t21.5 37z" />
    <glyph glyph-name="Ograve" unicode="&#xd2;" horiz-adv-x="833" 
d="M195 383q0 -53 16 -113t44.5 -115t76.5 -91t105 -36q87 0 144 79.5t57 189.5q0 53 -16 113t-44.5 115t-76.5 91t-105 36q-87 0 -144 -79.5t-57 -189.5zM33 322q0 104 57 191.5t148.5 135.5t195.5 48q157 0 261.5 -94.5t104.5 -250.5q0 -108 -59.5 -194t-152.5 -130.5
t-198 -44.5q-155 0 -256 94t-101 245zM492 711h-49l-144 85q-25 15 -36 27t-11 30q0 21 14.5 33t37.5 12q13 0 27.5 -9t22 -16.5t22 -25.5t16.5 -20z" />
    <glyph glyph-name="Oacute" unicode="&#xd3;" horiz-adv-x="833" 
d="M195 383q0 -53 16 -113t44.5 -115t76.5 -91t105 -36q87 0 144 79.5t57 189.5q0 53 -16 113t-44.5 115t-76.5 91t-105 36q-87 0 -144 -79.5t-57 -189.5zM33 322q0 104 57 191.5t148.5 135.5t195.5 48q157 0 261.5 -94.5t104.5 -250.5q0 -108 -59.5 -194t-152.5 -130.5
t-198 -44.5q-155 0 -256 94t-101 245zM391 711h-49l100 116l16 19q16 20 23.5 27t22.5 16t29 9q22 0 35.5 -11t13.5 -28q0 -22 -11.5 -35.5t-35.5 -27.5z" />
    <glyph glyph-name="Ocircumflex" unicode="&#xd4;" horiz-adv-x="833" 
d="M195 383q0 -53 16 -113t44.5 -115t76.5 -91t105 -36q87 0 144 79.5t57 189.5q0 53 -16 113t-44.5 115t-76.5 91t-105 36q-87 0 -144 -79.5t-57 -189.5zM33 322q0 104 57 191.5t148.5 135.5t195.5 48q157 0 261.5 -94.5t104.5 -250.5q0 -108 -59.5 -194t-152.5 -130.5
t-198 -44.5q-155 0 -256 94t-101 245zM366 887h93l122 -176h-56l-113 99l-112 -99h-56z" />
    <glyph glyph-name="Otilde" unicode="&#xd5;" horiz-adv-x="833" 
d="M195 383q0 -53 16 -113t44.5 -115t76.5 -91t105 -36q87 0 144 79.5t57 189.5q0 53 -16 113t-44.5 115t-76.5 91t-105 36q-87 0 -144 -79.5t-57 -189.5zM33 322q0 104 57 191.5t148.5 135.5t195.5 48q157 0 261.5 -94.5t104.5 -250.5q0 -108 -59.5 -194t-152.5 -130.5
t-198 -44.5q-155 0 -256 94t-101 245zM552 857h43q-10 -50 -39.5 -88t-76.5 -38q-32 0 -92 26q-53 23 -72 23q-32 0 -43 -48h-42q20 125 119 125q31 0 83 -24q50 -25 64 -25q23 0 34.5 12t21.5 37z" />
    <glyph glyph-name="Odieresis" unicode="&#xd6;" horiz-adv-x="833" 
d="M195 383q0 -53 16 -113t44.5 -115t76.5 -91t105 -36q87 0 144 79.5t57 189.5q0 53 -16 113t-44.5 115t-76.5 91t-105 36q-87 0 -144 -79.5t-57 -189.5zM33 322q0 104 57 191.5t148.5 135.5t195.5 48q157 0 261.5 -94.5t104.5 -250.5q0 -108 -59.5 -194t-152.5 -130.5
t-198 -44.5q-155 0 -256 94t-101 245zM385 785q0 -10 -25 -40t-34 -30q-11 0 -35 29t-24 41q0 11 24.5 41t34.5 30q9 0 34 -30.5t25 -40.5zM572 785q0 -11 -24 -40.5t-35 -29.5t-35 29t-24 41t24.5 41.5t34.5 29.5t34.5 -30t24.5 -41z" />
    <glyph glyph-name="multiply" unicode="&#xd7;" horiz-adv-x="600" 
d="M232 215l-146 147l67 67l147 -147l148 147l66 -69l-146 -146l146 -147l-66 -67l-148 147l-147 -147l-67 67l146 147v1z" />
    <glyph glyph-name="Oslash" unicode="&#xd8;" horiz-adv-x="833" 
d="M250 167l292 410q-63 75 -146 75q-87 0 -144 -79.5t-57 -189.5q0 -112 55 -216zM578 524l-294 -412q66 -84 153 -84t144 79.5t57 189.5q0 121 -60 227zM675 764h74l-93 -131q144 -97 144 -281q0 -108 -59.5 -194t-152.5 -130.5t-198 -44.5q-94 0 -171 37l-70 -98h-74
l92 129q-63 44 -98.5 114t-35.5 157q0 104 57 191.5t148.5 135.5t195.5 48q92 0 169 -34z" />
    <glyph glyph-name="Ugrave" unicode="&#xd9;" horiz-adv-x="833" 
d="M102 250v315q0 83 -76 83q-21 0 -21 21q0 11 11 15t47 4q20 0 60 -4t60 -4t60 4t60 4q29 0 29 -16q0 -3 -1.5 -6t-5 -5.5t-6 -4t-8.5 -4.5t-9 -4q-48 -23 -48 -83v-311q0 -89 55 -145t146 -56q52 0 92 16t64 41t39.5 59.5t21.5 68t6 69.5v255q0 82 -81 86q-32 2 -32 24
q0 16 37 16q15 0 45 -2t45 -2t45 2t45 2q14 0 18.5 -3.5t4.5 -12.5q0 -6 -3.5 -10t-7 -5.5t-12 -4t-12.5 -4.5q-22 -9 -29.5 -31t-7.5 -86v-213q0 -335 -341 -335q-290 0 -290 267zM511 711h-49l-144 85q-25 15 -36 27t-11 30q0 21 14.5 33t37.5 12q13 0 27.5 -9t22 -16.5
t22 -25.5t16.5 -20z" />
    <glyph glyph-name="Uacute" unicode="&#xda;" horiz-adv-x="833" 
d="M102 250v315q0 83 -76 83q-21 0 -21 21q0 11 11 15t47 4q20 0 60 -4t60 -4t60 4t60 4q29 0 29 -16q0 -3 -1.5 -6t-5 -5.5t-6 -4t-8.5 -4.5t-9 -4q-48 -23 -48 -83v-311q0 -89 55 -145t146 -56q52 0 92 16t64 41t39.5 59.5t21.5 68t6 69.5v255q0 82 -81 86q-32 2 -32 24
q0 16 37 16q15 0 45 -2t45 -2t45 2t45 2q14 0 18.5 -3.5t4.5 -12.5q0 -6 -3.5 -10t-7 -5.5t-12 -4t-12.5 -4.5q-22 -9 -29.5 -31t-7.5 -86v-213q0 -335 -341 -335q-290 0 -290 267zM410 711h-49l100 116l16 19q16 20 23.5 27t22.5 16t29 9q22 0 35.5 -11t13.5 -28
q0 -22 -11.5 -35.5t-35.5 -27.5z" />
    <glyph glyph-name="Ucircumflex" unicode="&#xdb;" horiz-adv-x="833" 
d="M102 250v315q0 83 -76 83q-21 0 -21 21q0 11 11 15t47 4q20 0 60 -4t60 -4t60 4t60 4q29 0 29 -16q0 -3 -1.5 -6t-5 -5.5t-6 -4t-8.5 -4.5t-9 -4q-48 -23 -48 -83v-311q0 -89 55 -145t146 -56q52 0 92 16t64 41t39.5 59.5t21.5 68t6 69.5v255q0 82 -81 86q-32 2 -32 24
q0 16 37 16q15 0 45 -2t45 -2t45 2t45 2q14 0 18.5 -3.5t4.5 -12.5q0 -6 -3.5 -10t-7 -5.5t-12 -4t-12.5 -4.5q-22 -9 -29.5 -31t-7.5 -86v-213q0 -335 -341 -335q-290 0 -290 267zM385 887h93l122 -176h-56l-113 99l-112 -99h-56z" />
    <glyph glyph-name="Udieresis" unicode="&#xdc;" horiz-adv-x="833" 
d="M102 250v315q0 83 -76 83q-21 0 -21 21q0 11 11 15t47 4q20 0 60 -4t60 -4t60 4t60 4q29 0 29 -16q0 -3 -1.5 -6t-5 -5.5t-6 -4t-8.5 -4.5t-9 -4q-48 -23 -48 -83v-311q0 -89 55 -145t146 -56q52 0 92 16t64 41t39.5 59.5t21.5 68t6 69.5v255q0 82 -81 86q-32 2 -32 24
q0 16 37 16q15 0 45 -2t45 -2t45 2t45 2q14 0 18.5 -3.5t4.5 -12.5q0 -6 -3.5 -10t-7 -5.5t-12 -4t-12.5 -4.5q-22 -9 -29.5 -31t-7.5 -86v-213q0 -335 -341 -335q-290 0 -290 267zM404 785q0 -10 -25 -40t-34 -30q-11 0 -35 29t-24 41q0 11 24.5 41t34.5 30q9 0 34 -30.5
t25 -40.5zM591 785q0 -11 -24 -40.5t-35 -29.5t-35 29t-24 41t24.5 41.5t34.5 29.5t34.5 -30t24.5 -41z" />
    <glyph glyph-name="Yacute" unicode="&#xdd;" horiz-adv-x="722" 
d="M449 401l86 146q15 25 15 49q0 19 -20 30.5t-58 21.5q-20 5 -20 24q0 16 23 16q17 0 52 -4t53 -4t53 4t52 4q23 0 23 -16q0 -4 -1 -7t-2 -4.5t-4 -3.5l-4.5 -3t-7 -3t-7.5 -3q-23 -9 -38.5 -27t-44.5 -67l-129 -213q-24 -39 -24 -54v-157q0 -84 67 -93q35 -5 41 -13
q3 -4 3 -11t-4 -12t-14 -6.5t-17 -2t-21 -0.5q-22 0 -68 4t-70 4q-16 0 -58 -4t-66 -4q-14 0 -21 0.5t-17 2t-14 6.5t-4 12q0 19 39 23q3 1 5 1q67 9 67 93v125q0 13 -8 26l-152 282q-43 79 -85 85q-42 7 -42 24q0 16 35 16q22 0 67 -4t68 -4t68 4t67 4q35 0 35 -16
q0 -7 -7 -11t-19 -7t-17 -6q-22 -12 -22 -22q0 -20 19 -55l91 -169q20 -37 29 -37q7 0 28 36zM335 711h-49l100 116l16 19q16 20 23.5 27t22.5 16t29 9q22 0 35.5 -11t13.5 -28q0 -22 -11.5 -35.5t-35.5 -27.5z" />
    <glyph glyph-name="Thorn" unicode="&#xde;" horiz-adv-x="667" 
d="M271 492v-263q37 -15 79 -15q61 0 93 40.5t32 102.5q0 71 -43 109t-117 38q-21 0 -44 -12zM119 115v450q0 77 -81 83q-21 2 -21 24q0 16 50 16q25 0 67 -4t61 -4q20 0 60 4t60 4q29 0 29 -16t-27 -24t-36.5 -33t-9.5 -72q75 9 118 9q114 0 181 -45.5t67 -141.5
q0 -89 -68 -146t-170 -57q-84 0 -128 17v-64q0 -77 81 -83q21 -2 21 -24q0 -16 -58 -16q-20 0 -60 4t-60 4t-60 -4t-60 -4q-29 0 -29 16t27 24q46 14 46 83z" />
    <glyph glyph-name="germandbls" unicode="&#xdf;" horiz-adv-x="611" 
d="M79 72v444q0 104 60 166t163 62q85 0 149.5 -41t64.5 -124q0 -60 -35 -106.5t-91 -59.5q-19 -4 -19 -7q0 -4 13 -8q5 -2 25 -9t30 -11.5t30 -14.5t31 -19t26 -25t22.5 -33.5t13.5 -42t6 -53.5q0 -101 -62 -154t-163 -53q-29 0 -40 12.5t-11 40.5q0 41 33 41
q11 0 19 -13.5t17 -27t25 -13.5q47 0 47 190q0 162 -143 162q-26 0 -26 24q0 16 18 16q109 0 109 150q0 139 -92 139q-27 0 -45 -11.5t-26 -33.5t-11 -42.5t-3 -47.5v-498q0 -34 18 -39l15 -4.5t9 -6t4 -12.5q0 -10 -4.5 -13.5t-17.5 -3.5q-16 0 -48 4t-48 4t-48 -4t-48 -4
q-24 0 -24 17q0 19 28 23q29 3 29 40z" />
    <glyph glyph-name="agrave" unicode="&#xe0;" horiz-adv-x="500" 
d="M287 95v124q-45 1 -84.5 -29t-39.5 -74q0 -63 56 -63q22 0 45 11t23 31zM422 275v-177q0 -15 1 -22.5t5 -12.5t13 -5q6 0 19 2.5t17 2.5q18 0 18 -12q0 -17 -36 -38.5t-85 -21.5q-24 0 -48.5 16t-31.5 38q-69 -62 -158 -62q-46 0 -77 30t-31 76q0 42 15.5 71t47.5 46
t58.5 25t73 17.5t65.5 14.5v56q0 35 -24 60.5t-58 25.5q-19 0 -25 -9t-6 -38t-8 -41q-8 -11 -39.5 -19.5t-49.5 -8.5q-36 0 -36 32q0 31 16.5 54.5t40 36.5t56 20.5t58 10t52.5 2.5q84 0 120.5 -42.5t36.5 -127.5zM317 502h-49l-144 85q-25 15 -36 27t-11 30q0 21 14.5 33
t37.5 12q13 0 27.5 -9t22 -16.5t22 -25.5t16.5 -20z" />
    <glyph glyph-name="aacute" unicode="&#xe1;" horiz-adv-x="500" 
d="M287 95v124q-45 1 -84.5 -29t-39.5 -74q0 -63 56 -63q22 0 45 11t23 31zM422 275v-177q0 -15 1 -22.5t5 -12.5t13 -5q6 0 19 2.5t17 2.5q18 0 18 -12q0 -17 -36 -38.5t-85 -21.5q-24 0 -48.5 16t-31.5 38q-69 -62 -158 -62q-46 0 -77 30t-31 76q0 42 15.5 71t47.5 46
t58.5 25t73 17.5t65.5 14.5v56q0 35 -24 60.5t-58 25.5q-19 0 -25 -9t-6 -38t-8 -41q-8 -11 -39.5 -19.5t-49.5 -8.5q-36 0 -36 32q0 31 16.5 54.5t40 36.5t56 20.5t58 10t52.5 2.5q84 0 120.5 -42.5t36.5 -127.5zM216 502h-49l100 116l16 20q16 19 23.5 26t22.5 16t29 9
q22 0 35.5 -11t13.5 -28q0 -22 -11.5 -35.5t-35.5 -27.5z" />
    <glyph glyph-name="acircumflex" unicode="&#xe2;" horiz-adv-x="500" 
d="M287 95v124q-45 1 -84.5 -29t-39.5 -74q0 -63 56 -63q22 0 45 11t23 31zM422 275v-177q0 -15 1 -22.5t5 -12.5t13 -5q6 0 19 2.5t17 2.5q18 0 18 -12q0 -17 -36 -38.5t-85 -21.5q-24 0 -48.5 16t-31.5 38q-69 -62 -158 -62q-46 0 -77 30t-31 76q0 42 15.5 71t47.5 46
t58.5 25t73 17.5t65.5 14.5v56q0 35 -24 60.5t-58 25.5q-19 0 -25 -9t-6 -38t-8 -41q-8 -11 -39.5 -19.5t-49.5 -8.5q-36 0 -36 32q0 31 16.5 54.5t40 36.5t56 20.5t58 10t52.5 2.5q84 0 120.5 -42.5t36.5 -127.5zM191 678h93l122 -176h-56l-113 99l-112 -99h-56z" />
    <glyph glyph-name="atilde" unicode="&#xe3;" horiz-adv-x="500" 
d="M287 95v124q-45 1 -84.5 -29t-39.5 -74q0 -63 56 -63q22 0 45 11t23 31zM422 275v-177q0 -15 1 -22.5t5 -12.5t13 -5q6 0 19 2.5t17 2.5q18 0 18 -12q0 -17 -36 -38.5t-85 -21.5q-24 0 -48.5 16t-31.5 38q-69 -62 -158 -62q-46 0 -77 30t-31 76q0 42 15.5 71t47.5 46
t58.5 25t73 17.5t65.5 14.5v56q0 35 -24 60.5t-58 25.5q-19 0 -25 -9t-6 -38t-8 -41q-8 -11 -39.5 -19.5t-49.5 -8.5q-36 0 -36 32q0 31 16.5 54.5t40 36.5t56 20.5t58 10t52.5 2.5q84 0 120.5 -42.5t36.5 -127.5zM377 648h43q-10 -50 -39.5 -88t-76.5 -38q-32 0 -92 26
q-53 23 -72 23q-32 0 -43 -48h-42q20 125 119 125q31 0 83 -24q50 -25 64 -25q23 0 34.5 12t21.5 37z" />
    <glyph glyph-name="adieresis" unicode="&#xe4;" horiz-adv-x="500" 
d="M287 95v124q-45 1 -84.5 -29t-39.5 -74q0 -63 56 -63q22 0 45 11t23 31zM422 275v-177q0 -15 1 -22.5t5 -12.5t13 -5q6 0 19 2.5t17 2.5q18 0 18 -12q0 -17 -36 -38.5t-85 -21.5q-24 0 -48.5 16t-31.5 38q-69 -62 -158 -62q-46 0 -77 30t-31 76q0 42 15.5 71t47.5 46
t58.5 25t73 17.5t65.5 14.5v56q0 35 -24 60.5t-58 25.5q-19 0 -25 -9t-6 -38t-8 -41q-8 -11 -39.5 -19.5t-49.5 -8.5q-36 0 -36 32q0 31 16.5 54.5t40 36.5t56 20.5t58 10t52.5 2.5q84 0 120.5 -42.5t36.5 -127.5zM210 576q0 -10 -25 -40t-34 -30q-11 0 -35 29t-24 41
q0 11 24.5 41t34.5 30q9 0 34 -30.5t25 -40.5zM397 576q0 -11 -24 -40.5t-35 -29.5t-35 29t-24 41t24.5 41.5t34.5 29.5t34.5 -30t24.5 -41z" />
    <glyph glyph-name="aring" unicode="&#xe5;" horiz-adv-x="500" 
d="M287 95v124q-45 1 -84.5 -29t-39.5 -74q0 -63 56 -63q22 0 45 11t23 31zM422 275v-177q0 -15 1 -22.5t5 -12.5t13 -5q6 0 19 2.5t17 2.5q18 0 18 -12q0 -17 -36 -38.5t-85 -21.5q-24 0 -48.5 16t-31.5 38q-69 -62 -158 -62q-46 0 -77 30t-31 76q0 42 15.5 71t47.5 46
t58.5 25t73 17.5t65.5 14.5v56q0 35 -24 60.5t-58 25.5q-19 0 -25 -9t-6 -38t-8 -41q-8 -11 -39.5 -19.5t-49.5 -8.5q-36 0 -36 32q0 31 16.5 54.5t40 36.5t56 20.5t58 10t52.5 2.5q84 0 120.5 -42.5t36.5 -127.5zM242 666q-23 0 -40.5 -17.5t-17.5 -40.5t17.5 -40.5
t40.5 -17.5t40.5 17.5t17.5 40.5t-17.5 40.5t-40.5 17.5zM242 715q44 0 75.5 -31.5t31.5 -75.5t-31.5 -75.5t-75.5 -31.5t-75.5 31.5t-31.5 75.5t31.5 75.5t75.5 31.5z" />
    <glyph glyph-name="ae" unicode="&#xe6;" horiz-adv-x="778" 
d="M296 96v125q-45 1 -84.5 -29.5t-39.5 -74.5q0 -63 56 -63q22 0 45 11t23 31zM451 274h148q6 0 6 24q0 45 -23.5 76t-64.5 31q-42 0 -65.5 -36t-23.5 -77q0 -18 23 -18zM685 234h-254v-28q0 -68 48.5 -110.5t110.5 -42.5q35 0 68.5 14t53.5 28l19 14q11 0 11 -11
q0 -31 -66 -73t-150 -42q-130 0 -186 78q-53 -41 -95 -59.5t-100 -18.5q-46 0 -77 31.5t-31 77.5q0 36 13 62.5t30.5 42t48 27.5t53 16.5t59.5 11.5t54 11v56q0 35 -24 60.5t-58 25.5q-17 0 -24 -9.5t-7 -37.5q0 -29 -8 -41q-8 -11 -39.5 -19.5t-49.5 -8.5q-36 0 -36 32
q0 31 16.5 54.5t40 36.5t56 20.5t58 10t52.5 2.5q51 0 113 -47q39 27 68.5 37t68.5 10q50 0 99.5 -21t84 -63t34.5 -94q0 -17 -11.5 -25t-43.5 -8z" />
    <glyph glyph-name="ccedilla" unicode="&#xe7;" horiz-adv-x="500" 
d="M283 -14l-22 -50q15 4 31 4q35 0 62.5 -22t27.5 -56q0 -41 -42.5 -60.5t-89.5 -19.5q-54 0 -94 18l16 37q30 -13 61 -13q56 0 56 38q0 16 -10 25t-21 10.5t-29.5 2t-24.5 1.5l36 82q-94 1 -152.5 64.5t-58.5 158.5q0 100 79 169.5t180 69.5q54 0 104 -24t50 -55
q0 -12 -6 -22.5t-12 -15.5t-20 -14q-41 -30 -56 -30q-12 0 -16 5.5t-7.5 23t-7.5 28.5q-9 26 -31 42.5t-50 16.5q-79 0 -79 -124q0 -79 45.5 -149t120.5 -70q36 0 65 15.5t45 31t23 15.5q5 0 10 -4t5 -9q0 -33 -58.5 -72t-129.5 -48z" />
    <glyph glyph-name="egrave" unicode="&#xe8;" horiz-adv-x="500" 
d="M182 274h148q6 0 6 25q0 45 -23.5 75.5t-64.5 30.5q-42 0 -65.5 -35.5t-23.5 -76.5q0 -19 23 -19zM416 234h-253v-38q0 -57 49.5 -100t108.5 -43q35 0 68.5 14t53 28t20.5 14q4 0 7 -3.5t3 -7.5q0 -31 -66 -73t-150 -42q-107 0 -168.5 57.5t-61.5 163.5q0 101 63.5 171
t162.5 70q50 0 99.5 -21t84 -63t34.5 -94q0 -18 -11 -25.5t-44 -7.5zM325 502h-49l-144 85q-25 15 -36 27t-11 30q0 21 14.5 33t37.5 12q13 0 27.5 -9t22 -16.5t22 -25.5t16.5 -20z" />
    <glyph glyph-name="eacute" unicode="&#xe9;" horiz-adv-x="500" 
d="M182 274h148q6 0 6 25q0 45 -23.5 75.5t-64.5 30.5q-42 0 -65.5 -35.5t-23.5 -76.5q0 -19 23 -19zM416 234h-253v-38q0 -57 49.5 -100t108.5 -43q35 0 68.5 14t53 28t20.5 14q4 0 7 -3.5t3 -7.5q0 -31 -66 -73t-150 -42q-107 0 -168.5 57.5t-61.5 163.5q0 101 63.5 171
t162.5 70q50 0 99.5 -21t84 -63t34.5 -94q0 -18 -11 -25.5t-44 -7.5zM224 502h-49l100 116l16 20q16 19 23.5 26t22.5 16t29 9q22 0 35.5 -11t13.5 -28q0 -22 -11.5 -35.5t-35.5 -27.5z" />
    <glyph glyph-name="ecircumflex" unicode="&#xea;" horiz-adv-x="500" 
d="M182 274h148q6 0 6 25q0 45 -23.5 75.5t-64.5 30.5q-42 0 -65.5 -35.5t-23.5 -76.5q0 -19 23 -19zM416 234h-253v-38q0 -57 49.5 -100t108.5 -43q35 0 68.5 14t53 28t20.5 14q4 0 7 -3.5t3 -7.5q0 -31 -66 -73t-150 -42q-107 0 -168.5 57.5t-61.5 163.5q0 101 63.5 171
t162.5 70q50 0 99.5 -21t84 -63t34.5 -94q0 -18 -11 -25.5t-44 -7.5zM199 678h93l122 -176h-56l-113 99l-112 -99h-56z" />
    <glyph glyph-name="edieresis" unicode="&#xeb;" horiz-adv-x="500" 
d="M182 274h148q6 0 6 25q0 45 -23.5 75.5t-64.5 30.5q-42 0 -65.5 -35.5t-23.5 -76.5q0 -19 23 -19zM416 234h-253v-38q0 -57 49.5 -100t108.5 -43q35 0 68.5 14t53 28t20.5 14q4 0 7 -3.5t3 -7.5q0 -31 -66 -73t-150 -42q-107 0 -168.5 57.5t-61.5 163.5q0 101 63.5 171
t162.5 70q50 0 99.5 -21t84 -63t34.5 -94q0 -18 -11 -25.5t-44 -7.5zM218 576q0 -10 -25 -40t-34 -30q-11 0 -35 29t-24 41q0 11 24.5 41t34.5 30q9 0 34 -30.5t25 -40.5zM405 576q0 -11 -24 -40.5t-35 -29.5t-35 29t-24 41t24.5 41.5t34.5 29.5t34.5 -30t24.5 -41z" />
    <glyph glyph-name="igrave" unicode="&#xec;" horiz-adv-x="278" 
d="M72 69v259q0 24 -28 26q-19 1 -24 6t-5 15q0 20 38 24q47 5 114 37q18 9 30 9q10 0 10 -60v-292q0 -47 39 -61q4 -2 13.5 -4.5t13.5 -4t8 -5.5t4 -10q0 -16 -25 -16q-18 0 -55 4t-56 4t-55.5 -4t-55.5 -4q-22 0 -22 16q0 17 28 24q28 8 28 37zM214 502h-49l-144 85
q-25 15 -36 27t-11 30q0 21 14.5 33t37.5 12q13 0 27.5 -9t22 -16.5t22 -25.5t16.5 -20z" />
    <glyph glyph-name="iacute" unicode="&#xed;" horiz-adv-x="278" 
d="M72 69v259q0 24 -28 26q-19 1 -24 6t-5 15q0 20 38 24q47 5 114 37q18 9 30 9q10 0 10 -60v-292q0 -47 39 -61q4 -2 13.5 -4.5t13.5 -4t8 -5.5t4 -10q0 -16 -25 -16q-18 0 -55 4t-56 4t-55.5 -4t-55.5 -4q-22 0 -22 16q0 17 28 24q28 8 28 37zM113 502h-49l100 116l16 20
q16 19 23.5 26t22.5 16t29 9q22 0 35.5 -11t13.5 -28q0 -22 -11.5 -35.5t-35.5 -27.5z" />
    <glyph glyph-name="icircumflex" unicode="&#xee;" horiz-adv-x="278" 
d="M72 69v259q0 24 -28 26q-19 1 -24 6t-5 15q0 20 38 24q47 5 114 37q18 9 30 9q10 0 10 -60v-292q0 -47 39 -61q4 -2 13.5 -4.5t13.5 -4t8 -5.5t4 -10q0 -16 -25 -16q-18 0 -55 4t-56 4t-55.5 -4t-55.5 -4q-22 0 -22 16q0 17 28 24q28 8 28 37zM88 678h93l122 -176h-56
l-113 99l-112 -99h-56z" />
    <glyph glyph-name="idieresis" unicode="&#xef;" horiz-adv-x="278" 
d="M72 69v259q0 24 -28 26q-19 1 -24 6t-5 15q0 20 38 24q47 5 114 37q18 9 30 9q10 0 10 -60v-292q0 -47 39 -61q4 -2 13.5 -4.5t13.5 -4t8 -5.5t4 -10q0 -16 -25 -16q-18 0 -55 4t-56 4t-55.5 -4t-55.5 -4q-22 0 -22 16q0 17 28 24q28 8 28 37zM107 576q0 -10 -25 -40
t-34 -30q-11 0 -35 29t-24 41q0 11 24.5 41t34.5 30q9 0 34 -30.5t25 -40.5zM294 576q0 -11 -24 -40.5t-35 -29.5t-35 29t-24 41t24.5 41.5t34.5 29.5t34.5 -30t24.5 -41z" />
    <glyph glyph-name="eth" unicode="&#xf0;" 
d="M267 405q-106 0 -106 -173q0 -86 38.5 -147.5t89.5 -61.5q106 0 106 163q0 95 -36 157t-92 62zM138 722l27 22q76 -61 144 -127l127 26l21 -32l-117 -24q190 -190 190 -358q0 -100 -70 -173t-174 -73q-106 0 -183 64t-77 167q0 102 71.5 166.5t181.5 64.5q50 0 78 -14
q-5 57 -75 144l-116 -24l-18 33l108 22q-55 63 -118 116z" />
    <glyph glyph-name="ntilde" unicode="&#xf1;" horiz-adv-x="611" 
d="M77 67v273q0 20 -28 24q-29 4 -29 19q0 14 38 22q73 16 114 31q24 9 30 9q8 0 8 -24v-63h2q64 87 151 87q76 0 123 -50t47 -140v-188q0 -29 30 -35q28 -5 28 -24q0 -16 -23 -16q-17 0 -51 4t-51 4t-51 -4t-51 -4q-22 0 -22 16q0 19 28 24q28 4 28 35v198q0 46 -22 77
t-71 31t-71 -31t-22 -77v-174q0 -47 39 -59q3 -1 8.5 -2.5t8 -2.5t7 -2.5t6.5 -3t4.5 -3.5t3.5 -4.5t1 -5.5q0 -16 -25 -16q-19 0 -56 4t-55 4t-55 -4t-56 -4q-22 0 -22 16q0 19 28 24q28 6 28 35zM441 648h43q-10 -50 -39.5 -88t-76.5 -38q-32 0 -92 26q-53 23 -72 23
q-32 0 -43 -48h-42q20 125 119 125q31 0 83 -24q50 -25 64 -25q23 0 34.5 12t21.5 37z" />
    <glyph glyph-name="ograve" unicode="&#xf2;" 
d="M279 445q96 0 173.5 -59t77.5 -157q0 -100 -70 -173t-174 -73q-106 0 -183 64t-77 167q0 102 71.5 166.5t181.5 64.5zM267 405q-106 0 -106 -173q0 -86 38.5 -147.5t89.5 -61.5q106 0 106 163q0 95 -36 157t-92 62zM353 502h-49l-144 85q-25 15 -36 27t-11 30
q0 21 14.5 33t37.5 12q13 0 27.5 -9t22 -16.5t22 -25.5t16.5 -20z" />
    <glyph glyph-name="oacute" unicode="&#xf3;" 
d="M279 445q96 0 173.5 -59t77.5 -157q0 -100 -70 -173t-174 -73q-106 0 -183 64t-77 167q0 102 71.5 166.5t181.5 64.5zM267 405q-106 0 -106 -173q0 -86 38.5 -147.5t89.5 -61.5q106 0 106 163q0 95 -36 157t-92 62zM252 502h-49l100 116l16 20q16 19 23.5 26t22.5 16
t29 9q22 0 35.5 -11t13.5 -28q0 -22 -11.5 -35.5t-35.5 -27.5z" />
    <glyph glyph-name="ocircumflex" unicode="&#xf4;" 
d="M279 445q96 0 173.5 -59t77.5 -157q0 -100 -70 -173t-174 -73q-106 0 -183 64t-77 167q0 102 71.5 166.5t181.5 64.5zM267 405q-106 0 -106 -173q0 -86 38.5 -147.5t89.5 -61.5q106 0 106 163q0 95 -36 157t-92 62zM227 678h93l122 -176h-56l-113 99l-112 -99h-56z" />
    <glyph glyph-name="otilde" unicode="&#xf5;" 
d="M279 445q96 0 173.5 -59t77.5 -157q0 -100 -70 -173t-174 -73q-106 0 -183 64t-77 167q0 102 71.5 166.5t181.5 64.5zM267 405q-106 0 -106 -173q0 -86 38.5 -147.5t89.5 -61.5q106 0 106 163q0 95 -36 157t-92 62zM413 648h43q-10 -50 -39.5 -88t-76.5 -38q-32 0 -92 26
q-53 23 -72 23q-32 0 -43 -48h-42q20 125 119 125q31 0 83 -24q50 -25 64 -25q23 0 34.5 12t21.5 37z" />
    <glyph glyph-name="odieresis" unicode="&#xf6;" 
d="M279 445q96 0 173.5 -59t77.5 -157q0 -100 -70 -173t-174 -73q-106 0 -183 64t-77 167q0 102 71.5 166.5t181.5 64.5zM267 405q-106 0 -106 -173q0 -86 38.5 -147.5t89.5 -61.5q106 0 106 163q0 95 -36 157t-92 62zM246 576q0 -10 -25 -40t-34 -30q-11 0 -35 29t-24 41
q0 11 24.5 41t34.5 30q9 0 34 -30.5t25 -40.5zM433 576q0 -11 -24 -40.5t-35 -29.5t-35 29t-24 41t24.5 41.5t34.5 29.5t34.5 -30t24.5 -41z" />
    <glyph glyph-name="divide" unicode="&#xf7;" horiz-adv-x="600" 
d="M514 166h-428v96h428v-96zM374 401q0 -31 -22 -53t-52 -22t-53 22.5t-23 52.5q0 31 23 53.5t53 22.5q29 0 51.5 -22.5t22.5 -53.5zM374 27q0 -31 -22.5 -53.5t-51.5 -22.5q-30 0 -53 22.5t-23 53.5q0 30 23 52.5t53 22.5t52 -22t22 -53z" />
    <glyph glyph-name="oslash" unicode="&#xf8;" 
d="M189 105l155 259q-32 41 -77 41q-106 0 -106 -173q0 -74 28 -127zM375 309l-152 -252q29 -34 66 -34q106 0 106 163q0 71 -20 123zM426 501h65l-61 -100q100 -62 100 -172q0 -100 -70 -173t-174 -73q-52 0 -98 17l-54 -89h-62l67 111q-113 66 -113 192q0 102 71.5 166.5
t181.5 64.5q55 0 102 -20z" />
    <glyph glyph-name="ugrave" unicode="&#xf9;" horiz-adv-x="611" 
d="M386 155v195q0 28 -11 36q-5 4 -17 6t-22 2.5t-18 4t-8 11.5q0 14 8 19.5t26 5.5q59 0 101 5t46 5q30 0 30 -36v-331q0 -26 13 -36q5 -4 17 -6t22 -2.5t18 -4t8 -11.5q0 -25 -34 -25q-59 0 -101 -5t-46 -5q-28 0 -32 36l-3 38h-2q-15 -33 -65.5 -53.5t-102.5 -20.5
q-146 0 -146 166v201q0 28 -11 36q-5 4 -14 6t-15 2.5t-11 4t-5 11.5q0 15 6 20t18 5q56 0 93.5 5t43.5 5q30 0 30 -36v-262q0 -42 23 -66t65 -24q96 0 96 98zM362 502h-49l-144 85q-25 15 -36 27t-11 30q0 21 14.5 33t37.5 12q13 0 27.5 -9t22 -16.5t22 -25.5t16.5 -20z
" />
    <glyph glyph-name="uacute" unicode="&#xfa;" horiz-adv-x="611" 
d="M386 155v195q0 28 -11 36q-5 4 -17 6t-22 2.5t-18 4t-8 11.5q0 14 8 19.5t26 5.5q59 0 101 5t46 5q30 0 30 -36v-331q0 -26 13 -36q5 -4 17 -6t22 -2.5t18 -4t8 -11.5q0 -25 -34 -25q-59 0 -101 -5t-46 -5q-28 0 -32 36l-3 38h-2q-15 -33 -65.5 -53.5t-102.5 -20.5
q-146 0 -146 166v201q0 28 -11 36q-5 4 -14 6t-15 2.5t-11 4t-5 11.5q0 15 6 20t18 5q56 0 93.5 5t43.5 5q30 0 30 -36v-262q0 -42 23 -66t65 -24q96 0 96 98zM261 502h-49l100 116l16 20q16 19 23.5 26t22.5 16t29 9q22 0 35.5 -11t13.5 -28q0 -22 -11.5 -35.5t-35.5 -27.5
z" />
    <glyph glyph-name="ucircumflex" unicode="&#xfb;" horiz-adv-x="611" 
d="M386 155v195q0 28 -11 36q-5 4 -17 6t-22 2.5t-18 4t-8 11.5q0 14 8 19.5t26 5.5q59 0 101 5t46 5q30 0 30 -36v-331q0 -26 13 -36q5 -4 17 -6t22 -2.5t18 -4t8 -11.5q0 -25 -34 -25q-59 0 -101 -5t-46 -5q-28 0 -32 36l-3 38h-2q-15 -33 -65.5 -53.5t-102.5 -20.5
q-146 0 -146 166v201q0 28 -11 36q-5 4 -14 6t-15 2.5t-11 4t-5 11.5q0 15 6 20t18 5q56 0 93.5 5t43.5 5q30 0 30 -36v-262q0 -42 23 -66t65 -24q96 0 96 98zM236 678h93l122 -176h-56l-113 99l-112 -99h-56z" />
    <glyph glyph-name="udieresis" unicode="&#xfc;" horiz-adv-x="611" 
d="M386 155v195q0 28 -11 36q-5 4 -17 6t-22 2.5t-18 4t-8 11.5q0 14 8 19.5t26 5.5q59 0 101 5t46 5q30 0 30 -36v-331q0 -26 13 -36q5 -4 17 -6t22 -2.5t18 -4t8 -11.5q0 -25 -34 -25q-59 0 -101 -5t-46 -5q-28 0 -32 36l-3 38h-2q-15 -33 -65.5 -53.5t-102.5 -20.5
q-146 0 -146 166v201q0 28 -11 36q-5 4 -14 6t-15 2.5t-11 4t-5 11.5q0 15 6 20t18 5q56 0 93.5 5t43.5 5q30 0 30 -36v-262q0 -42 23 -66t65 -24q96 0 96 98zM255 576q0 -10 -25 -40t-34 -30q-11 0 -35 29t-24 41q0 11 24.5 41t34.5 30q9 0 34 -30.5t25 -40.5zM442 576
q0 -11 -24 -40.5t-35 -29.5t-35 29t-24 41t24.5 41.5t34.5 29.5t34.5 -30t24.5 -41z" />
    <glyph glyph-name="yacute" unicode="&#xfd;" 
d="M358 174l45 87q28 52 28 80q0 24 -38 50q-4 3 -15 7.5t-17 9.5t-6 12q0 9 6.5 12.5t26.5 3.5q12 0 35.5 -4t34.5 -4q12 0 35.5 4t34.5 4q16 0 21.5 -3t5.5 -13q0 -4 -4 -8t-12.5 -9.5t-14.5 -11.5q-20 -20 -48 -78l-228 -463q-17 -34 -27 -41.5t-42 -7.5q-33 0 -33 17
q0 10 53 73.5t63 86.5q4 8 4 19q0 16 -15 42l-183 323q-14 23 -21 29q-2 2 -11 6.5t-14.5 10t-5.5 12.5q0 16 26 16q19 0 57.5 -4t57.5 -4t58 4t58 4q15 0 15 -16q0 -23 -45 -29q-10 -2 -10 -18q0 -18 8 -33l89 -164q9 -17 15 -17t13 15zM252 502h-49l100 116l16 20
q16 19 23.5 26t22.5 16t29 9q22 0 35.5 -11t13.5 -28q0 -22 -11.5 -35.5t-35.5 -27.5z" />
    <glyph glyph-name="thorn" unicode="&#xfe;" 
d="M407 178q0 66 -28.5 124.5t-81.5 58.5q-24 0 -41.5 -8t-27.5 -24.5t-16.5 -32t-9 -41t-3 -39.5t-0.5 -38q0 -63 25.5 -109t83.5 -46q39 0 62.5 27t30 58.5t6.5 69.5zM206 9v-107q0 -20 7.5 -33.5t14.5 -18t20 -9.5q4 -1 11 -3.5t11 -4t8.5 -4t6.5 -5.5t2 -8
q0 -15 -25 -15q-18 0 -55 4t-56 4t-56 -4t-55 -4q-22 0 -22 15q0 11 6.5 15.5t21.5 9.5q25 7 25 36v737q0 21 -10 34.5t-22 13.5q-29 0 -29 21q0 17 38 21q46 5 79 14q10 3 28.5 10t31.5 11.5t16 4.5t3 -10v-385h2q11 38 55.5 67t94.5 29q77 0 123 -62.5t46 -142.5
q0 -113 -63 -185t-161 -72q-50 0 -97 26z" />
    <glyph glyph-name="ydieresis" unicode="&#xff;" 
d="M358 174l45 87q28 52 28 80q0 24 -38 50q-4 3 -15 7.5t-17 9.5t-6 12q0 9 6.5 12.5t26.5 3.5q12 0 35.5 -4t34.5 -4q12 0 35.5 4t34.5 4q16 0 21.5 -3t5.5 -13q0 -4 -4 -8t-12.5 -9.5t-14.5 -11.5q-20 -20 -48 -78l-228 -463q-17 -34 -27 -41.5t-42 -7.5q-33 0 -33 17
q0 10 53 73.5t63 86.5q4 8 4 19q0 16 -15 42l-183 323q-14 23 -21 29q-2 2 -11 6.5t-14.5 10t-5.5 12.5q0 16 26 16q19 0 57.5 -4t57.5 -4t58 4t58 4q15 0 15 -16q0 -23 -45 -29q-10 -2 -10 -18q0 -18 8 -33l89 -164q9 -17 15 -17t13 15zM246 576q0 -10 -25 -40t-34 -30
q-11 0 -35 29t-24 41q0 11 24.5 41t34.5 30q9 0 34 -30.5t25 -40.5zM433 576q0 -11 -24 -40.5t-35 -29.5t-35 29t-24 41t24.5 41.5t34.5 29.5t34.5 -30t24.5 -41z" />
    <glyph glyph-name="dotlessi" unicode="&#x131;" horiz-adv-x="278" 
d="M72 69v259q0 24 -28 26q-19 1 -24 6t-5 15q0 20 38 24q47 5 114 37q18 9 30 9q10 0 10 -60v-292q0 -47 39 -61q4 -2 13.5 -4.5t13.5 -4t8 -5.5t4 -10q0 -16 -25 -16q-18 0 -55 4t-56 4t-55.5 -4t-55.5 -4q-22 0 -22 16q0 17 28 24q28 8 28 37z" />
    <glyph glyph-name="Lslash" unicode="&#x141;" horiz-adv-x="611" 
d="M8 235v70l94 48v212q0 83 -76 83q-21 0 -21 22q0 18 18 18q24 0 72.5 -4t72.5 -4q26 0 71.5 4t63.5 4q29 0 29 -16t-27 -24q-51 -16 -51 -83v-134l127 65v-70l-127 -65v-229q0 -55 12 -70t51 -15q130 0 197 65q12 12 26 30.5t23.5 27t20.5 8.5q10 0 16.5 -11.5t6.5 -28.5
q0 -60 -48.5 -103t-108.5 -43q-34 0 -135.5 4t-135.5 4q-18 0 -55.5 -4t-55.5 -4q-11 0 -16.5 0.5t-12.5 1.5t-10 4.5t-3 9.5t3 10t7 6.5t13 7t15 8.5q38 25 38 92v151z" />
    <glyph glyph-name="lslash" unicode="&#x142;" horiz-adv-x="278" 
d="M72 383v244q0 24 -28 26q-29 2 -29 21q0 20 38 24q47 5 114 37q18 9 30 9q10 0 10 -60v-236l65 38v-69l-65 -38v-286q0 -47 39 -61q4 -2 13.5 -4.5t13.5 -4t8 -5.5t4 -10q0 -16 -25 -16q-18 0 -55 4t-56 4t-55.5 -4t-55.5 -4q-22 0 -22 16q0 17 28 24q28 8 28 37v245
l-65 -38v69z" />
    <glyph glyph-name="OE" unicode="&#x152;" horiz-adv-x="1000" 
d="M657 303v-163q0 -62 11 -78.5t47 -16.5q127 0 196 67q14 14 27.5 31.5t20.5 26.5t14 9q15 0 15 -26q0 -27 -15 -72q-12 -33 -42.5 -61t-65.5 -28q-33 0 -117 4q-86 4 -133 4q-45 0 -135 -8q-81 -9 -135 -9q-79 0 -142.5 31.5t-101 83.5t-57.5 114t-20 127
q0 169 94.5 263.5t264.5 94.5q44 0 134 -8q79 -9 134 -9q47 0 131 4t116 4q14 0 21 -0.5t14 -5.5t7 -14q0 -11 -2 -33t-2 -33t2 -33t2 -33q0 -19 -18 -19q-17 0 -20 27q-3 26 -14 44t-23.5 27.5t-37.5 14t-41.5 5t-48.5 0.5h-53q-15 0 -21 -10t-6 -40v-175q0 -13 10.5 -17
t38.5 -4q48 0 72.5 10.5t45.5 47.5q2 3 4.5 12t6 15t10.5 6q13 0 16 -7t3 -21q0 -15 -2 -45t-2 -45t2 -45t2 -45q0 -28 -14 -28q-9 0 -14 7.5t-10.5 24t-11.5 26.5q-14 24 -38 31.5t-70 7.5q-29 0 -39 -8.5t-10 -29.5zM505 163v348q0 74 -26 107.5t-94 33.5
q-59 0 -101 -27.5t-62 -74.5t-28 -94t-8 -102q0 -49 10 -101t31.5 -105t63.5 -86.5t99 -33.5q62 0 88.5 34.5t26.5 100.5z" />
    <glyph glyph-name="oe" unicode="&#x153;" horiz-adv-x="889" 
d="M272 405q-106 0 -106 -172q0 -88 40 -149t96 -61q106 0 106 164q0 94 -39.5 156t-96.5 62zM566 274h148q6 0 6 24q0 45 -23 76t-61 31q-45 0 -69 -36t-24 -77q0 -18 23 -18zM800 234h-257v-31q0 -58 49.5 -104t112.5 -46q35 0 68.5 14t52.5 28l20 14q4 0 7.5 -3.5
t3.5 -7.5q0 -29 -66.5 -72t-149.5 -43q-111 0 -176 64q-86 -64 -174 -64q-106 0 -183 64t-77 167q0 102 71.5 166.5t181.5 64.5q120 0 202 -66q72 66 151 66q50 0 99.5 -21t84 -63t34.5 -94q0 -19 -12 -26t-43 -7z" />
    <glyph glyph-name="Scaron" unicode="&#x160;" 
d="M78 33l-35 139l-7 32q0 15 21 15q7 0 12.5 -5t8 -10t6.5 -14.5t5 -12.5q30 -64 83 -106.5t120 -42.5q54 0 90.5 31.5t36.5 84.5q0 33 -20.5 56.5t-53 38t-72 28t-79.5 31t-72.5 41.5t-53 65.5t-20.5 96.5q0 79 58 137.5t144 58.5q49 0 104 -19.5t65 -19.5q6 0 22 7t20 7
q16 0 16 -19q-1 -25 2.5 -62t7.5 -65.5t4 -31.5q0 -22 -20 -22q-9 0 -14.5 6t-8 12t-7.5 23q-17 55 -72 97t-112 42q-47 0 -80.5 -25.5t-33.5 -66.5q0 -34 20.5 -58.5t53 -38.5t72 -27t79.5 -30t72.5 -40t53 -64.5t20.5 -97.5q0 -37 -14.5 -75.5t-41.5 -71.5t-71.5 -53.5
t-97.5 -20.5q-29 0 -58 5t-66.5 14.5t-56.5 13.5q-27 5 -30 17zM324 711h-93l-122 176h56l112 -98l113 98h56z" />
    <glyph glyph-name="scaron" unicode="&#x161;" horiz-adv-x="389" 
d="M73 -4h-18q-16 0 -16 30q0 26 -1.5 62t-1.5 48q0 5 5 9t11 4q9 0 15.5 -3t11 -11t7 -13.5t6.5 -18.5t6 -19q22 -61 101 -61q27 0 48 16t21 42q0 25 -24 41t-58.5 27.5t-69 26t-58.5 46t-24 78.5q0 78 51.5 111.5t132.5 33.5q28 0 65 -10.5t37 -30.5q0 -8 2.5 -37.5
t2.5 -36.5q0 -22 -16 -22q-4 0 -8.5 6.5t-12 20.5t-14.5 24q-32 46 -94 46q-59 0 -59 -43q0 -21 24 -35.5t58.5 -26t69 -28t58.5 -50t24 -82.5q0 -75 -50.5 -116t-127.5 -41q-40 0 -76 8q-16 5 -28 5zM241 502h-93l-122 176h56l112 -98l113 98h56z" />
    <glyph glyph-name="Ydieresis" unicode="&#x178;" horiz-adv-x="722" 
d="M449 401l86 146q15 25 15 49q0 19 -20 30.5t-58 21.5q-20 5 -20 24q0 16 23 16q17 0 52 -4t53 -4t53 4t52 4q23 0 23 -16q0 -4 -1 -7t-2 -4.5t-4 -3.5l-4.5 -3t-7 -3t-7.5 -3q-23 -9 -38.5 -27t-44.5 -67l-129 -213q-24 -39 -24 -54v-157q0 -84 67 -93q35 -5 41 -13
q3 -4 3 -11t-4 -12t-14 -6.5t-17 -2t-21 -0.5q-22 0 -68 4t-70 4q-16 0 -58 -4t-66 -4q-14 0 -21 0.5t-17 2t-14 6.5t-4 12q0 19 39 23q3 1 5 1q67 9 67 93v125q0 13 -8 26l-152 282q-43 79 -85 85q-42 7 -42 24q0 16 35 16q22 0 67 -4t68 -4t68 4t67 4q35 0 35 -16
q0 -7 -7 -11t-19 -7t-17 -6q-22 -12 -22 -22q0 -20 19 -55l91 -169q20 -37 29 -37q7 0 28 36zM329 785q0 -10 -25 -40t-34 -30q-11 0 -35 29t-24 41q0 11 24.5 41t34.5 30q9 0 34 -30.5t25 -40.5zM516 785q0 -11 -24 -40.5t-35 -29.5t-35 29t-24 41t24.5 41.5t34.5 29.5
t34.5 -30t24.5 -41z" />
    <glyph glyph-name="Zcaron" unicode="&#x17d;" horiz-adv-x="611" 
d="M323 633h-113q-78 0 -112 -60q-7 -12 -10.5 -30.5t-7.5 -27t-16 -8.5q-20 0 -20 29q0 24 5.5 71t6.5 60q1 21 28 21q35 0 104.5 -4t104.5 -4q45 0 134 4t133 4q14 0 14 -12q0 -10 -17 -40l-305 -530q-15 -25 -15 -44q0 -15 42 -15q194 0 275 122q7 11 14 11q21 0 21 -29
q0 -63 -43 -111t-112 -48q-60 0 -141.5 4t-97.5 4q-32 0 -85.5 -4t-62.5 -4q-26 0 -26 11q0 6 13 27l321 552q15 24 15 31q0 20 -47 20zM352 711h-93l-122 176h56l112 -98l113 98h56z" />
    <glyph glyph-name="zcaron" unicode="&#x17e;" horiz-adv-x="444" 
d="M404 400l-225 -254q-10 -12 -10 -23q0 -12 25 -12h88q56 0 76 4t35 18q17 17 25 17q15 0 15 -12q0 -24 -17.5 -55.5t-31.5 -48.5q-29 -42 -69 -42q-22 0 -64.5 4t-63.5 4t-64 -4t-65 -4q-40 0 -40 9q0 15 11 28l237 280q9 11 9 12q0 4 -22 4h-120q-22 0 -33.5 -12
t-22.5 -37q-7 -19 -22 -19q-18 0 -18 22q0 12 12 64t18 69q8 24 29 24q26 0 78 -4t78 -4q27 0 75.5 4t67.5 4q21 0 21 -13q0 -11 -12 -23zM268 502h-93l-122 176h56l112 -98l113 98h56z" />
    <glyph glyph-name="florin" unicode="&#x192;" 
d="M330 346l-25 -199q-5 -38 -9 -64t-13 -65.5t-20 -66.5t-29.5 -57.5t-41 -49t-55 -31t-71.5 -12.5q-62 0 -62 55q0 21 13.5 52.5t32.5 31.5q11 0 20 -12.5t15 -28t14.5 -28t17.5 -12.5q15 0 20 17t14 87l49 404q0 9 -11 9h-57q-27 0 -27 28q1 16 7.5 21t26.5 5h56
q14 0 16 19q8 96 76.5 172t168.5 76q52 0 69 -14.5t17 -46.5q0 -82 -30 -82q-12 0 -24 15.5t-21 33.5t-23.5 33.5t-31.5 15.5q-30 0 -50.5 -82t-20.5 -126q0 -14 31 -14h29q18 0 23.5 -7t5.5 -28q0 -11 -8.5 -15t-31.5 -4h-45q-6 0 -9 -5t-6 -25z" />
    <glyph glyph-name="circumflex" unicode="&#x2c6;" horiz-adv-x="278" 
d="M88 678h93l122 -176h-56l-113 99l-112 -99h-56z" />
    <glyph glyph-name="caron" unicode="&#x2c7;" horiz-adv-x="278" 
d="M185 502h-93l-122 176h56l112 -98l113 98h56z" />
    <glyph glyph-name="uni02C9" unicode="&#x2c9;" horiz-adv-x="278" 
d="M300 539h-330v72h330v-72z" />
    <glyph glyph-name="breve" unicode="&#x2d8;" horiz-adv-x="278" 
d="M-16 666h43q4 -41 31 -64t69 -23q52 0 78.5 19.5t36.5 67.5h44q-3 -77 -43.5 -120.5t-115.5 -43.5q-68 0 -107 48t-36 116z" />
    <glyph glyph-name="dotaccent" unicode="&#x2d9;" horiz-adv-x="278" 
d="M80 576q0 11 24.5 41t34.5 30q9 0 34 -30.5t25 -40.5t-25 -40t-34 -30q-11 0 -35 29t-24 41z" />
    <glyph glyph-name="ring" unicode="&#x2da;" horiz-adv-x="278" 
d="M139 666q-23 0 -40.5 -17.5t-17.5 -40.5t17.5 -40.5t40.5 -17.5t40.5 17.5t17.5 40.5t-17.5 40.5t-40.5 17.5zM139 715q44 0 75.5 -31.5t31.5 -75.5t-31.5 -75.5t-75.5 -31.5t-75.5 31.5t-31.5 75.5t31.5 75.5t75.5 31.5z" />
    <glyph glyph-name="ogonek" unicode="&#x2db;" horiz-adv-x="278" 
d="M230 -163l16 -37q-40 -18 -94 -18q-47 0 -89.5 19.5t-42.5 60.5q0 40 39.5 73.5t83.5 49t72 15.5h43v-2q-145 -60 -145 -134q0 -19 14.5 -29.5t32.5 -10.5q40 0 70 13z" />
    <glyph glyph-name="tilde" unicode="&#x2dc;" horiz-adv-x="278" 
d="M274 648h43q-10 -50 -39.5 -88t-76.5 -38q-32 0 -92 26q-53 23 -72 23q-32 0 -43 -48h-42q20 125 119 125q31 0 83 -24q50 -25 64 -25q23 0 34.5 12t21.5 37z" />
    <glyph glyph-name="hungarumlaut" unicode="&#x2dd;" horiz-adv-x="278" 
d="M-69 502h-49l90 120q45 60 59 70q13 9 30 9q20 0 33.5 -9.5t13.5 -23.5q0 -20 -7.5 -33.5t-32.5 -31.5zM94 502h-49l90 120q45 60 59 70q13 9 30 9q20 0 33.5 -9.5t13.5 -23.5q0 -20 -7.5 -33.5t-32.5 -31.5z" />
    <glyph glyph-name="uni03A9" unicode="&#x3a9;" horiz-adv-x="728" 
d="M693 146l-25 -146h-239l-7 19q5 10 28 53t35.5 69t29.5 68t24.5 82.5t7.5 80.5q-1 145 -53.5 213t-131.5 68q-82 0 -132 -68t-50 -218q0 -58 19.5 -122.5t41 -108t52.5 -99.5q7 -11 10 -17l-8 -20h-238l-24 146l27 1q15 -46 30.5 -59.5t46.5 -13.5h102q-32 26 -55 49
t-52 61t-45 87t-16 104q0 139 83.5 224t210.5 85q129 0 209.5 -81.5t80.5 -220.5q0 -49 -15 -94.5t-44 -86t-53 -67t-60 -60.5h108q32 0 45.5 12.5t29.5 60.5z" />
    <glyph glyph-name="uni03BC" unicode="&#x3bc;" horiz-adv-x="611" 
d="M202 409v-262q0 -42 23 -66t65 -24q96 0 96 98v195q0 28 -11 36q-5 4 -17 6t-22 2.5t-18 4t-8 11.5q0 14 8 19.5t26 5.5q59 0 101 5t46 5q30 0 30 -36v-331q0 -26 13 -36q5 -4 17 -6t22 -2.5t18 -4t8 -11.5q0 -25 -34 -25q-59 0 -101 -5t-46 -5q-28 0 -32 36l-3 38h-2
q-15 -33 -65.5 -53.5t-102.5 -20.5q-7 0 -11 1v-166q0 -17 -14 -17q-7 0 -35.5 4t-45.5 4q-16 0 -48 -4t-48 -4q-25 0 -25 14q0 5 2 8t6.5 5.5t8.5 4t11 4t11 3.5q13 5 20 9.5t14.5 18t7.5 33.5v449q0 28 -11 36q-5 4 -14 6t-15 2.5t-11 4t-5 11.5q0 15 6 20t18 5
q56 0 93.5 5t43.5 5q30 0 30 -36z" />
    <glyph glyph-name="pi" unicode="&#x3c0;" horiz-adv-x="566" 
d="M513 466l25 -8q-11 -62 -36 -94q-16 -5 -66 -5q-5 -51 -5 -221q1 -89 43 -89q22 0 48 28l13 -22q-18 -32 -47 -49.5t-59 -17.5q-43 0 -67 28.5t-24 98.5q0 94 10 246q-112 2 -149 2v-16q0 -102 -14.5 -183.5t-27 -113t-23.5 -45.5q-32 -13 -62 -17l-6 18
q49 62 70.5 163.5t21.5 195.5q-44 0 -68.5 -10t-58.5 -34l-15 24q2 3 11.5 14t14 16t15 15t18 15t20.5 12.5t26 11t30 6t36 2.5q34 0 126 -2q90 -2 141 -2q23 0 35 6.5t24 26.5z" />
    <glyph glyph-name="endash" unicode="&#x2013;" horiz-adv-x="500" 
d="M500 172h-500v83h500v-83z" />
    <glyph glyph-name="emdash" unicode="&#x2014;" horiz-adv-x="1000" 
d="M0 255h1000v-83h-1000v83z" />
    <glyph glyph-name="quoteleft" unicode="&#x2018;" horiz-adv-x="278" 
d="M135 363q-31 0 -57.5 42.5t-26.5 82.5q0 42 21 82.5t48.5 67t53.5 43t38 16.5q15 0 15 -11q0 -9 -18 -25.5t-36 -39.5t-18 -48q0 -30 10.5 -50.5t23.5 -29t23.5 -19.5t10.5 -22q0 -25 -30.5 -57t-57.5 -32z" />
    <glyph glyph-name="quoteright" unicode="&#x2019;" horiz-adv-x="278" 
d="M143 697q31 0 57.5 -42.5t26.5 -82.5q0 -42 -21 -82.5t-48.5 -67t-53.5 -43t-38 -16.5q-15 0 -15 11q0 9 18 25.5t36 39.5t18 48q0 30 -10.5 50.5t-23.5 29t-23.5 19.5t-10.5 22q0 25 30.5 57t57.5 32z" />
    <glyph glyph-name="quotesinglbase" unicode="&#x201a;" horiz-adv-x="278" 
d="M143 154q31 0 57.5 -42.5t26.5 -82.5q0 -42 -21 -82.5t-48.5 -67t-53.5 -43t-38 -16.5q-15 0 -15 11q0 9 18 25.5t36 39.5t18 48q0 30 -10.5 50.5t-23.5 29t-23.5 19.5t-10.5 22q0 25 30.5 57t57.5 32z" />
    <glyph glyph-name="quotedblleft" unicode="&#x201c;" horiz-adv-x="500" 
d="M365 363q-31 0 -57.5 42.5t-26.5 82.5q0 42 21 82.5t48.5 67t53.5 43t38 16.5q15 0 15 -11q0 -9 -18 -25.5t-36 -39.5t-18 -48q0 -30 10.5 -50.5t23.5 -29t23.5 -19.5t10.5 -22q0 -25 -30.5 -57t-57.5 -32zM124 363q-31 0 -57.5 42.5t-26.5 82.5q0 42 21 82.5t48.5 67
t53.5 43t38 16.5q15 0 15 -11q0 -9 -18 -25.5t-36 -39.5t-18 -48q0 -30 10.5 -50.5t23.5 -29t23.5 -19.5t10.5 -22q0 -25 -30.5 -57t-57.5 -32z" />
    <glyph glyph-name="quotedblright" unicode="&#x201d;" horiz-adv-x="500" 
d="M135 697q31 0 57.5 -42.5t26.5 -82.5q0 -42 -21 -82.5t-48.5 -67t-53.5 -43t-38 -16.5q-15 0 -15 11q0 9 18 25.5t36 39.5t18 48q0 30 -10.5 50.5t-23.5 29t-23.5 19.5t-10.5 22q0 25 30.5 57t57.5 32zM376 697q31 0 57.5 -42.5t26.5 -82.5q0 -42 -21 -82.5t-48.5 -67
t-53.5 -43t-38 -16.5q-15 0 -15 11q0 9 18 25.5t36 39.5t18 48q0 30 -10.5 50.5t-23.5 29t-23.5 19.5t-10.5 22q0 25 30.5 57t57.5 32z" />
    <glyph glyph-name="quotedblbase" unicode="&#x201e;" horiz-adv-x="500" 
d="M135 154q31 0 57.5 -42.5t26.5 -82.5q0 -42 -21 -82.5t-48.5 -67t-53.5 -43t-38 -16.5q-15 0 -15 11q0 9 18 25.5t36 39.5t18 48q0 30 -10.5 50.5t-23.5 29t-23.5 19.5t-10.5 22q0 25 30.5 57t57.5 32zM376 154q31 0 57.5 -42.5t26.5 -82.5q0 -42 -21 -82.5t-48.5 -67
t-53.5 -43t-38 -16.5q-15 0 -15 11q0 9 18 25.5t36 39.5t18 48q0 30 -10.5 50.5t-23.5 29t-23.5 19.5t-10.5 22q0 25 30.5 57t57.5 32z" />
    <glyph glyph-name="dagger" unicode="&#x2020;" horiz-adv-x="500" 
d="M263 -132h-27q1 47 -5 143q-9 151 -61 257q30 30 46 80t16 98q-24 5 -68.5 -22t-69.5 -27q-24 0 -41 19.5t-17 46.5q0 23 17.5 41t40.5 18q26 0 67 -25.5t73 -25.5q0 55 -23 101t-23 67q0 27 18 42.5t44 15.5q25 0 43 -15.5t18 -42.5q0 -21 -23 -67t-23 -101
q31 0 73 25.5t67 25.5q23 0 40.5 -18t17.5 -41q0 -27 -17 -46.5t-41 -19.5q-25 0 -69.5 27t-68.5 22q0 -48 16 -98t46 -80q-52 -106 -61 -257q-6 -96 -5 -143z" />
    <glyph glyph-name="daggerdbl" unicode="&#x2021;" horiz-adv-x="500" 
d="M463 463q0 -27 -17 -46.5t-41 -19.5q-25 0 -69 27t-68 22q-3 -83 61 -157q-64 -83 -61 -162q24 -5 68 22t69 27q24 0 41 -19.5t17 -46.5q0 -23 -17.5 -41t-40.5 -18q-26 0 -67 25.5t-72 25.5q0 -55 22.5 -101t22.5 -67q0 -27 -18.5 -42.5t-47.5 -15.5q-23 0 -40 16
t-17 42q0 21 23 67t23 101q-32 0 -73 -25.5t-67 -25.5q-23 0 -40.5 18t-17.5 41q0 27 17 46.5t41 19.5q25 0 69.5 -27t68.5 -22q-7 92 -61 160q54 66 61 159q-24 5 -68.5 -22t-69.5 -27q-24 0 -41 19.5t-17 46.5q0 23 17.5 41t40.5 18q26 0 67 -25.5t73 -25.5q0 55 -23 101
t-23 67q0 26 17 42t40 16q29 0 47.5 -15.5t18.5 -42.5q0 -21 -22.5 -67t-22.5 -101q31 0 72 25.5t67 25.5q23 0 40.5 -18t17.5 -41z" />
    <glyph glyph-name="bullet" unicode="&#x2022;" horiz-adv-x="500" 
d="M422 344q0 -71 -50.5 -121.5t-121.5 -50.5t-121.5 50.5t-50.5 121.5t50.5 121.5t121.5 50.5t121.5 -50.5t50.5 -121.5z" />
    <glyph glyph-name="ellipsis" unicode="&#x2026;" horiz-adv-x="1000" 
d="M75 83q0 18 37 55t56 37q18 0 54 -37t36 -55q0 -19 -36 -55t-54 -36q-19 0 -56 36t-37 55zM408 83q0 18 37 55t56 37q18 0 54 -37t36 -55q0 -19 -36 -55t-54 -36q-19 0 -56 36t-37 55zM741 83q0 18 37 55t56 37q18 0 54 -37t36 -55q0 -19 -36 -55t-54 -36q-19 0 -56 36
t-37 55z" />
    <glyph glyph-name="perthousand" unicode="&#x2030;" horiz-adv-x="1000" 
d="M103 -16l385 700h55l-386 -700h-54zM145 653q-44 0 -44 -92q0 -167 69 -167q49 0 49 79q0 180 -74 180zM825 274q-44 0 -44 -92q0 -167 69 -167q49 0 49 79q0 180 -74 180zM157 684q73 0 114.5 -45.5t41.5 -119.5q0 -72 -41.5 -114t-113.5 -42q-69 0 -110 47t-41 118
q0 72 39 114t111 42zM837 305q73 0 114.5 -45.5t41.5 -119.5q0 -72 -41.5 -114t-113.5 -42q-69 0 -110 47t-41 118q0 72 39 114t111 42zM484 305q73 0 114.5 -45.5t41.5 -119.5q0 -72 -41.5 -114t-113.5 -42q-69 0 -110 47t-41 118q0 72 39 114t111 42zM472 274
q-44 0 -44 -92q0 -167 69 -167q49 0 49 79q0 180 -74 180z" />
    <glyph glyph-name="guilsinglleft" unicode="&#x2039;" horiz-adv-x="333" 
d="M182 213q3 -4 19 -28.5t29 -45.5t25 -44.5t12 -33.5q0 -9 -10 -9q-5 0 -13.5 7.5t-32 30t-50.5 44.5q-20 17 -46.5 35t-38 27t-11.5 17t11.5 17t38 27t46.5 35q18 15 34.5 29.5t25.5 23.5t16.5 16t12 10t7.5 3q10 0 10 -9q0 -20 -34 -77t-51 -75z" />
    <glyph glyph-name="guilsinglright" unicode="&#x203a;" horiz-adv-x="333" 
d="M151 213q-17 18 -51 75t-34 77q0 9 10 9q5 0 13.5 -7.5t32 -30t50.5 -44.5q20 -17 46.5 -35t38 -27t11.5 -17t-11.5 -17t-38 -27t-46.5 -35q-18 -15 -34.5 -30t-25 -23.5t-16.5 -15.5t-12.5 -10t-7.5 -3q-10 0 -10 9q0 10 12 33.5t25 44.5t29 45.5t19 28.5z" />
    <glyph glyph-name="fraction" unicode="&#x2044;" horiz-adv-x="167" 
d="M-167 -16l441 700h60l-441 -700h-60z" />
    <glyph glyph-name="Euro" unicode="&#x20ac;" 
d="M526 496q2 -17 -15 -17q-2 0 -4 0.5t-3.5 1.5t-3 3t-2.5 4t-2.5 5.5t-2.5 6t-3 8t-3 8.5q-48 131 -148 131q-53 0 -89 -55t-48 -167h264q13 0 9 -13l-15 -35q-3 -10 -15 -10h-247q-1 -14 -1 -33v-13h227q14 0 9 -13l-15 -35q-4 -10 -17 -10h-201q11 -101 49.5 -168
t96.5 -67q50 0 82.5 36.5t47.5 81.5q10 32 18 36q2 1 6 1q16 0 16 -17l-4 -104q0 -3 -6.5 -11.5t-21.5 -20t-36 -21.5t-54 -17.5t-72 -7.5q-94 0 -165 75.5t-83 203.5h-55q-12 0 -8 13l13 34q4 11 17 11h31q0 10 2 46h-57q-12 0 -7 12l13 35q5 11 18 11h40q15 89 57 149.5
t91.5 85t102.5 24.5q39 0 72 -7.5t53 -17.5t34.5 -21.5t20.5 -20t6 -11.5z" />
    <glyph glyph-name="afii61289" unicode="&#x2113;" horiz-adv-x="415" 
d="M377 118l20 -18q-61 -114 -169 -114q-70 0 -103 38q-19 23 -27 54t-8 90v76l-59 -43l-12 26l71 55v128q0 117 10.5 169t41.5 89q39 50 92 50q45 0 69 -37.5t24 -93.5q0 -81 -37.5 -149t-108.5 -138v-87q0 -93 21 -130.5t66 -37.5q58 0 109 73zM181 467v-120
q91 109 91 238q0 102 -45 102q-27 0 -36.5 -47.5t-9.5 -172.5z" />
    <glyph glyph-name="trademark" unicode="&#x2122;" horiz-adv-x="1000" 
d="M257 652v-310q0 -24 7.5 -31t43.5 -9v-28h-217v28q36 2 43.5 9t7.5 31v310h-43q-50 0 -63 -60h-26v88h379v-88h-26q-13 60 -63 60h-43zM715 410l141 270h134v-26q-35 -1 -43.5 -9t-8.5 -33v-270q0 -24 7.5 -31t43.5 -9v-28h-216v28q35 2 42.5 9.5t7.5 30.5v213h-2
l-141 -280h-16l-131 280h-2v-182q0 -24 1 -34t5.5 -20.5t15.5 -13.5t30 -3v-28h-135v28q34 0 42 13.5t8 57.5v228q-24 53 -71 53v26h157z" />
    <glyph glyph-name="Omega" unicode="&#x2126;" horiz-adv-x="728" 
d="M693 146l-25 -146h-239l-7 19q5 10 28 53t35.5 69t29.5 68t24.5 82.5t7.5 80.5q-1 145 -53.5 213t-131.5 68q-82 0 -132 -68t-50 -218q0 -58 19.5 -122.5t41 -108t52.5 -99.5q7 -11 10 -17l-8 -20h-238l-24 146l27 1q15 -46 30.5 -59.5t46.5 -13.5h102q-32 26 -55 49
t-52 61t-45 87t-16 104q0 139 83.5 224t210.5 85q129 0 209.5 -81.5t80.5 -220.5q0 -49 -15 -94.5t-44 -86t-53 -67t-60 -60.5h108q32 0 45.5 12.5t29.5 60.5z" />
    <glyph glyph-name="estimated" unicode="&#x212e;" horiz-adv-x="843" 
d="M809 324h-629q-5 0 -5 -4v-191q0 -12 9 -21q101 -104 237 -104q150 0 251 116h55q-53 -62 -134 -98.5t-173 -36.5q-160 0 -273.5 102t-113.5 246q0 145 113 247t274 102t275 -102t114 -247v-9zM666 348v192q0 12 -9 23q-102 99 -236 99q-135 0 -236 -103q-10 -9 -10 -23
v-188q0 -6 5 -6h482q4 0 4 6z" />
    <glyph glyph-name="partialdiff" unicode="&#x2202;" horiz-adv-x="531" 
d="M262 420h1q36 0 72 -17t59 -50q8 63 9 105q3 87 -26 154q-16 36 -49.5 62t-75.5 26q-68 0 -139 -59q-13 -1 -26 24.5t-6 42.5q63 41 141 41q135 0 209 -140q50 -94 50 -228q0 -145 -48 -245q-71 -150 -207 -150q-83 0 -133.5 53t-50.5 144q0 96 59 164q28 33 71 53t90 20
zM286 379h-1q-65 0 -104 -57q-45 -70 -45 -185q0 -52 24.5 -85.5t66.5 -33.5q64 0 110 102q32 71 49 190q-11 24 -39 46.5t-61 22.5z" />
    <glyph glyph-name="Delta" unicode="&#x2206;" horiz-adv-x="635" 
d="M599 0h-565v27l257 645l43 12l265 -657v-27zM481 49l-197 500l-193 -500h390z" />
    <glyph glyph-name="product" unicode="&#x220f;" horiz-adv-x="688" 
d="M660 678v-27q-63 -5 -76.5 -16.5t-13.5 -57.5v-551q0 -52 13.5 -65t74.5 -17v-28h-265v28q58 4 70 16t12 66v584q0 22 -6.5 27.5t-29.5 5.5h-193q-22 0 -27.5 -5t-5.5 -24v-588q0 -53 10 -65.5t63 -16.5v-28h-257v28q60 5 74 17.5t14 64.5v551q0 46 -14 57.5t-77 16.5v27
h634z" />
    <glyph glyph-name="summation" unicode="&#x2211;" horiz-adv-x="553" 
d="M530 104l-44 -192h-459v26l221 331l-216 383v26h454q0 -7 12 -163l-29 -6q-11 67 -33 102q-11 20 -30.5 26.5t-73.5 6.5h-181l180 -312l-222 -338h252q66 0 87.5 17t52.5 100z" />
    <glyph glyph-name="minus" unicode="&#x2212;" horiz-adv-x="600" 
d="M514 166h-428v96h428v-96z" />
    <glyph glyph-name="uni2215" unicode="&#x2215;" horiz-adv-x="167" 
d="M-167 -16l441 700h60l-441 -700h-60z" />
    <glyph glyph-name="uni2219" unicode="&#x2219;" horiz-adv-x="278" 
d="M223 214q0 -35 -24.5 -60t-59.5 -25t-59.5 25t-24.5 60t24.5 60t59.5 25t59.5 -25t24.5 -60z" />
    <glyph glyph-name="radical" unicode="&#x221a;" horiz-adv-x="548" 
d="M532 863l-166 -1011l-23 -11l-214 536l-86 -41l-12 34l161 75l162 -421h2l136 848z" />
    <glyph glyph-name="infinity" unicode="&#x221e;" horiz-adv-x="744" 
d="M697 280v-1q0 -72 -44.5 -116t-105.5 -44q-44 0 -84.5 25.5t-89.5 85.5q-45 -54 -85.5 -82.5t-93.5 -28.5q-61 0 -104.5 44t-43.5 112q0 69 44.5 113.5t111.5 44.5q86 0 175 -109q1 1 13 14.5t14.5 16t14 14.5t15.5 15t15.5 13t18 13t18 9t21 8t21.5 4t24 2
q64 0 104.5 -42.5t40.5 -110.5zM202 176h1q26 0 55 18t41.5 31.5t41.5 46.5q-21 27 -31.5 40t-30 31.5t-39.5 26.5t-43 8q-42 0 -66.5 -29.5t-24.5 -74.5q0 -41 27.5 -69.5t68.5 -28.5zM546 378h-1q-17 0 -33.5 -6.5t-33 -20t-26.5 -23t-26 -28t-20 -22.5q48 -57 78 -79.5
t65 -22.5q40 0 64.5 30.5t24.5 67.5q0 47 -25.5 75.5t-66.5 28.5z" />
    <glyph glyph-name="integral" unicode="&#x222b;" horiz-adv-x="376" 
d="M159 8l-19 398q-5 99 2 174.5t21.5 120.5t37 73t45 38t49.5 10q23 0 43 -12.5t20 -35.5q0 -22 -13.5 -34t-32.5 -12q-11 0 -19.5 8t-12 17t-9 17t-12.5 8q-46 0 -37 -160l18 -372q6 -126 -4.5 -216t-34.5 -137.5t-53.5 -68.5t-66.5 -21q-26 0 -44 14.5t-19 35.5
q-1 20 16 34.5t38 14.5q16 0 28 -26.5t22 -26.5q21 0 31 43t6 116z" />
    <glyph glyph-name="approxequal" unicode="&#x2248;" horiz-adv-x="535" 
d="M455 426l38 -35q-50 -94 -128 -94q-44 0 -109 38q-53 32 -86 32q-29 0 -50 -18t-43 -51l-39 34q22 42 59 68t79 26q13 0 25 -2t25 -7.5t18.5 -7.5t20.5 -11l15 -8q2 -1 9.5 -5.5t9.5 -5.5t8.5 -5t8.5 -5t7.5 -3.5t8.5 -3.5t8 -2.5t8.5 -2t8 -1t9.5 -0.5q46 0 89 70z
M455 255l38 -35q-50 -95 -128 -95q-27 0 -49 8.5t-60 30.5q-56 32 -85 32q-30 0 -50.5 -18t-43.5 -52l-39 34q22 43 59 69t79 26q13 0 25.5 -2t25 -7t18.5 -8t19.5 -10.5t15.5 -8.5q3 -2 16.5 -9.5l18 -10t15 -7t18.5 -6t18 -1.5q27 0 46.5 17t42.5 53z" />
    <glyph glyph-name="notequal" unicode="&#x2260;" horiz-adv-x="535" 
d="M387 489l-40 -88h139v-61h-163l-60 -133h223v-60h-247l-49 -111l-48 21l40 90h-135v60h160l59 133h-219v61h243l49 108z" />
    <glyph glyph-name="lessequal" unicode="&#x2264;" horiz-adv-x="535" 
d="M484 98l-432 214v65l432 214v-71l-369 -174v-2l369 -176v-70zM487 0h-439v61h439v-61z" />
    <glyph glyph-name="greaterequal" unicode="&#x2265;" horiz-adv-x="535" 
d="M53 591l432 -215v-64l-432 -214v70l369 176v2l-369 174v71zM485 0h-436v61h436v-61z" />
    <glyph glyph-name="lozenge" unicode="&#x25ca;" horiz-adv-x="555" 
d="M508 326l-195 -395h-71l-195 395l196 397h71zM440 326l-160 332h-3l-161 -331l161 -333h3z" />
    </font>
</defs>
</svg>
